<ttFont>
    <TTGlyph name=".notdef" xMin="68" yMin="0" xMax="612" yMax="1365">
      <contour>
        <pt x="68" y="0" on="1"/>
        <pt x="68" y="1365" on="1"/>
        <pt x="612" y="1365" on="1"/>
        <pt x="612" y="0" on="1"/>
      </contour>
      <contour>
        <pt x="136" y="68" on="1"/>
        <pt x="544" y="68" on="1"/>
        <pt x="544" y="1297" on="1"/>
        <pt x="136" y="1297" on="1"/>
      </contour>
    </TTGlyph>
    <TTGlyph name=".ttfautohint" xMin="0" yMin="0" xMax="0" yMax="0">
      <contour>
        <pt x="0" y="0" on="1"/>
      </contour>
    </TTGlyph>
    <TTGlyph name="A" xMin="68" yMin="0" xMax="1161" yMax="1491">
      <contour>
        <pt x="443" y="631" on="1"/>
        <pt x="785" y="631" on="1"/>
        <pt x="617" y="1278" on="1"/>
      </contour>
      <contour>
        <pt x="720" y="1491" on="1"/>
        <pt x="1161" y="0" on="1"/>
        <pt x="964" y="0" on="1"/>
        <pt x="823" y="481" on="1"/>
        <pt x="404" y="481" on="1"/>
        <pt x="264" y="0" on="1"/>
        <pt x="68" y="0" on="1"/>
        <pt x="508" y="1491" on="1"/>
      </contour>
    </TTGlyph>
    <TTGlyph name="AE" xMin="27" yMin="0" xMax="1194" yMax="1572">
      <contour>
        <pt x="692" y="591" on="1"/>
        <pt x="692" y="1360" on="1"/>
        <pt x="441" y="591" on="1"/>
      </contour>
      <contour>
        <pt x="612" y="1572" on="1"/>
        <pt x="1165" y="1572" on="1"/>
        <pt x="1153" y="1411" on="1"/>
        <pt x="871" y="1411" on="1"/>
        <pt x="871" y="881" on="1"/>
        <pt x="1179" y="881" on="1"/>
        <pt x="1166" y="721" on="1"/>
        <pt x="871" y="721" on="1"/>
        <pt x="871" y="151" on="1"/>
        <pt x="1194" y="151" on="1"/>
        <pt x="1182" y="0" on="1"/>
        <pt x="692" y="0" on="1"/>
        <pt x="692" y="431" on="1"/>
        <pt x="380" y="431" on="1"/>
        <pt x="235" y="0" on="1"/>
        <pt x="27" y="0" on="1"/>
      </contour>
    </TTGlyph>
    <TTGlyph name="Aacute" xMin="68" yMin="0" xMax="1161" yMax="2075">
      <component glyphName=".ttfautohint" x="68" y="0" flags="0x0"/>
      <component glyphName="A" x="0" y="0" flags="0x1004"/>
      <component glyphName="acute" x="125" y="370" flags="0x1004"/>
    </TTGlyph>
    <TTGlyph name="Abreve" xMin="68" yMin="0" xMax="1161" yMax="1894">
      <component glyphName=".ttfautohint" x="68" y="0" flags="0x0"/>
      <component glyphName="A" x="0" y="0" flags="0x1004"/>
      <component glyphName="breve" x="-12" y="315" flags="0x1004"/>
    </TTGlyph>
    <TTGlyph name="Acircumflex" xMin="68" yMin="0" xMax="1161" yMax="1987">
      <component glyphName=".ttfautohint" x="68" y="0" flags="0x0"/>
      <component glyphName="A" x="0" y="0" flags="0x1004"/>
      <component glyphName="circumflex" x="-12" y="372" flags="0x1004"/>
    </TTGlyph>
    <TTGlyph name="Adieresis" xMin="68" yMin="0" xMax="1161" yMax="1828">
      <component glyphName=".ttfautohint" x="68" y="0" flags="0x0"/>
      <component glyphName="A" x="0" y="0" flags="0x1004"/>
      <component glyphName="dieresis" x="-30" y="370" flags="0x1004"/>
    </TTGlyph>
    <TTGlyph name="Agrave" xMin="68" yMin="0" xMax="1161" yMax="2075">
      <component glyphName=".ttfautohint" x="68" y="0" flags="0x0"/>
      <component glyphName="A" x="0" y="0" flags="0x1004"/>
      <component glyphName="grave" x="-254" y="370" flags="0x1004"/>
    </TTGlyph>
    <TTGlyph name="Amacron" xMin="68" yMin="0" xMax="1161" yMax="1778">
      <component glyphName=".ttfautohint" x="68" y="0" flags="0x0"/>
      <component glyphName="macron" x="0" y="139" flags="0x1004"/>
      <component glyphName="A" x="0" y="0" flags="0x1204"/>
    </TTGlyph>
    <TTGlyph name="Aogonek" xMin="68" yMin="-422" xMax="1161" yMax="1491">
      <component glyphName=".ttfautohint" x="68" y="0" flags="0x0"/>
      <component glyphName="A" x="0" y="0" flags="0x1004"/>
      <component glyphName="ogonek" x="-38" y="2" flags="0x1004"/>
    </TTGlyph>
    <TTGlyph name="Aring" xMin="68" yMin="0" xMax="1161" yMax="1916">
      <component glyphName=".ttfautohint" x="68" y="0" flags="0x0"/>
      <component glyphName="A" x="0" y="0" flags="0x1004"/>
      <component glyphName="ring" x="-6" y="255" flags="0x1004"/>
    </TTGlyph>
    <TTGlyph name="Atilde" xMin="68" yMin="0" xMax="1161" yMax="1897">
      <component glyphName=".ttfautohint" x="68" y="0" flags="0x0"/>
      <component glyphName="A" x="0" y="0" flags="0x1004"/>
      <component glyphName="tilde" x="-32" y="349" flags="0x1004"/>
    </TTGlyph>
    <TTGlyph name="B" xMin="157" yMin="0" xMax="1112" yMax="1491">
      <contour>
        <pt x="491" y="876" on="1"/>
        <pt x="687" y="876" on="0"/>
        <pt x="839" y="991" on="0"/>
        <pt x="839" y="1090" on="1"/>
        <pt x="839" y="1238" on="0"/>
        <pt x="758" y="1288" on="1"/>
        <pt x="701" y="1325" on="0"/>
        <pt x="529" y="1345" on="0"/>
        <pt x="396" y="1345" on="1"/>
        <pt x="344" y="1345" on="1"/>
        <pt x="344" y="876" on="1"/>
      </contour>
      <contour>
        <pt x="536" y="715" on="1"/>
        <pt x="344" y="715" on="1"/>
        <pt x="344" y="146" on="1"/>
        <pt x="505" y="146" on="1"/>
        <pt x="714" y="146" on="0"/>
        <pt x="915" y="270" on="0"/>
        <pt x="915" y="601" on="0"/>
        <pt x="717" y="715" on="0"/>
      </contour>
      <contour>
        <pt x="1112" y="433" on="1"/>
        <pt x="1112" y="0" on="0"/>
        <pt x="516" y="0" on="1"/>
        <pt x="157" y="0" on="1"/>
        <pt x="157" y="1491" on="1"/>
        <pt x="450" y="1491" on="1"/>
        <pt x="786" y="1491" on="0"/>
        <pt x="1035" y="1300" on="0"/>
        <pt x="1035" y="1125" on="1"/>
        <pt x="1035" y="997" on="0"/>
        <pt x="891" y="843" on="0"/>
        <pt x="768" y="810" on="1"/>
        <pt x="916" y="788" on="0"/>
        <pt x="1112" y="581" on="0"/>
      </contour>
    </TTGlyph>
    <TTGlyph name="C" xMin="124" yMin="-25" xMax="1129" yMax="1516">
      <contour>
        <pt x="1128" y="1391" on="1"/>
        <pt x="1062" y="1260" on="1"/>
        <pt x="929" y="1363" on="0"/>
        <pt x="619" y="1363" on="0"/>
        <pt x="518" y="1276" on="1"/>
        <pt x="320" y="1107" on="0"/>
        <pt x="320" y="748" on="1"/>
        <pt x="320" y="575" on="0"/>
        <pt x="422" y="297" on="0"/>
        <pt x="623" y="130" on="0"/>
        <pt x="757" y="130" on="1"/>
        <pt x="932" y="130" on="0"/>
        <pt x="1064" y="238" on="1"/>
        <pt x="1129" y="97" on="1"/>
        <pt x="989" y="-25" on="0"/>
        <pt x="734" y="-25" on="1"/>
        <pt x="551" y="-25" on="0"/>
        <pt x="272" y="176" on="0"/>
        <pt x="124" y="527" on="0"/>
        <pt x="124" y="922" on="0"/>
        <pt x="218" y="1211" on="0"/>
        <pt x="381" y="1407" on="0"/>
        <pt x="605" y="1516" on="0"/>
        <pt x="734" y="1516" on="1"/>
        <pt x="983" y="1516" on="0"/>
      </contour>
    </TTGlyph>
    <TTGlyph name="Cacute" xMin="124" yMin="-25" xMax="1161" yMax="2075">
      <component glyphName=".ttfautohint" x="124" y="0" flags="0x0"/>
      <component glyphName="C" x="0" y="0" flags="0x1004"/>
      <component glyphName="acute" x="250" y="370" flags="0x1004"/>
    </TTGlyph>
    <TTGlyph name="Ccaron" xMin="124" yMin="-25" xMax="1129" yMax="1986">
      <component glyphName=".ttfautohint" x="124" y="0" flags="0x0"/>
      <component glyphName="C" x="0" y="0" flags="0x1004"/>
      <component glyphName="caron" x="101" y="372" flags="0x1004"/>
    </TTGlyph>
    <TTGlyph name="Ccedilla" xMin="124" yMin="-457" xMax="1129" yMax="1516">
      <component glyphName=".ttfautohint" x="124" y="0" flags="0x0"/>
      <component glyphName="C" x="0" y="0" flags="0x1004"/>
      <component glyphName="cedilla" x="116" y="-29" flags="0x1004"/>
    </TTGlyph>
    <TTGlyph name="Ccircumflex" xMin="124" yMin="-25" xMax="1129" yMax="1967">
      <component glyphName=".ttfautohint" x="124" y="0" flags="0x0"/>
      <component glyphName="C" x="0" y="0" flags="0x1004"/>
      <component glyphName="circumflex" x="19" y="352" flags="0x1004"/>
    </TTGlyph>
    <TTGlyph name="Cdotaccent" xMin="124" yMin="-25" xMax="1129" yMax="1795">
      <contour>
        <pt x="556" y="1795" on="1"/>
        <pt x="733" y="1795" on="1"/>
        <pt x="733" y="1618" on="1"/>
        <pt x="556" y="1618" on="1"/>
      </contour>
      <contour>
        <pt x="1128" y="1391" on="1"/>
        <pt x="1062" y="1260" on="1"/>
        <pt x="929" y="1363" on="0"/>
        <pt x="619" y="1363" on="0"/>
        <pt x="518" y="1276" on="1"/>
        <pt x="320" y="1107" on="0"/>
        <pt x="320" y="748" on="1"/>
        <pt x="320" y="575" on="0"/>
        <pt x="422" y="297" on="0"/>
        <pt x="623" y="130" on="0"/>
        <pt x="757" y="130" on="1"/>
        <pt x="932" y="130" on="0"/>
        <pt x="1064" y="238" on="1"/>
        <pt x="1129" y="97" on="1"/>
        <pt x="989" y="-25" on="0"/>
        <pt x="734" y="-25" on="1"/>
        <pt x="551" y="-25" on="0"/>
        <pt x="272" y="176" on="0"/>
        <pt x="124" y="527" on="0"/>
        <pt x="124" y="922" on="0"/>
        <pt x="218" y="1211" on="0"/>
        <pt x="381" y="1407" on="0"/>
        <pt x="605" y="1516" on="0"/>
        <pt x="734" y="1516" on="1"/>
        <pt x="983" y="1516" on="0"/>
      </contour>
    </TTGlyph>
    <TTGlyph name="D" xMin="156" yMin="0" xMax="1122" yMax="1491">
      <contour>
        <pt x="372" y="146" on="1"/>
        <pt x="733" y="146" on="0"/>
        <pt x="852" y="372" on="1"/>
        <pt x="926" y="512" on="0"/>
        <pt x="926" y="747" on="1"/>
        <pt x="926" y="1039" on="0"/>
        <pt x="689" y="1345" on="0"/>
        <pt x="374" y="1345" on="1"/>
        <pt x="343" y="1345" on="1"/>
        <pt x="343" y="146" on="1"/>
      </contour>
      <contour>
        <pt x="156" y="1491" on="1"/>
        <pt x="401" y="1491" on="1"/>
        <pt x="757" y="1491" on="0"/>
        <pt x="1122" y="1105" on="0"/>
        <pt x="1122" y="382" on="0"/>
        <pt x="750" y="0" on="0"/>
        <pt x="379" y="0" on="1"/>
        <pt x="156" y="0" on="1"/>
      </contour>
    </TTGlyph>
    <TTGlyph name="Dcaron" xMin="156" yMin="0" xMax="1122" yMax="1966">
      <component glyphName=".ttfautohint" x="156" y="0" flags="0x0"/>
      <component glyphName="D" x="0" y="0" flags="0x1004"/>
      <component glyphName="caron" x="-29" y="352" flags="0x1004"/>
    </TTGlyph>
    <TTGlyph name="Dcroat" xMin="0" yMin="0" xMax="1584" yMax="1581">
      <component glyphName=".ttfautohint" x="0" y="0" flags="0x0"/>
      <component glyphName="Eth" x="0" y="0" flags="0x1004"/>
    </TTGlyph>
    <TTGlyph name="E" xMin="217" yMin="0" xMax="1108" yMax="1491">
      <contour>
        <pt x="404" y="684" on="1"/>
        <pt x="404" y="146" on="1"/>
        <pt x="1108" y="146" on="1"/>
        <pt x="1093" y="0" on="1"/>
        <pt x="217" y="0" on="1"/>
        <pt x="217" y="1491" on="1"/>
        <pt x="1075" y="1491" on="1"/>
        <pt x="1059" y="1345" on="1"/>
        <pt x="404" y="1345" on="1"/>
        <pt x="404" y="843" on="1"/>
        <pt x="1026" y="843" on="1"/>
        <pt x="1026" y="684" on="1"/>
      </contour>
    </TTGlyph>
    <TTGlyph name="Eacute" xMin="217" yMin="0" xMax="1108" yMax="2075">
      <component glyphName=".ttfautohint" x="217" y="0" flags="0x0"/>
      <component glyphName="E" x="0" y="0" flags="0x1004"/>
      <component glyphName="acute" x="174" y="370" flags="0x1004"/>
    </TTGlyph>
    <TTGlyph name="Ecaron" xMin="217" yMin="0" xMax="1108" yMax="1966">
      <component glyphName=".ttfautohint" x="217" y="0" flags="0x0"/>
      <component glyphName="E" x="0" y="0" flags="0x1004"/>
      <component glyphName="caron" x="41" y="352" flags="0x1004"/>
    </TTGlyph>
    <TTGlyph name="Ecircumflex" xMin="217" yMin="0" xMax="1108" yMax="1987">
      <component glyphName=".ttfautohint" x="217" y="0" flags="0x0"/>
      <component glyphName="E" x="0" y="0" flags="0x1004"/>
      <component glyphName="circumflex" x="37" y="372" flags="0x1004"/>
    </TTGlyph>
    <TTGlyph name="Edieresis" xMin="217" yMin="0" xMax="1108" yMax="1828">
      <component glyphName=".ttfautohint" x="217" y="0" flags="0x0"/>
      <component glyphName="E" x="0" y="0" flags="0x1004"/>
      <component glyphName="dieresis" x="18" y="370" flags="0x1004"/>
    </TTGlyph>
    <TTGlyph name="Edotaccent" xMin="217" yMin="0" xMax="1108" yMax="1815">
      <contour>
        <pt x="574" y="1815" on="1"/>
        <pt x="751" y="1815" on="1"/>
        <pt x="751" y="1638" on="1"/>
        <pt x="574" y="1638" on="1"/>
      </contour>
      <contour>
        <pt x="404" y="684" on="1"/>
        <pt x="404" y="146" on="1"/>
        <pt x="1108" y="146" on="1"/>
        <pt x="1093" y="0" on="1"/>
        <pt x="217" y="0" on="1"/>
        <pt x="217" y="1491" on="1"/>
        <pt x="1075" y="1491" on="1"/>
        <pt x="1059" y="1345" on="1"/>
        <pt x="404" y="1345" on="1"/>
        <pt x="404" y="843" on="1"/>
        <pt x="1026" y="843" on="1"/>
        <pt x="1026" y="684" on="1"/>
      </contour>
    </TTGlyph>
    <TTGlyph name="Egrave" xMin="213" yMin="0" xMax="1108" yMax="2075">
      <component glyphName=".ttfautohint" x="213" y="0" flags="0x0"/>
      <component glyphName="E" x="0" y="0" flags="0x1004"/>
      <component glyphName="grave" x="-205" y="370" flags="0x1004"/>
    </TTGlyph>
    <TTGlyph name="Emacron" xMin="217" yMin="0" xMax="1108" yMax="1778">
      <component glyphName=".ttfautohint" x="217" y="0" flags="0x0"/>
      <component glyphName="macron" x="48" y="139" flags="0x1004"/>
      <component glyphName="E" x="0" y="0" flags="0x1204"/>
    </TTGlyph>
    <TTGlyph name="Eng" xMin="129" yMin="-458" xMax="1099" yMax="1518">
      <contour>
        <pt x="706" y="-299" on="1"/>
        <pt x="912" y="-299" on="0"/>
        <pt x="912" y="-39" on="1"/>
        <pt x="912" y="1003" on="1"/>
        <pt x="912" y="1192" on="0"/>
        <pt x="805" y="1363" on="0"/>
        <pt x="508" y="1363" on="0"/>
        <pt x="316" y="1187" on="0"/>
        <pt x="316" y="1011" on="1"/>
        <pt x="316" y="2" on="1"/>
        <pt x="129" y="2" on="1"/>
        <pt x="129" y="1491" on="1"/>
        <pt x="303" y="1491" on="1"/>
        <pt x="316" y="1342" on="1"/>
        <pt x="462" y="1517" on="0"/>
        <pt x="715" y="1518" on="1"/>
        <pt x="718" y="1518" on="1"/>
        <pt x="897" y="1518" on="0"/>
        <pt x="998" y="1393" on="1"/>
        <pt x="1099" y="1267" on="0"/>
        <pt x="1099" y="1009" on="1"/>
        <pt x="1099" y="13" on="1"/>
        <pt x="1099" y="-226" on="0"/>
        <pt x="916" y="-458" on="0"/>
        <pt x="682" y="-458" on="1"/>
        <pt x="592" y="-458" on="0"/>
        <pt x="406" y="-437" on="1"/>
        <pt x="345" y="-430" on="1"/>
        <pt x="334" y="-268" on="1"/>
        <pt x="592" y="-299" on="0"/>
      </contour>
    </TTGlyph>
    <TTGlyph name="Eogonek" xMin="217" yMin="-422" xMax="1108" yMax="1491">
      <component glyphName=".ttfautohint" x="217" y="0" flags="0x0"/>
      <component glyphName="E" x="0" y="0" flags="0x1004"/>
      <component glyphName="ogonek" x="18" y="2" flags="0x1004"/>
    </TTGlyph>
    <TTGlyph name="Eth" xMin="0" yMin="0" xMax="1584" yMax="1581">
      <contour>
        <pt x="694" y="160" on="1"/>
        <pt x="1015" y="160" on="0"/>
        <pt x="1381" y="477" on="0"/>
        <pt x="1381" y="782" on="1"/>
        <pt x="1381" y="1201" on="0"/>
        <pt x="1078" y="1337" on="1"/>
        <pt x="894" y="1420" on="0"/>
        <pt x="587" y="1420" on="1"/>
        <pt x="405" y="1420" on="1"/>
        <pt x="405" y="863" on="1"/>
        <pt x="633" y="863" on="1"/>
        <pt x="633" y="714" on="1"/>
        <pt x="405" y="714" on="1"/>
        <pt x="405" y="160" on="1"/>
      </contour>
      <contour>
        <pt x="563" y="1581" on="1"/>
        <pt x="1155" y="1581" on="0"/>
        <pt x="1399" y="1328" on="1"/>
        <pt x="1584" y="1135" on="0"/>
        <pt x="1584" y="786" on="1"/>
        <pt x="1584" y="593" on="0"/>
        <pt x="1449" y="291" on="0"/>
        <pt x="1327" y="195" on="1"/>
        <pt x="1079" y="0" on="0"/>
        <pt x="676" y="0" on="1"/>
        <pt x="215" y="0" on="1"/>
        <pt x="215" y="714" on="1"/>
        <pt x="0" y="714" on="1"/>
        <pt x="0" y="863" on="1"/>
        <pt x="215" y="863" on="1"/>
        <pt x="215" y="1581" on="1"/>
      </contour>
    </TTGlyph>
    <TTGlyph name="Euro" xMin="96" yMin="-22" xMax="1237" yMax="1572">
      <contour>
        <pt x="235" y="710" on="1"/>
        <pt x="232" y="749" on="0"/>
        <pt x="232" y="813" on="0"/>
        <pt x="234" y="851" on="1"/>
        <pt x="96" y="851" on="1"/>
        <pt x="122" y="1001" on="1"/>
        <pt x="255" y="1001" on="1"/>
        <pt x="301" y="1247" on="0"/>
        <pt x="614" y="1572" on="0"/>
        <pt x="1103" y="1572" on="0"/>
        <pt x="1237" y="1444" on="1"/>
        <pt x="1198" y="1239" on="1"/>
        <pt x="1075" y="1415" on="0"/>
        <pt x="872" y="1415" on="1"/>
        <pt x="616" y="1415" on="0"/>
        <pt x="500" y="1156" on="1"/>
        <pt x="468" y="1086" on="0"/>
        <pt x="450" y="1001" on="1"/>
        <pt x="1106" y="1001" on="1"/>
        <pt x="1082" y="851" on="1"/>
        <pt x="430" y="851" on="1"/>
        <pt x="427" y="807" on="1"/>
        <pt x="427" y="751" on="0"/>
        <pt x="431" y="710" on="1"/>
        <pt x="1067" y="710" on="1"/>
        <pt x="1046" y="560" on="1"/>
        <pt x="446" y="560" on="1"/>
        <pt x="504" y="136" on="0"/>
        <pt x="863" y="136" on="1"/>
        <pt x="1036" y="136" on="0"/>
        <pt x="1213" y="275" on="1"/>
        <pt x="1212" y="81" on="1"/>
        <pt x="1058" y="-22" on="0"/>
        <pt x="845" y="-22" on="1"/>
        <pt x="452" y="-22" on="0"/>
        <pt x="309" y="328" on="1"/>
        <pt x="267" y="431" on="0"/>
        <pt x="249" y="560" on="1"/>
        <pt x="100" y="560" on="1"/>
        <pt x="122" y="710" on="1"/>
      </contour>
    </TTGlyph>
    <TTGlyph name="F" xMin="244" yMin="0" xMax="1078" yMax="1491">
      <contour>
        <pt x="431" y="683" on="1"/>
        <pt x="431" y="0" on="1"/>
        <pt x="244" y="0" on="1"/>
        <pt x="244" y="1491" on="1"/>
        <pt x="1078" y="1491" on="1"/>
        <pt x="1060" y="1345" on="1"/>
        <pt x="431" y="1345" on="1"/>
        <pt x="431" y="846" on="1"/>
        <pt x="1034" y="846" on="1"/>
        <pt x="1034" y="683" on="1"/>
      </contour>
    </TTGlyph>
    <TTGlyph name="G" xMin="107" yMin="-25" xMax="1148" yMax="1515">
      <contour>
        <pt x="1049" y="1255" on="1"/>
        <pt x="930" y="1363" on="0"/>
        <pt x="734" y="1363" on="1"/>
        <pt x="631" y="1363" on="0"/>
        <pt x="463" y="1259" on="0"/>
        <pt x="411" y="1172" on="1"/>
        <pt x="303" y="991" on="0"/>
        <pt x="303" y="494" on="0"/>
        <pt x="400" y="317" on="1"/>
        <pt x="447" y="230" on="0"/>
        <pt x="603" y="130" on="0"/>
        <pt x="784" y="130" on="0"/>
        <pt x="904" y="175" on="0"/>
        <pt x="975" y="217" on="1"/>
        <pt x="975" y="625" on="1"/>
        <pt x="644" y="625" on="1"/>
        <pt x="644" y="778" on="1"/>
        <pt x="1148" y="778" on="1"/>
        <pt x="1148" y="132" on="1"/>
        <pt x="1031" y="57" on="0"/>
        <pt x="821" y="-25" on="0"/>
        <pt x="544" y="-25" on="0"/>
        <pt x="319" y="98" on="0"/>
        <pt x="249" y="205" on="1"/>
        <pt x="107" y="422" on="0"/>
        <pt x="107" y="750" on="1"/>
        <pt x="107" y="920" on="0"/>
        <pt x="200" y="1208" on="0"/>
        <pt x="364" y="1405" on="0"/>
        <pt x="590" y="1515" on="0"/>
        <pt x="720" y="1515" on="1"/>
        <pt x="968" y="1515" on="0"/>
        <pt x="1116" y="1388" on="1"/>
      </contour>
    </TTGlyph>
    <TTGlyph name="Gbreve" xMin="107" yMin="-25" xMax="1148" yMax="1875">
      <component glyphName=".ttfautohint" x="107" y="0" flags="0x0"/>
      <component glyphName="G" x="0" y="0" flags="0x1004"/>
      <component glyphName="breve" x="19" y="296" flags="0x1004"/>
    </TTGlyph>
    <TTGlyph name="Gcircumflex" xMin="107" yMin="-25" xMax="1148" yMax="1968">
      <component glyphName=".ttfautohint" x="107" y="0" flags="0x0"/>
      <component glyphName="G" x="0" y="0" flags="0x1004"/>
      <component glyphName="circumflex" x="20" y="353" flags="0x1004"/>
    </TTGlyph>
    <TTGlyph name="Gcommaaccent" xMin="107" yMin="-629" xMax="1148" yMax="1515">
      <contour>
        <pt x="809" y="-127" on="1"/>
        <pt x="628" y="-629" on="1"/>
        <pt x="483" y="-629" on="1"/>
        <pt x="601" y="-127" on="1"/>
      </contour>
      <contour>
        <pt x="1049" y="1255" on="1"/>
        <pt x="930" y="1363" on="0"/>
        <pt x="734" y="1363" on="1"/>
        <pt x="631" y="1363" on="0"/>
        <pt x="463" y="1259" on="0"/>
        <pt x="411" y="1172" on="1"/>
        <pt x="303" y="991" on="0"/>
        <pt x="303" y="494" on="0"/>
        <pt x="400" y="317" on="1"/>
        <pt x="447" y="230" on="0"/>
        <pt x="603" y="130" on="0"/>
        <pt x="784" y="130" on="0"/>
        <pt x="904" y="175" on="0"/>
        <pt x="975" y="217" on="1"/>
        <pt x="975" y="625" on="1"/>
        <pt x="644" y="625" on="1"/>
        <pt x="644" y="778" on="1"/>
        <pt x="1148" y="778" on="1"/>
        <pt x="1148" y="132" on="1"/>
        <pt x="1031" y="57" on="0"/>
        <pt x="821" y="-25" on="0"/>
        <pt x="544" y="-25" on="0"/>
        <pt x="319" y="98" on="0"/>
        <pt x="249" y="205" on="1"/>
        <pt x="107" y="422" on="0"/>
        <pt x="107" y="750" on="1"/>
        <pt x="107" y="920" on="0"/>
        <pt x="200" y="1208" on="0"/>
        <pt x="364" y="1405" on="0"/>
        <pt x="590" y="1515" on="0"/>
        <pt x="720" y="1515" on="1"/>
        <pt x="968" y="1515" on="0"/>
        <pt x="1116" y="1388" on="1"/>
      </contour>
    </TTGlyph>
    <TTGlyph name="Gdotaccent" xMin="107" yMin="-25" xMax="1148" yMax="1815">
      <contour>
        <pt x="539" y="1815" on="1"/>
        <pt x="716" y="1815" on="1"/>
        <pt x="716" y="1638" on="1"/>
        <pt x="539" y="1638" on="1"/>
      </contour>
      <contour>
        <pt x="1049" y="1255" on="1"/>
        <pt x="930" y="1363" on="0"/>
        <pt x="734" y="1363" on="1"/>
        <pt x="631" y="1363" on="0"/>
        <pt x="463" y="1259" on="0"/>
        <pt x="411" y="1172" on="1"/>
        <pt x="303" y="991" on="0"/>
        <pt x="303" y="494" on="0"/>
        <pt x="400" y="317" on="1"/>
        <pt x="447" y="230" on="0"/>
        <pt x="603" y="130" on="0"/>
        <pt x="784" y="130" on="0"/>
        <pt x="904" y="175" on="0"/>
        <pt x="975" y="217" on="1"/>
        <pt x="975" y="625" on="1"/>
        <pt x="644" y="625" on="1"/>
        <pt x="644" y="778" on="1"/>
        <pt x="1148" y="778" on="1"/>
        <pt x="1148" y="132" on="1"/>
        <pt x="1031" y="57" on="0"/>
        <pt x="821" y="-25" on="0"/>
        <pt x="544" y="-25" on="0"/>
        <pt x="319" y="98" on="0"/>
        <pt x="249" y="205" on="1"/>
        <pt x="107" y="422" on="0"/>
        <pt x="107" y="750" on="1"/>
        <pt x="107" y="920" on="0"/>
        <pt x="200" y="1208" on="0"/>
        <pt x="364" y="1405" on="0"/>
        <pt x="590" y="1515" on="0"/>
        <pt x="720" y="1515" on="1"/>
        <pt x="968" y="1515" on="0"/>
        <pt x="1116" y="1388" on="1"/>
      </contour>
    </TTGlyph>
    <TTGlyph name="H" xMin="140" yMin="0" xMax="1089" yMax="1491">
      <contour>
        <pt x="327" y="0" on="1"/>
        <pt x="140" y="0" on="1"/>
        <pt x="140" y="1491" on="1"/>
        <pt x="327" y="1491" on="1"/>
        <pt x="327" y="855" on="1"/>
        <pt x="902" y="855" on="1"/>
        <pt x="902" y="1491" on="1"/>
        <pt x="1089" y="1491" on="1"/>
        <pt x="1089" y="0" on="1"/>
        <pt x="902" y="0" on="1"/>
        <pt x="902" y="702" on="1"/>
        <pt x="327" y="702" on="1"/>
      </contour>
    </TTGlyph>
    <TTGlyph name="Hbar" xMin="140" yMin="0" xMax="1089" yMax="1491">
      <component glyphName=".ttfautohint" x="140" y="0" flags="0x0"/>
      <component glyphName="H" x="0" y="0" flags="0x1004"/>
    </TTGlyph>
    <TTGlyph name="Hcircumflex" xMin="140" yMin="0" xMax="1089" yMax="1987">
      <component glyphName=".ttfautohint" x="140" y="0" flags="0x0"/>
      <component glyphName="circumflex" x="-11" y="372" flags="0x1004"/>
      <component glyphName="H" x="0" y="0" flags="0x1204"/>
    </TTGlyph>
    <TTGlyph name="I" xMin="194" yMin="0" xMax="1035" yMax="1491">
      <contour>
        <pt x="194" y="1345" on="1"/>
        <pt x="194" y="1491" on="1"/>
        <pt x="1035" y="1491" on="1"/>
        <pt x="1035" y="1345" on="1"/>
        <pt x="704" y="1345" on="1"/>
        <pt x="704" y="146" on="1"/>
        <pt x="1035" y="146" on="1"/>
        <pt x="1035" y="0" on="1"/>
        <pt x="194" y="0" on="1"/>
        <pt x="194" y="146" on="1"/>
        <pt x="517" y="146" on="1"/>
        <pt x="517" y="1345" on="1"/>
      </contour>
    </TTGlyph>
    <TTGlyph name="IJ" xMin="55" yMin="-15" xMax="1174" yMax="1491">
      <contour>
        <pt x="55" y="1345" on="1"/>
        <pt x="55" y="1491" on="1"/>
        <pt x="576" y="1491" on="1"/>
        <pt x="576" y="1345" on="1"/>
        <pt x="405" y="1345" on="1"/>
        <pt x="405" y="146" on="1"/>
        <pt x="576" y="146" on="1"/>
        <pt x="576" y="0" on="1"/>
        <pt x="55" y="0" on="1"/>
        <pt x="55" y="146" on="1"/>
        <pt x="218" y="146" on="1"/>
        <pt x="218" y="1345" on="1"/>
      </contour>
      <contour>
        <pt x="659" y="145" on="1"/>
        <pt x="803" y="121" on="0"/>
        <pt x="836" y="121" on="1"/>
        <pt x="903" y="121" on="0"/>
        <pt x="987" y="230" on="0"/>
        <pt x="987" y="391" on="1"/>
        <pt x="987" y="1345" on="1"/>
        <pt x="679" y="1345" on="1"/>
        <pt x="679" y="1491" on="1"/>
        <pt x="1174" y="1491" on="1"/>
        <pt x="1174" y="443" on="1"/>
        <pt x="1174" y="129" on="0"/>
        <pt x="1056" y="40" on="1"/>
        <pt x="983" y="-15" on="0"/>
        <pt x="852" y="-15" on="1"/>
        <pt x="782" y="-15" on="0"/>
        <pt x="660" y="0" on="1"/>
      </contour>
    </TTGlyph>
    <TTGlyph name="Iacute" xMin="194" yMin="0" xMax="1037" yMax="2075">
      <component glyphName=".ttfautohint" x="194" y="0" flags="0x0"/>
      <component glyphName="I" x="0" y="0" flags="0x1004"/>
      <component glyphName="acute" x="126" y="370" flags="0x1004"/>
    </TTGlyph>
    <TTGlyph name="Ibreve" xMin="194" yMin="0" xMax="1035" yMax="1874">
      <component glyphName=".ttfautohint" x="194" y="0" flags="0x0"/>
      <component glyphName="I" x="0" y="0" flags="0x1004"/>
      <component glyphName="breve" x="-12" y="295" flags="0x1004"/>
    </TTGlyph>
    <TTGlyph name="Icircumflex" xMin="194" yMin="0" xMax="1035" yMax="1987">
      <component glyphName=".ttfautohint" x="194" y="0" flags="0x0"/>
      <component glyphName="I" x="0" y="0" flags="0x1004"/>
      <component glyphName="circumflex" x="-11" y="372" flags="0x1004"/>
    </TTGlyph>
    <TTGlyph name="Idieresis" xMin="194" yMin="0" xMax="1035" yMax="1828">
      <component glyphName=".ttfautohint" x="194" y="0" flags="0x0"/>
      <component glyphName="I" x="0" y="0" flags="0x1004"/>
      <component glyphName="dieresis" x="-30" y="370" flags="0x1004"/>
    </TTGlyph>
    <TTGlyph name="Idotaccent" xMin="194" yMin="0" xMax="1035" yMax="1795">
      <contour>
        <pt x="526" y="1795" on="1"/>
        <pt x="703" y="1795" on="1"/>
        <pt x="703" y="1618" on="1"/>
        <pt x="526" y="1618" on="1"/>
      </contour>
      <contour>
        <pt x="194" y="1345" on="1"/>
        <pt x="194" y="1491" on="1"/>
        <pt x="1035" y="1491" on="1"/>
        <pt x="1035" y="1345" on="1"/>
        <pt x="704" y="1345" on="1"/>
        <pt x="704" y="146" on="1"/>
        <pt x="1035" y="146" on="1"/>
        <pt x="1035" y="0" on="1"/>
        <pt x="194" y="0" on="1"/>
        <pt x="194" y="146" on="1"/>
        <pt x="517" y="146" on="1"/>
        <pt x="517" y="1345" on="1"/>
      </contour>
    </TTGlyph>
    <TTGlyph name="Igrave" xMin="165" yMin="0" xMax="1035" yMax="2075">
      <component glyphName=".ttfautohint" x="165" y="0" flags="0x0"/>
      <component glyphName="I" x="0" y="0" flags="0x1004"/>
      <component glyphName="grave" x="-253" y="370" flags="0x1004"/>
    </TTGlyph>
    <TTGlyph name="Imacron" xMin="194" yMin="0" xMax="1035" yMax="1778">
      <component glyphName=".ttfautohint" x="194" y="0" flags="0x0"/>
      <component glyphName="macron" x="0" y="139" flags="0x1004"/>
      <component glyphName="I" x="0" y="0" flags="0x1204"/>
    </TTGlyph>
    <TTGlyph name="Iogonek" xMin="194" yMin="-422" xMax="1035" yMax="1491">
      <component glyphName=".ttfautohint" x="194" y="0" flags="0x0"/>
      <component glyphName="I" x="0" y="0" flags="0x1004"/>
      <component glyphName="ogonek" x="-110" y="2" flags="0x1004"/>
    </TTGlyph>
    <TTGlyph name="Itilde" xMin="194" yMin="0" xMax="1035" yMax="1897">
      <component glyphName=".ttfautohint" x="194" y="0" flags="0x0"/>
      <component glyphName="I" x="0" y="0" flags="0x1004"/>
      <component glyphName="tilde" x="-31" y="349" flags="0x1004"/>
    </TTGlyph>
    <TTGlyph name="J" xMin="169" yMin="-16" xMax="924" yMax="1491">
      <contour>
        <pt x="169" y="151" on="1"/>
        <pt x="394" y="126" on="0"/>
        <pt x="502" y="126" on="0"/>
        <pt x="542" y="132" on="1"/>
        <pt x="737" y="164" on="0"/>
        <pt x="737" y="391" on="1"/>
        <pt x="737" y="1345" on="1"/>
        <pt x="309" y="1345" on="1"/>
        <pt x="309" y="1491" on="1"/>
        <pt x="924" y="1491" on="1"/>
        <pt x="924" y="443" on="1"/>
        <pt x="924" y="208" on="0"/>
        <pt x="719" y="-16" on="0"/>
        <pt x="455" y="-16" on="1"/>
        <pt x="362" y="-16" on="0"/>
        <pt x="170" y="0" on="1"/>
      </contour>
    </TTGlyph>
    <TTGlyph name="Jcircumflex" xMin="137" yMin="-26" xMax="1060" yMax="2009">
      <contour>
        <pt x="682" y="2009" on="1"/>
        <pt x="941" y="1660" on="1"/>
        <pt x="798" y="1660" on="1"/>
        <pt x="594" y="1895" on="1"/>
        <pt x="392" y="1660" on="1"/>
        <pt x="256" y="1660" on="1"/>
        <pt x="515" y="2009" on="1"/>
      </contour>
      <contour>
        <pt x="137" y="134" on="1"/>
        <pt x="350" y="134" on="1"/>
        <pt x="478" y="134" on="0"/>
        <pt x="574" y="252" on="0"/>
        <pt x="574" y="391" on="1"/>
        <pt x="574" y="1328" on="1"/>
        <pt x="229" y="1328" on="1"/>
        <pt x="229" y="1491" on="1"/>
        <pt x="1060" y="1491" on="1"/>
        <pt x="1060" y="1328" on="1"/>
        <pt x="761" y="1328" on="1"/>
        <pt x="761" y="443" on="1"/>
        <pt x="761" y="197" on="0"/>
        <pt x="594" y="-26" on="0"/>
        <pt x="371" y="-26" on="1"/>
        <pt x="137" y="-26" on="1"/>
      </contour>
    </TTGlyph>
    <TTGlyph name="K" xMin="211" yMin="0" xMax="1193" yMax="1491">
      <contour>
        <pt x="927" y="1491" on="1"/>
        <pt x="1160" y="1491" on="1"/>
        <pt x="661" y="823" on="1"/>
        <pt x="1193" y="0" on="1"/>
        <pt x="955" y="0" on="1"/>
        <pt x="517" y="700" on="1"/>
        <pt x="398" y="561" on="1"/>
        <pt x="398" y="0" on="1"/>
        <pt x="211" y="0" on="1"/>
        <pt x="211" y="1491" on="1"/>
        <pt x="398" y="1491" on="1"/>
        <pt x="398" y="773" on="1"/>
      </contour>
    </TTGlyph>
    <TTGlyph name="Kcommaaccent" xMin="211" yMin="-604" xMax="1193" yMax="1491">
      <contour>
        <pt x="891" y="-102" on="1"/>
        <pt x="710" y="-604" on="1"/>
        <pt x="565" y="-604" on="1"/>
        <pt x="683" y="-102" on="1"/>
      </contour>
      <contour>
        <pt x="927" y="1491" on="1"/>
        <pt x="1160" y="1491" on="1"/>
        <pt x="661" y="823" on="1"/>
        <pt x="1193" y="0" on="1"/>
        <pt x="955" y="0" on="1"/>
        <pt x="517" y="700" on="1"/>
        <pt x="398" y="561" on="1"/>
        <pt x="398" y="0" on="1"/>
        <pt x="211" y="0" on="1"/>
        <pt x="211" y="1491" on="1"/>
        <pt x="398" y="1491" on="1"/>
        <pt x="398" y="773" on="1"/>
      </contour>
    </TTGlyph>
    <TTGlyph name="L" xMin="303" yMin="0" xMax="1066" yMax="1491">
      <contour>
        <pt x="490" y="146" on="1"/>
        <pt x="1066" y="146" on="1"/>
        <pt x="1056" y="0" on="1"/>
        <pt x="303" y="0" on="1"/>
        <pt x="303" y="1491" on="1"/>
        <pt x="490" y="1491" on="1"/>
      </contour>
    </TTGlyph>
    <TTGlyph name="Lacute" xMin="303" yMin="0" xMax="1103" yMax="2055">
      <component glyphName=".ttfautohint" x="303" y="0" flags="0x0"/>
      <component glyphName="L" x="0" y="0" flags="0x1004"/>
      <component glyphName="acute" x="192" y="350" flags="0x1004"/>
    </TTGlyph>
    <TTGlyph name="Lcaron" xMin="303" yMin="0" xMax="1590" yMax="1516">
      <component glyphName=".ttfautohint" x="303" y="0" flags="0x0"/>
      <component glyphName="L" x="0" y="0" flags="0x1004"/>
      <component glyphName="comma" x="842" y="1230" flags="0x1004"/>
    </TTGlyph>
    <TTGlyph name="Lcommaaccent" xMin="303" yMin="-604" xMax="1066" yMax="1491">
      <contour>
        <pt x="844" y="-102" on="1"/>
        <pt x="663" y="-604" on="1"/>
        <pt x="518" y="-604" on="1"/>
        <pt x="636" y="-102" on="1"/>
      </contour>
      <contour>
        <pt x="490" y="146" on="1"/>
        <pt x="1066" y="146" on="1"/>
        <pt x="1056" y="0" on="1"/>
        <pt x="303" y="0" on="1"/>
        <pt x="303" y="1491" on="1"/>
        <pt x="490" y="1491" on="1"/>
      </contour>
    </TTGlyph>
    <TTGlyph name="Ldot" xMin="303" yMin="0" xMax="1066" yMax="1491">
      <component glyphName=".ttfautohint" x="303" y="0" flags="0x0"/>
      <component glyphName="periodcentered" x="269" y="87" flags="0x1004"/>
      <component glyphName="L" x="0" y="0" flags="0x1204"/>
    </TTGlyph>
    <TTGlyph name="Lslash" xMin="11" yMin="0" xMax="1129" yMax="1491">
      <contour>
        <pt x="420" y="163" on="1"/>
        <pt x="1129" y="163" on="1"/>
        <pt x="1129" y="0" on="1"/>
        <pt x="233" y="0" on="1"/>
        <pt x="233" y="639" on="1"/>
        <pt x="11" y="531" on="1"/>
        <pt x="11" y="680" on="1"/>
        <pt x="233" y="788" on="1"/>
        <pt x="233" y="1491" on="1"/>
        <pt x="420" y="1491" on="1"/>
        <pt x="420" y="880" on="1"/>
        <pt x="830" y="1080" on="1"/>
        <pt x="830" y="931" on="1"/>
        <pt x="420" y="731" on="1"/>
      </contour>
    </TTGlyph>
    <TTGlyph name="M" xMin="149" yMin="0" xMax="1079" yMax="1491">
      <contour>
        <pt x="335" y="1230" on="1"/>
        <pt x="335" y="0" on="1"/>
        <pt x="149" y="0" on="1"/>
        <pt x="149" y="1491" on="1"/>
        <pt x="404" y="1491" on="1"/>
        <pt x="617" y="802" on="1"/>
        <pt x="830" y="1491" on="1"/>
        <pt x="1079" y="1491" on="1"/>
        <pt x="1079" y="0" on="1"/>
        <pt x="898" y="0" on="1"/>
        <pt x="898" y="1230" on="1"/>
        <pt x="721" y="646" on="1"/>
        <pt x="512" y="646" on="1"/>
      </contour>
    </TTGlyph>
    <TTGlyph name="N" xMin="150" yMin="0" xMax="1078" yMax="1491">
      <contour>
        <pt x="1078" y="0" on="1"/>
        <pt x="858" y="0" on="1"/>
        <pt x="320" y="1206" on="1"/>
        <pt x="320" y="0" on="1"/>
        <pt x="150" y="0" on="1"/>
        <pt x="150" y="1491" on="1"/>
        <pt x="365" y="1491" on="1"/>
        <pt x="911" y="289" on="1"/>
        <pt x="911" y="1491" on="1"/>
        <pt x="1078" y="1491" on="1"/>
      </contour>
    </TTGlyph>
    <TTGlyph name="Nacute" xMin="150" yMin="0" xMax="1078" yMax="2075">
      <component glyphName=".ttfautohint" x="150" y="0" flags="0x0"/>
      <component glyphName="N" x="0" y="0" flags="0x1004"/>
      <component glyphName="acute" x="125" y="370" flags="0x1004"/>
    </TTGlyph>
    <TTGlyph name="Ncaron" xMin="150" yMin="0" xMax="1078" yMax="1966">
      <component glyphName=".ttfautohint" x="150" y="0" flags="0x0"/>
      <component glyphName="N" x="0" y="0" flags="0x1004"/>
      <component glyphName="caron" x="-24" y="352" flags="0x1004"/>
    </TTGlyph>
    <TTGlyph name="Ncommaaccent" xMin="150" yMin="-604" xMax="1078" yMax="1491">
      <contour>
        <pt x="777" y="-102" on="1"/>
        <pt x="596" y="-604" on="1"/>
        <pt x="451" y="-604" on="1"/>
        <pt x="569" y="-102" on="1"/>
      </contour>
      <contour>
        <pt x="1078" y="0" on="1"/>
        <pt x="858" y="0" on="1"/>
        <pt x="320" y="1206" on="1"/>
        <pt x="320" y="0" on="1"/>
        <pt x="150" y="0" on="1"/>
        <pt x="150" y="1491" on="1"/>
        <pt x="365" y="1491" on="1"/>
        <pt x="911" y="289" on="1"/>
        <pt x="911" y="1491" on="1"/>
        <pt x="1078" y="1491" on="1"/>
      </contour>
    </TTGlyph>
    <TTGlyph name="Ntilde" xMin="150" yMin="0" xMax="1078" yMax="1897">
      <component glyphName=".ttfautohint" x="150" y="0" flags="0x0"/>
      <component glyphName="N" x="0" y="0" flags="0x1004"/>
      <component glyphName="tilde" x="-32" y="349" flags="0x1004"/>
    </TTGlyph>
    <TTGlyph name="O" xMin="123" yMin="-25" xMax="1105" yMax="1516">
      <contour>
        <pt x="709" y="1363" on="0"/>
        <pt x="519" y="1363" on="0"/>
        <pt x="383" y="1196" on="0"/>
        <pt x="319" y="922" on="0"/>
        <pt x="319" y="570" on="0"/>
        <pt x="383" y="296" on="0"/>
        <pt x="519" y="130" on="0"/>
        <pt x="709" y="130" on="0"/>
        <pt x="845" y="296" on="0"/>
        <pt x="909" y="570" on="0"/>
        <pt x="909" y="922" on="0"/>
        <pt x="845" y="1196" on="0"/>
      </contour>
      <contour>
        <pt x="737" y="-25" on="0"/>
        <pt x="491" y="-25" on="0"/>
        <pt x="299" y="100" on="0"/>
        <pt x="240" y="208" on="1"/>
        <pt x="123" y="425" on="0"/>
        <pt x="123" y="747" on="1"/>
        <pt x="123" y="1145" on="0"/>
        <pt x="280" y="1354" on="1"/>
        <pt x="335" y="1428" on="0"/>
        <pt x="506" y="1516" on="0"/>
        <pt x="722" y="1516" on="0"/>
        <pt x="808" y="1472" on="1"/>
        <pt x="964" y="1392" on="0"/>
        <pt x="1105" y="995" on="0"/>
        <pt x="1105" y="747" on="1"/>
        <pt x="1105" y="425" on="0"/>
        <pt x="988" y="208" on="1"/>
        <pt x="929" y="100" on="0"/>
      </contour>
    </TTGlyph>
    <TTGlyph name="OE" xMin="20" yMin="0" xMax="1133" yMax="1568">
      <contour>
        <pt x="243" y="791" on="1"/>
        <pt x="243" y="321" on="0"/>
        <pt x="418" y="198" on="1"/>
        <pt x="471" y="160" on="0"/>
        <pt x="539" y="160" on="1"/>
        <pt x="583" y="160" on="1"/>
        <pt x="583" y="1389" on="1"/>
        <pt x="539" y="1389" on="1"/>
        <pt x="243" y="1389" on="0"/>
      </contour>
      <contour>
        <pt x="806" y="717" on="1"/>
        <pt x="806" y="171" on="1"/>
        <pt x="1133" y="171" on="1"/>
        <pt x="1116" y="0" on="1"/>
        <pt x="539" y="0" on="1"/>
        <pt x="425" y="0" on="0"/>
        <pt x="335" y="44" on="1"/>
        <pt x="170" y="126" on="0"/>
        <pt x="20" y="530" on="0"/>
        <pt x="20" y="789" on="1"/>
        <pt x="20" y="1116" on="0"/>
        <pt x="144" y="1336" on="1"/>
        <pt x="206" y="1444" on="0"/>
        <pt x="408" y="1568" on="0"/>
        <pt x="539" y="1568" on="1"/>
        <pt x="1097" y="1568" on="1"/>
        <pt x="1081" y="1397" on="1"/>
        <pt x="806" y="1397" on="1"/>
        <pt x="806" y="889" on="1"/>
        <pt x="1047" y="889" on="1"/>
        <pt x="1047" y="717" on="1"/>
      </contour>
    </TTGlyph>
    <TTGlyph name="Oacute" xMin="123" yMin="-25" xMax="1105" yMax="2075">
      <component glyphName=".ttfautohint" x="123" y="0" flags="0x0"/>
      <component glyphName="O" x="0" y="0" flags="0x1004"/>
      <component glyphName="acute" x="125" y="370" flags="0x1004"/>
    </TTGlyph>
    <TTGlyph name="Obreve" xMin="123" yMin="-25" xMax="1105" yMax="1874">
      <component glyphName=".ttfautohint" x="123" y="0" flags="0x0"/>
      <component glyphName="O" x="0" y="0" flags="0x1004"/>
      <component glyphName="breve" x="-12" y="295" flags="0x1004"/>
    </TTGlyph>
    <TTGlyph name="Ocircumflex" xMin="123" yMin="-25" xMax="1105" yMax="1987">
      <component glyphName=".ttfautohint" x="123" y="0" flags="0x0"/>
      <component glyphName="O" x="0" y="0" flags="0x1004"/>
      <component glyphName="circumflex" x="-12" y="372" flags="0x1004"/>
    </TTGlyph>
    <TTGlyph name="Odieresis" xMin="123" yMin="-25" xMax="1105" yMax="1828">
      <component glyphName=".ttfautohint" x="123" y="0" flags="0x0"/>
      <component glyphName="O" x="0" y="0" flags="0x1004"/>
      <component glyphName="dieresis" x="-30" y="370" flags="0x1004"/>
    </TTGlyph>
    <TTGlyph name="Ograve" xMin="123" yMin="-25" xMax="1105" yMax="2075">
      <component glyphName=".ttfautohint" x="123" y="0" flags="0x0"/>
      <component glyphName="O" x="0" y="0" flags="0x1004"/>
      <component glyphName="grave" x="-254" y="370" flags="0x1004"/>
    </TTGlyph>
    <TTGlyph name="Ohungarumlaut" xMin="123" yMin="-25" xMax="1139" yMax="1955">
      <component glyphName=".ttfautohint" x="123" y="0" flags="0x0"/>
      <component glyphName="O" x="0" y="0" flags="0x1004"/>
      <component glyphName="hungarumlaut" x="156" y="348" flags="0x1004"/>
    </TTGlyph>
    <TTGlyph name="Omacron" xMin="123" yMin="-25" xMax="1105" yMax="1778">
      <component glyphName=".ttfautohint" x="123" y="0" flags="0x0"/>
      <component glyphName="macron" x="0" y="139" flags="0x1004"/>
      <component glyphName="O" x="0" y="0" flags="0x1204"/>
    </TTGlyph>
    <TTGlyph name="Oslash" xMin="123" yMin="-222" xMax="1105" yMax="1717">
      <contour>
        <pt x="770" y="1284" on="1"/>
        <pt x="704" y="1356" on="0"/>
        <pt x="518" y="1356" on="0"/>
        <pt x="450" y="1274" on="1"/>
        <pt x="319" y="1116" on="0"/>
        <pt x="319" y="746" on="1"/>
        <pt x="319" y="517" on="0"/>
        <pt x="374" y="360" on="1"/>
      </contour>
      <contour>
        <pt x="954" y="1346" on="1"/>
        <pt x="1105" y="1141" on="0"/>
        <pt x="1105" y="747" on="1"/>
        <pt x="1105" y="425" on="0"/>
        <pt x="988" y="208" on="1"/>
        <pt x="929" y="100" on="0"/>
        <pt x="737" y="-25" on="0"/>
        <pt x="490" y="-25" on="0"/>
        <pt x="393" y="39" on="1"/>
        <pt x="281" y="-222" on="1"/>
        <pt x="146" y="-171" on="1"/>
        <pt x="282" y="145" on="1"/>
        <pt x="123" y="358" on="0"/>
        <pt x="123" y="1145" on="0"/>
        <pt x="280" y="1354" on="1"/>
        <pt x="401" y="1516" on="0"/>
        <pt x="625" y="1516" on="1"/>
        <pt x="744" y="1516" on="0"/>
        <pt x="842" y="1453" on="1"/>
        <pt x="955" y="1717" on="1"/>
        <pt x="1095" y="1675" on="1"/>
      </contour>
      <contour>
        <pt x="463" y="203" on="1"/>
        <pt x="528" y="136" on="0"/>
        <pt x="709" y="136" on="0"/>
        <pt x="777" y="218" on="1"/>
        <pt x="909" y="376" on="0"/>
        <pt x="909" y="746" on="1"/>
        <pt x="909" y="969" on="0"/>
        <pt x="858" y="1122" on="1"/>
      </contour>
    </TTGlyph>
    <TTGlyph name="Otilde" xMin="123" yMin="-25" xMax="1105" yMax="1897">
      <component glyphName=".ttfautohint" x="123" y="0" flags="0x0"/>
      <component glyphName="O" x="0" y="0" flags="0x1004"/>
      <component glyphName="tilde" x="-32" y="349" flags="0x1004"/>
    </TTGlyph>
    <TTGlyph name="P" xMin="176" yMin="0" xMax="1131" yMax="1491">
      <contour>
        <pt x="363" y="765" on="1"/>
        <pt x="622" y="765" on="1"/>
        <pt x="764" y="765" on="0"/>
        <pt x="935" y="913" on="0"/>
        <pt x="935" y="1201" on="0"/>
        <pt x="765" y="1345" on="0"/>
        <pt x="622" y="1345" on="1"/>
        <pt x="363" y="1345" on="1"/>
      </contour>
      <contour>
        <pt x="1088" y="1265" on="1"/>
        <pt x="1131" y="1180" on="0"/>
        <pt x="1131" y="1068" on="1"/>
        <pt x="1131" y="764" on="0"/>
        <pt x="913" y="673" on="1"/>
        <pt x="777" y="616" on="0"/>
        <pt x="572" y="616" on="1"/>
        <pt x="363" y="616" on="1"/>
        <pt x="363" y="0" on="1"/>
        <pt x="176" y="0" on="1"/>
        <pt x="176" y="1491" on="1"/>
        <pt x="573" y="1491" on="1"/>
        <pt x="974" y="1491" on="0"/>
      </contour>
    </TTGlyph>
    <TTGlyph name="Q" xMin="84" yMin="-458" xMax="1066" yMax="1516">
      <contour>
        <pt x="670" y="1363" on="0"/>
        <pt x="480" y="1363" on="0"/>
        <pt x="344" y="1196" on="0"/>
        <pt x="280" y="922" on="0"/>
        <pt x="280" y="570" on="0"/>
        <pt x="344" y="296" on="0"/>
        <pt x="480" y="130" on="0"/>
        <pt x="670" y="130" on="0"/>
        <pt x="806" y="296" on="0"/>
        <pt x="870" y="570" on="0"/>
        <pt x="870" y="922" on="0"/>
        <pt x="806" y="1196" on="0"/>
      </contour>
      <contour>
        <pt x="575" y="-25" on="1"/>
        <pt x="452" y="-25" on="0"/>
        <pt x="260" y="100" on="0"/>
        <pt x="202" y="208" on="1"/>
        <pt x="84" y="425" on="0"/>
        <pt x="84" y="747" on="1"/>
        <pt x="84" y="1145" on="0"/>
        <pt x="241" y="1354" on="1"/>
        <pt x="296" y="1428" on="0"/>
        <pt x="467" y="1516" on="0"/>
        <pt x="683" y="1516" on="0"/>
        <pt x="768" y="1472" on="1"/>
        <pt x="925" y="1392" on="0"/>
        <pt x="1066" y="995" on="0"/>
        <pt x="1066" y="499" on="0"/>
        <pt x="917" y="101" on="0"/>
        <pt x="764" y="20" on="1"/>
        <pt x="857" y="-167" on="0"/>
        <pt x="1040" y="-330" on="1"/>
        <pt x="916" y="-458" on="1"/>
        <pt x="703" y="-252" on="0"/>
        <pt x="589" y="-25" on="1"/>
        <pt x="582" y="-25" on="0"/>
      </contour>
    </TTGlyph>
    <TTGlyph name="R" xMin="186" yMin="0" xMax="1185" yMax="1491">
      <contour>
        <pt x="567" y="824" on="1"/>
        <pt x="373" y="824" on="1"/>
        <pt x="373" y="1345" on="1"/>
        <pt x="563" y="1345" on="1"/>
        <pt x="815" y="1345" on="0"/>
        <pt x="891" y="1216" on="1"/>
        <pt x="920" y="1166" on="0"/>
        <pt x="920" y="1098" on="1"/>
        <pt x="920" y="949" on="0"/>
        <pt x="737" y="824" on="0"/>
      </contour>
      <contour>
        <pt x="476" y="1491" on="1"/>
        <pt x="186" y="1491" on="1"/>
        <pt x="186" y="0" on="1"/>
        <pt x="373" y="0" on="1"/>
        <pt x="373" y="662" on="1"/>
        <pt x="460" y="662" on="1"/>
        <pt x="601" y="665" on="1"/>
        <pt x="667" y="574" on="0"/>
        <pt x="738" y="456" on="0"/>
        <pt x="773" y="400" on="0"/>
        <pt x="822" y="306" on="0"/>
        <pt x="843" y="267" on="0"/>
        <pt x="894" y="161" on="0"/>
        <pt x="906" y="135" on="0"/>
        <pt x="963" y="10" on="0"/>
        <pt x="968" y="0" on="1"/>
        <pt x="1185" y="0" on="1"/>
        <pt x="1082" y="227" on="0"/>
        <pt x="902" y="556" on="0"/>
        <pt x="784" y="707" on="1"/>
        <pt x="934" y="740" on="0"/>
        <pt x="1115" y="935" on="0"/>
        <pt x="1115" y="1264" on="0"/>
        <pt x="935" y="1437" on="0"/>
        <pt x="662" y="1491" on="0"/>
      </contour>
    </TTGlyph>
    <TTGlyph name="Racute" xMin="186" yMin="0" xMax="1185" yMax="2075">
      <component glyphName=".ttfautohint" x="186" y="0" flags="0x0"/>
      <component glyphName="acute" x="196" y="370" flags="0x1004"/>
      <component glyphName="R" x="0" y="0" flags="0x1204"/>
    </TTGlyph>
    <TTGlyph name="Rcaron" xMin="186" yMin="0" xMax="1185" yMax="1986">
      <component glyphName=".ttfautohint" x="186" y="0" flags="0x0"/>
      <component glyphName="caron" x="48" y="372" flags="0x1004"/>
      <component glyphName="R" x="0" y="0" flags="0x1204"/>
    </TTGlyph>
    <TTGlyph name="Rcommaaccent" xMin="186" yMin="-624" xMax="1185" yMax="1491">
      <contour>
        <pt x="848" y="-122" on="1"/>
        <pt x="668" y="-624" on="1"/>
        <pt x="522" y="-624" on="1"/>
        <pt x="640" y="-122" on="1"/>
      </contour>
      <contour>
        <pt x="567" y="824" on="1"/>
        <pt x="373" y="824" on="1"/>
        <pt x="373" y="1345" on="1"/>
        <pt x="563" y="1345" on="1"/>
        <pt x="815" y="1345" on="0"/>
        <pt x="891" y="1216" on="1"/>
        <pt x="920" y="1166" on="0"/>
        <pt x="920" y="1098" on="1"/>
        <pt x="920" y="949" on="0"/>
        <pt x="737" y="824" on="0"/>
      </contour>
      <contour>
        <pt x="476" y="1491" on="1"/>
        <pt x="186" y="1491" on="1"/>
        <pt x="186" y="0" on="1"/>
        <pt x="373" y="0" on="1"/>
        <pt x="373" y="662" on="1"/>
        <pt x="460" y="662" on="1"/>
        <pt x="601" y="665" on="1"/>
        <pt x="667" y="574" on="0"/>
        <pt x="738" y="456" on="0"/>
        <pt x="773" y="400" on="0"/>
        <pt x="822" y="306" on="0"/>
        <pt x="843" y="267" on="0"/>
        <pt x="894" y="161" on="0"/>
        <pt x="906" y="135" on="0"/>
        <pt x="963" y="10" on="0"/>
        <pt x="968" y="0" on="1"/>
        <pt x="1185" y="0" on="1"/>
        <pt x="1082" y="227" on="0"/>
        <pt x="902" y="556" on="0"/>
        <pt x="784" y="707" on="1"/>
        <pt x="934" y="740" on="0"/>
        <pt x="1115" y="935" on="0"/>
        <pt x="1115" y="1264" on="0"/>
        <pt x="935" y="1437" on="0"/>
        <pt x="662" y="1491" on="0"/>
      </contour>
    </TTGlyph>
    <TTGlyph name="S" xMin="141" yMin="-25" xMax="1054" yMax="1517">
      <contour>
        <pt x="212" y="261" on="1"/>
        <pt x="372" y="130" on="0"/>
        <pt x="593" y="130" on="1"/>
        <pt x="713" y="130" on="0"/>
        <pt x="843" y="277" on="0"/>
        <pt x="843" y="511" on="0"/>
        <pt x="708" y="632" on="0"/>
        <pt x="612" y="671" on="1"/>
        <pt x="552" y="695" on="1"/>
        <pt x="382" y="763" on="0"/>
        <pt x="251" y="857" on="0"/>
        <pt x="221" y="896" on="1"/>
        <pt x="150" y="988" on="0"/>
        <pt x="150" y="1123" on="1"/>
        <pt x="150" y="1310" on="0"/>
        <pt x="404" y="1517" on="0"/>
        <pt x="604" y="1517" on="1"/>
        <pt x="856" y="1517" on="0"/>
        <pt x="997" y="1406" on="1"/>
        <pt x="927" y="1262" on="1"/>
        <pt x="797" y="1363" on="0"/>
        <pt x="614" y="1363" on="1"/>
        <pt x="496" y="1363" on="0"/>
        <pt x="357" y="1234" on="0"/>
        <pt x="357" y="1003" on="0"/>
        <pt x="484" y="929" on="1"/>
        <pt x="532" y="902" on="0"/>
        <pt x="727" y="826" on="0"/>
        <pt x="922" y="724" on="0"/>
        <pt x="1054" y="550" on="0"/>
        <pt x="1054" y="415" on="1"/>
        <pt x="1054" y="200" on="0"/>
        <pt x="805" y="-25" on="0"/>
        <pt x="589" y="-25" on="1"/>
        <pt x="320" y="-25" on="0"/>
        <pt x="141" y="94" on="1"/>
      </contour>
    </TTGlyph>
    <TTGlyph name="Sacute" xMin="141" yMin="-25" xMax="1054" yMax="2076">
      <component glyphName=".ttfautohint" x="141" y="0" flags="0x0"/>
      <component glyphName="S" x="0" y="0" flags="0x1004"/>
      <component glyphName="acute" x="115" y="371" flags="0x1004"/>
    </TTGlyph>
    <TTGlyph name="Scaron" xMin="141" yMin="-25" xMax="1054" yMax="1987">
      <component glyphName=".ttfautohint" x="141" y="0" flags="0x0"/>
      <component glyphName="S" x="0" y="0" flags="0x1004"/>
      <component glyphName="caron" x="-34" y="373" flags="0x1004"/>
    </TTGlyph>
    <TTGlyph name="Scedilla" xMin="141" yMin="-457" xMax="1054" yMax="1517">
      <component glyphName=".ttfautohint" x="141" y="0" flags="0x0"/>
      <component glyphName="S" x="0" y="0" flags="0x1004"/>
      <component glyphName="cedilla" x="-26" y="-29" flags="0x1004"/>
    </TTGlyph>
    <TTGlyph name="Scircumflex" xMin="141" yMin="-25" xMax="1054" yMax="1968">
      <component glyphName=".ttfautohint" x="141" y="0" flags="0x0"/>
      <component glyphName="S" x="0" y="0" flags="0x1004"/>
      <component glyphName="circumflex" x="-28" y="353" flags="0x1004"/>
    </TTGlyph>
    <TTGlyph name="Scommaaccent" xMin="141" yMin="-678" xMax="1054" yMax="1517">
      <contour>
        <pt x="760" y="-176" on="1"/>
        <pt x="579" y="-678" on="1"/>
        <pt x="434" y="-678" on="1"/>
        <pt x="552" y="-176" on="1"/>
      </contour>
      <contour>
        <pt x="212" y="271" on="1"/>
        <pt x="363" y="148" on="0"/>
        <pt x="593" y="148" on="1"/>
        <pt x="715" y="148" on="0"/>
        <pt x="843" y="280" on="0"/>
        <pt x="843" y="511" on="0"/>
        <pt x="708" y="632" on="0"/>
        <pt x="612" y="671" on="1"/>
        <pt x="552" y="695" on="1"/>
        <pt x="382" y="763" on="0"/>
        <pt x="251" y="857" on="0"/>
        <pt x="221" y="896" on="1"/>
        <pt x="150" y="988" on="0"/>
        <pt x="150" y="1123" on="1"/>
        <pt x="150" y="1310" on="0"/>
        <pt x="404" y="1517" on="0"/>
        <pt x="848" y="1517" on="0"/>
        <pt x="995" y="1401" on="1"/>
        <pt x="925" y="1249" on="1"/>
        <pt x="802" y="1345" on="0"/>
        <pt x="594" y="1345" on="1"/>
        <pt x="483" y="1345" on="0"/>
        <pt x="357" y="1227" on="0"/>
        <pt x="357" y="1003" on="0"/>
        <pt x="484" y="929" on="1"/>
        <pt x="528" y="904" on="0"/>
        <pt x="737" y="822" on="0"/>
        <pt x="926" y="719" on="0"/>
        <pt x="1054" y="537" on="0"/>
        <pt x="1054" y="395" on="1"/>
        <pt x="1054" y="191" on="0"/>
        <pt x="803" y="-25" on="0"/>
        <pt x="334" y="-25" on="0"/>
        <pt x="141" y="104" on="1"/>
      </contour>
    </TTGlyph>
    <TTGlyph name="T" xMin="94" yMin="0" xMax="1129" yMax="1491">
      <contour>
        <pt x="1129" y="1491" on="1"/>
        <pt x="1129" y="1345" on="1"/>
        <pt x="705" y="1345" on="1"/>
        <pt x="705" y="0" on="1"/>
        <pt x="518" y="0" on="1"/>
        <pt x="518" y="1345" on="1"/>
        <pt x="94" y="1345" on="1"/>
        <pt x="94" y="1491" on="1"/>
      </contour>
    </TTGlyph>
    <TTGlyph name="Tbar" xMin="94" yMin="0" xMax="1129" yMax="1491">
      <contour>
        <pt x="275" y="561" on="1"/>
        <pt x="275" y="701" on="1"/>
        <pt x="518" y="701" on="1"/>
        <pt x="518" y="1345" on="1"/>
        <pt x="94" y="1345" on="1"/>
        <pt x="94" y="1491" on="1"/>
        <pt x="1129" y="1491" on="1"/>
        <pt x="1129" y="1345" on="1"/>
        <pt x="705" y="1345" on="1"/>
        <pt x="705" y="701" on="1"/>
        <pt x="954" y="701" on="1"/>
        <pt x="954" y="561" on="1"/>
        <pt x="705" y="561" on="1"/>
        <pt x="705" y="0" on="1"/>
        <pt x="518" y="0" on="1"/>
        <pt x="518" y="561" on="1"/>
      </contour>
    </TTGlyph>
    <TTGlyph name="Tcaron" xMin="94" yMin="0" xMax="1129" yMax="1966">
      <component glyphName=".ttfautohint" x="94" y="0" flags="0x0"/>
      <component glyphName="T" x="0" y="0" flags="0x1004"/>
      <component glyphName="caron" x="-24" y="352" flags="0x1004"/>
    </TTGlyph>
    <TTGlyph name="Tcommaaccent" xMin="94" yMin="-432" xMax="1129" yMax="1491">
      <component glyphName=".ttfautohint" x="94" y="0" flags="0x0"/>
      <component glyphName="cedilla" x="-12" y="-4" flags="0x1004"/>
      <component glyphName="T" x="0" y="0" flags="0x1204"/>
    </TTGlyph>
    <TTGlyph name="Thorn" xMin="176" yMin="0" xMax="1279" yMax="1581">
      <contour>
        <pt x="655" y="643" on="1"/>
        <pt x="1075" y="643" on="0"/>
        <pt x="1075" y="956" on="1"/>
        <pt x="1075" y="1168" on="0"/>
        <pt x="880" y="1230" on="1"/>
        <pt x="773" y="1264" on="0"/>
        <pt x="603" y="1264" on="1"/>
        <pt x="366" y="1264" on="1"/>
        <pt x="366" y="643" on="1"/>
      </contour>
      <contour>
        <pt x="1245" y="1153" on="0"/>
        <pt x="1279" y="1027" on="0"/>
        <pt x="1279" y="878" on="0"/>
        <pt x="1262" y="817" on="1"/>
        <pt x="1227" y="695" on="0"/>
        <pt x="1141" y="630" on="1"/>
        <pt x="979" y="508" on="0"/>
        <pt x="665" y="489" on="1"/>
        <pt x="530" y="481" on="0"/>
        <pt x="366" y="481" on="1"/>
        <pt x="366" y="0" on="1"/>
        <pt x="176" y="0" on="1"/>
        <pt x="176" y="1581" on="1"/>
        <pt x="366" y="1581" on="1"/>
        <pt x="366" y="1424" on="1"/>
        <pt x="695" y="1424" on="0"/>
        <pt x="865" y="1397" on="0"/>
        <pt x="1010" y="1364" on="0"/>
        <pt x="1096" y="1317" on="0"/>
        <pt x="1193" y="1245" on="0"/>
      </contour>
    </TTGlyph>
    <TTGlyph name="U" xMin="129" yMin="-25" xMax="1099" yMax="1491">
      <contour>
        <pt x="870" y="-25" on="0"/>
        <pt x="358" y="-25" on="0"/>
        <pt x="129" y="217" on="0"/>
        <pt x="129" y="484" on="1"/>
        <pt x="129" y="1491" on="1"/>
        <pt x="316" y="1491" on="1"/>
        <pt x="316" y="490" on="1"/>
        <pt x="316" y="308" on="0"/>
        <pt x="438" y="130" on="0"/>
        <pt x="790" y="130" on="0"/>
        <pt x="912" y="308" on="0"/>
        <pt x="912" y="490" on="1"/>
        <pt x="912" y="1491" on="1"/>
        <pt x="1099" y="1491" on="1"/>
        <pt x="1099" y="484" on="1"/>
        <pt x="1099" y="217" on="0"/>
      </contour>
    </TTGlyph>
    <TTGlyph name="Uacute" xMin="129" yMin="-25" xMax="1099" yMax="2075">
      <component glyphName=".ttfautohint" x="129" y="0" flags="0x0"/>
      <component glyphName="U" x="0" y="0" flags="0x1004"/>
      <component glyphName="acute" x="125" y="370" flags="0x1004"/>
    </TTGlyph>
    <TTGlyph name="Ubreve" xMin="129" yMin="-25" xMax="1099" yMax="1874">
      <component glyphName=".ttfautohint" x="129" y="0" flags="0x0"/>
      <component glyphName="U" x="0" y="0" flags="0x1004"/>
      <component glyphName="breve" x="-12" y="295" flags="0x1004"/>
    </TTGlyph>
    <TTGlyph name="Ucircumflex" xMin="129" yMin="-25" xMax="1099" yMax="1987">
      <component glyphName=".ttfautohint" x="129" y="0" flags="0x0"/>
      <component glyphName="U" x="0" y="0" flags="0x1004"/>
      <component glyphName="circumflex" x="-12" y="372" flags="0x1004"/>
    </TTGlyph>
    <TTGlyph name="Udieresis" xMin="129" yMin="-25" xMax="1099" yMax="1828">
      <component glyphName=".ttfautohint" x="129" y="0" flags="0x0"/>
      <component glyphName="U" x="0" y="0" flags="0x1004"/>
      <component glyphName="dieresis" x="-30" y="370" flags="0x1004"/>
    </TTGlyph>
    <TTGlyph name="Ugrave" xMin="129" yMin="-25" xMax="1099" yMax="2075">
      <component glyphName=".ttfautohint" x="129" y="0" flags="0x0"/>
      <component glyphName="U" x="0" y="0" flags="0x1004"/>
      <component glyphName="grave" x="-254" y="370" flags="0x1004"/>
    </TTGlyph>
    <TTGlyph name="Uhungarumlaut" xMin="129" yMin="-25" xMax="1139" yMax="1955">
      <component glyphName=".ttfautohint" x="129" y="0" flags="0x0"/>
      <component glyphName="U" x="0" y="0" flags="0x1004"/>
      <component glyphName="hungarumlaut" x="156" y="348" flags="0x1004"/>
    </TTGlyph>
    <TTGlyph name="Umacron" xMin="129" yMin="-25" xMax="1099" yMax="1778">
      <component glyphName=".ttfautohint" x="129" y="0" flags="0x0"/>
      <component glyphName="macron" x="0" y="139" flags="0x1004"/>
      <component glyphName="U" x="0" y="0" flags="0x1204"/>
    </TTGlyph>
    <TTGlyph name="Uogonek" xMin="129" yMin="-447" xMax="1099" yMax="1491">
      <component glyphName=".ttfautohint" x="129" y="0" flags="0x0"/>
      <component glyphName="U" x="0" y="0" flags="0x1004"/>
      <component glyphName="ogonek" x="-110" y="-23" flags="0x1004"/>
    </TTGlyph>
    <TTGlyph name="Uring" xMin="129" yMin="-25" xMax="1099" yMax="2032">
      <component glyphName=".ttfautohint" x="129" y="0" flags="0x0"/>
      <component glyphName="U" x="0" y="0" flags="0x1004"/>
      <component glyphName="ring" x="-6" y="371" flags="0x1004"/>
    </TTGlyph>
    <TTGlyph name="Utilde" xMin="129" yMin="-25" xMax="1099" yMax="1897">
      <component glyphName=".ttfautohint" x="129" y="0" flags="0x0"/>
      <component glyphName="tilde" x="-32" y="349" flags="0x1004"/>
      <component glyphName="U" x="0" y="0" flags="0x1204"/>
    </TTGlyph>
    <TTGlyph name="V" xMin="57" yMin="0" xMax="1172" yMax="1491">
      <contour>
        <pt x="967" y="1491" on="1"/>
        <pt x="1172" y="1491" on="1"/>
        <pt x="722" y="0" on="1"/>
        <pt x="505" y="0" on="1"/>
        <pt x="57" y="1491" on="1"/>
        <pt x="262" y="1491" on="1"/>
        <pt x="617" y="223" on="1"/>
      </contour>
    </TTGlyph>
    <TTGlyph name="W" xMin="66" yMin="0" xMax="1156" yMax="1491">
      <contour>
        <pt x="905" y="210" on="1"/>
        <pt x="971" y="1491" on="1"/>
        <pt x="1156" y="1491" on="1"/>
        <pt x="1039" y="0" on="1"/>
        <pt x="810" y="0" on="1"/>
        <pt x="626" y="659" on="1"/>
        <pt x="430" y="0" on="1"/>
        <pt x="204" y="0" on="1"/>
        <pt x="66" y="1491" on="1"/>
        <pt x="251" y="1491" on="1"/>
        <pt x="355" y="213" on="1"/>
        <pt x="542" y="880" on="1"/>
        <pt x="715" y="880" on="1"/>
      </contour>
    </TTGlyph>
    <TTGlyph name="Wcircumflex" xMin="66" yMin="0" xMax="1156" yMax="1987">
      <component glyphName=".ttfautohint" x="66" y="0" flags="0x0"/>
      <component glyphName="circumflex" x="-14" y="372" flags="0x1004"/>
      <component glyphName="W" x="0" y="0" flags="0x1204"/>
    </TTGlyph>
    <TTGlyph name="X" xMin="72" yMin="0" xMax="1157" yMax="1491">
      <contour>
        <pt x="112" y="1491" on="1"/>
        <pt x="340" y="1491" on="1"/>
        <pt x="629" y="892" on="1"/>
        <pt x="941" y="1491" on="1"/>
        <pt x="1149" y="1491" on="1"/>
        <pt x="749" y="763" on="1"/>
        <pt x="1157" y="0" on="1"/>
        <pt x="933" y="0" on="1"/>
        <pt x="613" y="627" on="1"/>
        <pt x="286" y="0" on="1"/>
        <pt x="72" y="0" on="1"/>
        <pt x="496" y="762" on="1"/>
      </contour>
    </TTGlyph>
    <TTGlyph name="Y" xMin="69" yMin="0" xMax="1160" yMax="1491">
      <contour>
        <pt x="702" y="0" on="1"/>
        <pt x="515" y="0" on="1"/>
        <pt x="515" y="593" on="1"/>
        <pt x="69" y="1491" on="1"/>
        <pt x="275" y="1491" on="1"/>
        <pt x="610" y="774" on="1"/>
        <pt x="949" y="1491" on="1"/>
        <pt x="1160" y="1491" on="1"/>
        <pt x="702" y="593" on="1"/>
      </contour>
    </TTGlyph>
    <TTGlyph name="Yacute" xMin="69" yMin="0" xMax="1160" yMax="2075">
      <component glyphName=".ttfautohint" x="69" y="0" flags="0x0"/>
      <component glyphName="Y" x="0" y="0" flags="0x1004"/>
      <component glyphName="acute" x="126" y="370" flags="0x1004"/>
    </TTGlyph>
    <TTGlyph name="Ycircumflex" xMin="69" yMin="0" xMax="1160" yMax="1987">
      <component glyphName=".ttfautohint" x="69" y="0" flags="0x0"/>
      <component glyphName="circumflex" x="-11" y="372" flags="0x1004"/>
      <component glyphName="Y" x="0" y="0" flags="0x1204"/>
    </TTGlyph>
    <TTGlyph name="Ydieresis" xMin="69" yMin="0" xMax="1160" yMax="1828">
      <component glyphName=".ttfautohint" x="69" y="0" flags="0x0"/>
      <component glyphName="Y" x="0" y="0" flags="0x1004"/>
      <component glyphName="dieresis" x="-30" y="370" flags="0x1004"/>
    </TTGlyph>
    <TTGlyph name="Z" xMin="156" yMin="0" xMax="1058" yMax="1491">
      <contour>
        <pt x="397" y="146" on="1"/>
        <pt x="1049" y="146" on="1"/>
        <pt x="1049" y="0" on="1"/>
        <pt x="156" y="0" on="1"/>
        <pt x="156" y="143" on="1"/>
        <pt x="803" y="1345" on="1"/>
        <pt x="191" y="1345" on="1"/>
        <pt x="191" y="1491" on="1"/>
        <pt x="1058" y="1491" on="1"/>
        <pt x="1058" y="1364" on="1"/>
      </contour>
    </TTGlyph>
    <TTGlyph name="Zacute" xMin="156" yMin="0" xMax="1058" yMax="2075">
      <component glyphName=".ttfautohint" x="156" y="0" flags="0x0"/>
      <component glyphName="Z" x="0" y="0" flags="0x1004"/>
      <component glyphName="acute" x="82" y="370" flags="0x1004"/>
    </TTGlyph>
    <TTGlyph name="Zcaron" xMin="156" yMin="0" xMax="1058" yMax="1986">
      <component glyphName=".ttfautohint" x="156" y="0" flags="0x0"/>
      <component glyphName="Z" x="0" y="0" flags="0x1004"/>
      <component glyphName="caron" x="-68" y="372" flags="0x1004"/>
    </TTGlyph>
    <TTGlyph name="Zdotaccent" xMin="156" yMin="0" xMax="1058" yMax="1815">
      <component glyphName=".ttfautohint" x="156" y="0" flags="0x0"/>
      <component glyphName="Z" x="0" y="0" flags="0x1004"/>
      <component glyphName="dotaccent" x="-26" y="286" flags="0x1004"/>
    </TTGlyph>
    <TTGlyph name="a" xMin="172" yMin="-25" xMax="1031" yMax="1130">
      <contour>
        <pt x="849" y="245" on="1"/>
        <pt x="849" y="525" on="1"/>
        <pt x="700" y="504" on="1"/>
        <pt x="544" y="482" on="0"/>
        <pt x="484" y="460" on="1"/>
        <pt x="350" y="409" on="0"/>
        <pt x="350" y="289" on="1"/>
        <pt x="350" y="206" on="0"/>
        <pt x="446" y="108" on="0"/>
        <pt x="530" y="108" on="1"/>
        <pt x="715" y="108" on="0"/>
      </contour>
      <contour>
        <pt x="849" y="756" on="1"/>
        <pt x="849" y="991" on="0"/>
        <pt x="650" y="991" on="1"/>
        <pt x="556" y="991" on="0"/>
        <pt x="329" y="947" on="0"/>
        <pt x="283" y="927" on="1"/>
        <pt x="240" y="1061" on="1"/>
        <pt x="447" y="1130" on="0"/>
        <pt x="811" y="1130" on="0"/>
        <pt x="1031" y="964" on="0"/>
        <pt x="1031" y="791" on="1"/>
        <pt x="1031" y="0" on="1"/>
        <pt x="880" y="0" on="1"/>
        <pt x="856" y="127" on="1"/>
        <pt x="792" y="62" on="0"/>
        <pt x="591" y="-25" on="0"/>
        <pt x="495" y="-25" on="1"/>
        <pt x="356" y="-25" on="0"/>
        <pt x="172" y="142" on="0"/>
        <pt x="172" y="447" on="0"/>
        <pt x="292" y="518" on="1"/>
        <pt x="373" y="568" on="0"/>
        <pt x="556" y="605" on="0"/>
        <pt x="703" y="623" on="1"/>
        <pt x="849" y="640" on="1"/>
      </contour>
    </TTGlyph>
    <TTGlyph name="aacute" xMin="172" yMin="-25" xMax="1077" yMax="1689">
      <component glyphName=".ttfautohint" x="172" y="0" flags="0x0"/>
      <component glyphName="a" x="0" y="0" flags="0x1004"/>
      <component glyphName="acute" x="166" y="-16" flags="0x1004"/>
    </TTGlyph>
    <TTGlyph name="abreve" xMin="172" yMin="-25" xMax="1031" yMax="1508">
      <component glyphName=".ttfautohint" x="172" y="0" flags="0x0"/>
      <component glyphName="a" x="0" y="0" flags="0x1004"/>
      <component glyphName="breve" x="28" y="-71" flags="0x1004"/>
    </TTGlyph>
    <TTGlyph name="acircumflex" xMin="172" yMin="-25" xMax="1031" yMax="1601">
      <component glyphName=".ttfautohint" x="172" y="0" flags="0x0"/>
      <component glyphName="a" x="0" y="0" flags="0x1004"/>
      <component glyphName="circumflex" x="30" y="-14" flags="0x1004"/>
    </TTGlyph>
    <TTGlyph name="acute" xMin="418" yMin="1268" xMax="911" yMax="1705">
      <contour>
        <pt x="418" y="1268" on="1"/>
        <pt x="679" y="1705" on="1"/>
        <pt x="911" y="1705" on="1"/>
        <pt x="560" y="1268" on="1"/>
      </contour>
    </TTGlyph>
    <TTGlyph name="adieresis" xMin="172" yMin="-25" xMax="1031" yMax="1442">
      <component glyphName=".ttfautohint" x="172" y="0" flags="0x0"/>
      <component glyphName="a" x="0" y="0" flags="0x1004"/>
      <component glyphName="dieresis" x="11" y="-16" flags="0x1004"/>
    </TTGlyph>
    <TTGlyph name="ae" xMin="55" yMin="-25" xMax="1170" yMax="1130">
      <contour>
        <pt x="1026" y="653" on="1"/>
        <pt x="1009" y="977" on="0"/>
        <pt x="880" y="977" on="1"/>
        <pt x="802" y="977" on="0"/>
        <pt x="716" y="793" on="0"/>
        <pt x="709" y="653" on="1"/>
      </contour>
      <contour>
        <pt x="232" y="297" on="1"/>
        <pt x="232" y="122" on="0"/>
        <pt x="352" y="122" on="1"/>
        <pt x="433" y="122" on="0"/>
        <pt x="569" y="195" on="0"/>
        <pt x="593" y="210" on="1"/>
        <pt x="556" y="311" on="0"/>
        <pt x="543" y="452" on="1"/>
        <pt x="499" y="452" on="1"/>
        <pt x="350" y="452" on="0"/>
        <pt x="232" y="377" on="0"/>
      </contour>
      <contour>
        <pt x="1148" y="98" on="1"/>
        <pt x="1033" y="-25" on="0"/>
        <pt x="865" y="-25" on="1"/>
        <pt x="737" y="-25" on="0"/>
        <pt x="653" y="94" on="1"/>
        <pt x="649" y="92" on="0"/>
        <pt x="566" y="42" on="0"/>
        <pt x="432" y="-25" on="0"/>
        <pt x="226" y="-25" on="0"/>
        <pt x="55" y="144" on="0"/>
        <pt x="55" y="280" on="1"/>
        <pt x="55" y="495" on="0"/>
        <pt x="233" y="560" on="1"/>
        <pt x="328" y="594" on="0"/>
        <pt x="522" y="594" on="1"/>
        <pt x="537" y="594" on="1"/>
        <pt x="537" y="786" on="1"/>
        <pt x="537" y="880" on="0"/>
        <pt x="455" y="969" on="0"/>
        <pt x="369" y="969" on="1"/>
        <pt x="233" y="969" on="0"/>
        <pt x="145" y="894" on="1"/>
        <pt x="101" y="1053" on="1"/>
        <pt x="214" y="1130" on="0"/>
        <pt x="378" y="1130" on="1"/>
        <pt x="574" y="1130" on="0"/>
        <pt x="644" y="988" on="1"/>
        <pt x="738" y="1130" on="0"/>
        <pt x="880" y="1130" on="1"/>
        <pt x="972" y="1130" on="0"/>
        <pt x="1039" y="1054" on="1"/>
        <pt x="1170" y="907" on="0"/>
        <pt x="1170" y="581" on="1"/>
        <pt x="1168" y="520" on="1"/>
        <pt x="703" y="520" on="1"/>
        <pt x="709" y="344" on="0"/>
        <pt x="798" y="122" on="0"/>
        <pt x="878" y="122" on="1"/>
        <pt x="978" y="122" on="0"/>
        <pt x="1068" y="222" on="1"/>
      </contour>
    </TTGlyph>
    <TTGlyph name="afii00208" xMin="323" yMin="672" xMax="3860" yMax="827">
      <contour>
        <pt x="323" y="672" on="1"/>
        <pt x="323" y="827" on="1"/>
        <pt x="3860" y="827" on="1"/>
        <pt x="3860" y="672" on="1"/>
      </contour>
    </TTGlyph>
    <TTGlyph name="agrave" xMin="172" yMin="-25" xMax="1031" yMax="1689">
      <component glyphName=".ttfautohint" x="172" y="0" flags="0x0"/>
      <component glyphName="a" x="0" y="0" flags="0x1004"/>
      <component glyphName="grave" x="-212" y="-16" flags="0x1004"/>
    </TTGlyph>
    <TTGlyph name="amacron" xMin="172" yMin="-25" xMax="1031" yMax="1392">
      <component glyphName=".ttfautohint" x="172" y="0" flags="0x0"/>
      <component glyphName="macron" x="-13" y="-247" flags="0x1004"/>
      <component glyphName="a" x="0" y="0" flags="0x1204"/>
    </TTGlyph>
    <TTGlyph name="ampersand" xMin="68" yMin="-25" xMax="1198" yMax="1594">
      <contour>
        <pt x="494" y="961" on="1"/>
        <pt x="689" y="1070" on="0"/>
        <pt x="689" y="1246" on="1"/>
        <pt x="689" y="1341" on="0"/>
        <pt x="599" y="1444" on="0"/>
        <pt x="453" y="1444" on="0"/>
        <pt x="349" y="1356" on="0"/>
        <pt x="349" y="1289" on="1"/>
        <pt x="349" y="1158" on="0"/>
      </contour>
      <contour>
        <pt x="554" y="143" on="1"/>
        <pt x="632" y="143" on="0"/>
        <pt x="748" y="203" on="0"/>
        <pt x="804" y="259" on="1"/>
        <pt x="449" y="746" on="1"/>
        <pt x="277" y="616" on="0"/>
        <pt x="277" y="419" on="1"/>
        <pt x="277" y="288" on="0"/>
        <pt x="424" y="143" on="0"/>
      </contour>
      <contour>
        <pt x="1198" y="569" on="1"/>
        <pt x="1092" y="317" on="0"/>
        <pt x="1015" y="236" on="1"/>
        <pt x="1138" y="76" on="1"/>
        <pt x="1008" y="-24" on="1"/>
        <pt x="905" y="121" on="1"/>
        <pt x="837" y="56" on="0"/>
        <pt x="638" y="-25" on="0"/>
        <pt x="531" y="-25" on="1"/>
        <pt x="317" y="-25" on="0"/>
        <pt x="68" y="203" on="0"/>
        <pt x="68" y="413" on="1"/>
        <pt x="68" y="696" on="0"/>
        <pt x="346" y="881" on="1"/>
        <pt x="225" y="1017" on="0"/>
        <pt x="173" y="1166" on="1"/>
        <pt x="152" y="1226" on="0"/>
        <pt x="152" y="1275" on="1"/>
        <pt x="152" y="1428" on="0"/>
        <pt x="359" y="1594" on="0"/>
        <pt x="677" y="1594" on="0"/>
        <pt x="891" y="1425" on="0"/>
        <pt x="891" y="1110" on="0"/>
        <pt x="700" y="908" on="0"/>
        <pt x="574" y="838" on="1"/>
        <pt x="913" y="374" on="1"/>
        <pt x="978" y="450" on="0"/>
        <pt x="1039" y="627" on="1"/>
      </contour>
    </TTGlyph>
    <TTGlyph name="aogonek" xMin="172" yMin="-447" xMax="1093" yMax="1130">
      <component glyphName=".ttfautohint" x="172" y="0" flags="0x0"/>
      <component glyphName="a" x="0" y="0" flags="0x1004"/>
      <component glyphName="ogonek" x="243" y="-23" flags="0x1004"/>
    </TTGlyph>
    <TTGlyph name="approxequal" xMin="152" yMin="283" xMax="1303" yMax="997">
      <contour>
        <pt x="284" y="688" on="1"/>
        <pt x="154" y="717" on="1"/>
        <pt x="152" y="717" on="1"/>
        <pt x="182" y="846" on="0"/>
        <pt x="346" y="996" on="0"/>
        <pt x="487" y="996" on="1"/>
        <pt x="565" y="996" on="0"/>
        <pt x="709" y="937" on="0"/>
        <pt x="913" y="817" on="0"/>
        <pt x="969" y="817" on="1"/>
        <pt x="1067" y="817" on="0"/>
        <pt x="1148" y="920" on="0"/>
        <pt x="1176" y="997" on="1"/>
        <pt x="1299" y="966" on="1"/>
        <pt x="1235" y="688" on="0"/>
        <pt x="978" y="688" on="1"/>
        <pt x="857" y="688" on="0"/>
        <pt x="608" y="835" on="0"/>
        <pt x="520" y="867" on="0"/>
        <pt x="481" y="867" on="1"/>
        <pt x="399" y="867" on="0"/>
        <pt x="309" y="769" on="0"/>
      </contour>
      <contour>
        <pt x="999" y="413" on="1"/>
        <pt x="1073" y="413" on="0"/>
        <pt x="1153" y="523" on="0"/>
        <pt x="1180" y="592" on="1"/>
        <pt x="1303" y="563" on="1"/>
        <pt x="1238" y="284" on="0"/>
        <pt x="983" y="284" on="1"/>
        <pt x="913" y="284" on="0"/>
        <pt x="763" y="340" on="0"/>
        <pt x="710" y="374" on="1"/>
        <pt x="570" y="463" on="0"/>
        <pt x="484" y="463" on="1"/>
        <pt x="339" y="463" on="0"/>
        <pt x="284" y="283" on="1"/>
        <pt x="158" y="314" on="1"/>
        <pt x="227" y="592" on="0"/>
        <pt x="493" y="592" on="1"/>
        <pt x="619" y="592" on="0"/>
        <pt x="866" y="448" on="0"/>
        <pt x="963" y="413" on="0"/>
      </contour>
    </TTGlyph>
    <TTGlyph name="aring" xMin="172" yMin="-25" xMax="1031" yMax="1666">
      <component glyphName=".ttfautohint" x="172" y="0" flags="0x0"/>
      <component glyphName="a" x="0" y="0" flags="0x1004"/>
      <component glyphName="ring" x="36" y="5" flags="0x1004"/>
    </TTGlyph>
    <TTGlyph name="asciicircum" xMin="111" yMin="597" xMax="1296" yMax="1554">
      <contour>
        <pt x="644" y="1554" on="1"/>
        <pt x="757" y="1554" on="1"/>
        <pt x="1296" y="597" on="1"/>
        <pt x="1125" y="597" on="1"/>
        <pt x="698" y="1368" on="1"/>
        <pt x="284" y="597" on="1"/>
        <pt x="111" y="597" on="1"/>
      </contour>
    </TTGlyph>
    <TTGlyph name="asciitilde" xMin="152" yMin="781" xMax="1332" yMax="1150">
      <contour>
        <pt x="1332" y="1108" on="1"/>
        <pt x="1324" y="1072" on="0"/>
        <pt x="1320" y="1054" on="1"/>
        <pt x="1291" y="918" on="0"/>
        <pt x="1245" y="864" on="1"/>
        <pt x="1176" y="781" on="0"/>
        <pt x="992" y="781" on="0"/>
        <pt x="860" y="832" on="1"/>
        <pt x="499" y="974" on="0"/>
        <pt x="455" y="974" on="1"/>
        <pt x="362" y="974" on="0"/>
        <pt x="334" y="784" on="1"/>
        <pt x="152" y="844" on="1"/>
        <pt x="196" y="1057" on="0"/>
        <pt x="313" y="1123" on="1"/>
        <pt x="361" y="1150" on="0"/>
        <pt x="466" y="1150" on="0"/>
        <pt x="595" y="1117" on="0"/>
        <pt x="705" y="1072" on="0"/>
        <pt x="746" y="1056" on="1"/>
        <pt x="800" y="1034" on="1"/>
        <pt x="982" y="959" on="0"/>
        <pt x="1054" y="959" on="0"/>
        <pt x="1072" y="972" on="1"/>
        <pt x="1122" y="1005" on="0"/>
        <pt x="1142" y="1116" on="1"/>
        <pt x="1147" y="1146" on="0"/>
        <pt x="1148" y="1150" on="1"/>
      </contour>
    </TTGlyph>
    <TTGlyph name="asterisk" xMin="56" yMin="270" xMax="1173" yMax="1330">
      <contour>
        <pt x="1046" y="374" on="1"/>
        <pt x="866" y="270" on="1"/>
        <pt x="612" y="673" on="1"/>
        <pt x="363" y="270" on="1"/>
        <pt x="181" y="374" on="1"/>
        <pt x="499" y="752" on="1"/>
        <pt x="56" y="899" on="1"/>
        <pt x="148" y="1079" on="1"/>
        <pt x="550" y="866" on="1"/>
        <pt x="515" y="1330" on="1"/>
        <pt x="711" y="1330" on="1"/>
        <pt x="681" y="866" on="1"/>
        <pt x="1080" y="1079" on="1"/>
        <pt x="1173" y="899" on="1"/>
        <pt x="728" y="752" on="1"/>
      </contour>
    </TTGlyph>
    <TTGlyph name="at" xMin="80" yMin="-88" xMax="1237" yMax="1516">
      <contour>
        <pt x="790" y="938" on="1"/>
        <pt x="761" y="1029" on="0"/>
        <pt x="679" y="1029" on="1"/>
        <pt x="576" y="1029" on="0"/>
        <pt x="522" y="841" on="1"/>
        <pt x="493" y="741" on="0"/>
        <pt x="493" y="620" on="1"/>
        <pt x="493" y="394" on="0"/>
        <pt x="628" y="394" on="1"/>
        <pt x="721" y="394" on="0"/>
        <pt x="781" y="555" on="1"/>
        <pt x="813" y="641" on="0"/>
        <pt x="813" y="862" on="0"/>
      </contour>
      <contour>
        <pt x="669" y="1130" on="1"/>
        <pt x="780" y="1130" on="0"/>
        <pt x="842" y="970" on="1"/>
        <pt x="863" y="1097" on="1"/>
        <pt x="978" y="1097" on="1"/>
        <pt x="977" y="1097" on="0"/>
        <pt x="921" y="707" on="0"/>
        <pt x="921" y="523" on="1"/>
        <pt x="921" y="476" on="0"/>
        <pt x="964" y="386" on="0"/>
        <pt x="999" y="386" on="1"/>
        <pt x="1048" y="386" on="0"/>
        <pt x="1083" y="492" on="1"/>
        <pt x="1143" y="674" on="0"/>
        <pt x="1143" y="1055" on="0"/>
        <pt x="1048" y="1295" on="0"/>
        <pt x="855" y="1440" on="0"/>
        <pt x="591" y="1440" on="0"/>
        <pt x="384" y="1311" on="0"/>
        <pt x="320" y="1199" on="1"/>
        <pt x="193" y="974" on="0"/>
        <pt x="193" y="641" on="1"/>
        <pt x="193" y="256" on="0"/>
        <pt x="419" y="87" on="1"/>
        <pt x="534" y="1" on="0"/>
        <pt x="692" y="1" on="1"/>
        <pt x="918" y="1" on="0"/>
        <pt x="1115" y="173" on="1"/>
        <pt x="1163" y="117" on="1"/>
        <pt x="951" y="-88" on="0"/>
        <pt x="681" y="-88" on="1"/>
        <pt x="557" y="-88" on="0"/>
        <pt x="454" y="-44" on="1"/>
        <pt x="270" y="35" on="0"/>
        <pt x="169" y="242" on="1"/>
        <pt x="80" y="424" on="0"/>
        <pt x="80" y="831" on="0"/>
        <pt x="178" y="1158" on="0"/>
        <pt x="346" y="1386" on="0"/>
        <pt x="577" y="1516" on="0"/>
        <pt x="815" y="1516" on="0"/>
        <pt x="993" y="1452" on="0"/>
        <pt x="1116" y="1340" on="0"/>
        <pt x="1199" y="1186" on="0"/>
        <pt x="1237" y="1009" on="0"/>
        <pt x="1237" y="811" on="0"/>
        <pt x="1211" y="612" on="0"/>
        <pt x="1157" y="422" on="0"/>
        <pt x="1056" y="304" on="0"/>
        <pt x="914" y="304" on="0"/>
        <pt x="831" y="415" on="0"/>
        <pt x="822" y="504" on="1"/>
        <pt x="789" y="394" on="0"/>
        <pt x="664" y="296" on="0"/>
        <pt x="602" y="296" on="1"/>
        <pt x="478" y="296" on="0"/>
        <pt x="377" y="507" on="0"/>
        <pt x="377" y="769" on="0"/>
        <pt x="449" y="988" on="0"/>
        <pt x="585" y="1130" on="0"/>
      </contour>
    </TTGlyph>
    <TTGlyph name="atilde" xMin="172" yMin="-25" xMax="1047" yMax="1511">
      <component glyphName=".ttfautohint" x="172" y="0" flags="0x0"/>
      <component glyphName="a" x="0" y="0" flags="0x1004"/>
      <component glyphName="tilde" x="10" y="-37" flags="0x1004"/>
    </TTGlyph>
    <TTGlyph name="b" xMin="171" yMin="-25" xMax="1114" yMax="1565">
      <contour>
        <pt x="360" y="418" on="1"/>
        <pt x="378" y="278" on="0"/>
        <pt x="444" y="197" on="1"/>
        <pt x="511" y="116" on="0"/>
        <pt x="648" y="116" on="1"/>
        <pt x="833" y="116" on="0"/>
        <pt x="898" y="308" on="1"/>
        <pt x="931" y="409" on="0"/>
        <pt x="931" y="628" on="0"/>
        <pt x="924" y="687" on="1"/>
        <pt x="909" y="827" on="0"/>
        <pt x="782" y="990" on="0"/>
        <pt x="648" y="990" on="1"/>
        <pt x="424" y="990" on="0"/>
        <pt x="374" y="774" on="1"/>
        <pt x="353" y="684" on="0"/>
        <pt x="353" y="479" on="0"/>
      </contour>
      <contour>
        <pt x="353" y="946" on="1"/>
        <pt x="464" y="1130" on="0"/>
        <pt x="907" y="1130" on="0"/>
        <pt x="1114" y="810" on="0"/>
        <pt x="1114" y="568" on="1"/>
        <pt x="1114" y="251" on="0"/>
        <pt x="964" y="91" on="1"/>
        <pt x="856" y="-25" on="0"/>
        <pt x="670" y="-25" on="1"/>
        <pt x="547" y="-25" on="0"/>
        <pt x="418" y="66" on="0"/>
        <pt x="353" y="150" on="1"/>
        <pt x="351" y="0" on="1"/>
        <pt x="171" y="0" on="1"/>
        <pt x="171" y="1545" on="1"/>
        <pt x="353" y="1565" on="1"/>
      </contour>
    </TTGlyph>
    <TTGlyph name="backslash" xMin="193" yMin="-48" xMax="1082" yMax="1761">
      <contour>
        <pt x="1082" y="-48" on="1"/>
        <pt x="902" y="-48" on="1"/>
        <pt x="193" y="1761" on="1"/>
        <pt x="377" y="1761" on="1"/>
      </contour>
    </TTGlyph>
    <TTGlyph name="bar" xMin="530" yMin="-441" xMax="691" yMax="1585">
      <contour>
        <pt x="530" y="-441" on="1"/>
        <pt x="530" y="1585" on="1"/>
        <pt x="691" y="1585" on="1"/>
        <pt x="691" y="-441" on="1"/>
      </contour>
    </TTGlyph>
    <TTGlyph name="braceleft" xMin="225" yMin="-153" xMax="1101" yMax="1706">
      <contour>
        <pt x="514" y="455" on="1"/>
        <pt x="514" y="572" on="0"/>
        <pt x="353" y="701" on="0"/>
        <pt x="225" y="709" on="1"/>
        <pt x="225" y="844" on="1"/>
        <pt x="354" y="852" on="0"/>
        <pt x="514" y="980" on="0"/>
        <pt x="514" y="1097" on="1"/>
        <pt x="514" y="1330" on="1"/>
        <pt x="514" y="1527" on="0"/>
        <pt x="677" y="1706" on="0"/>
        <pt x="870" y="1706" on="1"/>
        <pt x="873" y="1706" on="1"/>
        <pt x="1101" y="1705" on="1"/>
        <pt x="1101" y="1569" on="1"/>
        <pt x="873" y="1569" on="1"/>
        <pt x="807" y="1569" on="0"/>
        <pt x="736" y="1483" on="0"/>
        <pt x="736" y="1330" on="1"/>
        <pt x="736" y="1089" on="1"/>
        <pt x="736" y="926" on="0"/>
        <pt x="640" y="854" on="1"/>
        <pt x="588" y="814" on="0"/>
        <pt x="490" y="776" on="1"/>
        <pt x="648" y="714" on="0"/>
        <pt x="736" y="575" on="0"/>
        <pt x="736" y="464" on="1"/>
        <pt x="736" y="223" on="1"/>
        <pt x="736" y="72" on="0"/>
        <pt x="804" y="-17" on="0"/>
        <pt x="873" y="-17" on="1"/>
        <pt x="1101" y="-17" on="1"/>
        <pt x="1101" y="-152" on="1"/>
        <pt x="873" y="-153" on="1"/>
        <pt x="870" y="-153" on="1"/>
        <pt x="677" y="-153" on="0"/>
        <pt x="514" y="26" on="0"/>
        <pt x="514" y="223" on="1"/>
      </contour>
    </TTGlyph>
    <TTGlyph name="braceright" xMin="202" yMin="-153" xMax="1079" yMax="1706">
      <contour>
        <pt x="790" y="1097" on="1"/>
        <pt x="790" y="980" on="0"/>
        <pt x="950" y="852" on="0"/>
        <pt x="1079" y="844" on="1"/>
        <pt x="1079" y="709" on="1"/>
        <pt x="951" y="701" on="0"/>
        <pt x="790" y="572" on="0"/>
        <pt x="790" y="455" on="1"/>
        <pt x="790" y="223" on="1"/>
        <pt x="790" y="26" on="0"/>
        <pt x="627" y="-153" on="0"/>
        <pt x="434" y="-153" on="1"/>
        <pt x="431" y="-153" on="1"/>
        <pt x="202" y="-152" on="1"/>
        <pt x="202" y="-17" on="1"/>
        <pt x="431" y="-17" on="1"/>
        <pt x="536" y="-17" on="0"/>
        <pt x="558" y="83" on="1"/>
        <pt x="568" y="132" on="0"/>
        <pt x="568" y="223" on="1"/>
        <pt x="568" y="464" on="1"/>
        <pt x="568" y="608" on="0"/>
        <pt x="692" y="729" on="0"/>
        <pt x="813" y="776" on="1"/>
        <pt x="654" y="839" on="0"/>
        <pt x="568" y="980" on="0"/>
        <pt x="568" y="1089" on="1"/>
        <pt x="568" y="1330" on="1"/>
        <pt x="568" y="1457" on="0"/>
        <pt x="539" y="1518" on="0"/>
        <pt x="524" y="1536" on="1"/>
        <pt x="497" y="1569" on="0"/>
        <pt x="431" y="1569" on="1"/>
        <pt x="202" y="1569" on="1"/>
        <pt x="202" y="1705" on="1"/>
        <pt x="431" y="1706" on="1"/>
        <pt x="434" y="1706" on="1"/>
        <pt x="627" y="1706" on="0"/>
        <pt x="790" y="1527" on="0"/>
        <pt x="790" y="1330" on="1"/>
      </contour>
    </TTGlyph>
    <TTGlyph name="bracketleft" xMin="395" yMin="-136" xMax="920" yMax="1730">
      <contour>
        <pt x="395" y="-131" on="1"/>
        <pt x="395" y="1725" on="1"/>
        <pt x="396" y="1729" on="0"/>
        <pt x="400" y="1730" on="1"/>
        <pt x="914" y="1730" on="1"/>
        <pt x="918" y="1729" on="0"/>
        <pt x="919" y="1725" on="1"/>
        <pt x="919" y="1593" on="1"/>
        <pt x="918" y="1589" on="0"/>
        <pt x="914" y="1588" on="1"/>
        <pt x="584" y="1588" on="1"/>
        <pt x="584" y="6" on="1"/>
        <pt x="915" y="6" on="1"/>
        <pt x="919" y="5" on="0"/>
        <pt x="920" y="1" on="1"/>
        <pt x="920" y="-131" on="1"/>
        <pt x="919" y="-135" on="0"/>
        <pt x="915" y="-136" on="1"/>
        <pt x="400" y="-136" on="1"/>
        <pt x="396" y="-135" on="0"/>
      </contour>
    </TTGlyph>
    <TTGlyph name="bracketright" xMin="250" yMin="-136" xMax="775" yMax="1730">
      <contour>
        <pt x="775" y="-131" on="1"/>
        <pt x="774" y="-135" on="0"/>
        <pt x="770" y="-136" on="1"/>
        <pt x="255" y="-136" on="1"/>
        <pt x="251" y="-135" on="0"/>
        <pt x="250" y="-131" on="1"/>
        <pt x="250" y="1" on="1"/>
        <pt x="251" y="5" on="0"/>
        <pt x="255" y="6" on="1"/>
        <pt x="586" y="6" on="1"/>
        <pt x="586" y="1588" on="1"/>
        <pt x="256" y="1588" on="1"/>
        <pt x="252" y="1589" on="0"/>
        <pt x="251" y="1593" on="1"/>
        <pt x="251" y="1725" on="1"/>
        <pt x="252" y="1729" on="0"/>
        <pt x="256" y="1730" on="1"/>
        <pt x="770" y="1730" on="1"/>
        <pt x="774" y="1729" on="0"/>
        <pt x="775" y="1725" on="1"/>
      </contour>
    </TTGlyph>
    <TTGlyph name="breve" xMin="313" yMin="1323" xMax="940" yMax="1579">
      <contour>
        <pt x="411" y="1579" on="1"/>
        <pt x="437" y="1438" on="0"/>
        <pt x="620" y="1438" on="1"/>
        <pt x="707" y="1438" on="0"/>
        <pt x="825" y="1512" on="0"/>
        <pt x="843" y="1579" on="1"/>
        <pt x="940" y="1579" on="1"/>
        <pt x="931" y="1453" on="0"/>
        <pt x="768" y="1323" on="0"/>
        <pt x="629" y="1323" on="1"/>
        <pt x="337" y="1323" on="0"/>
        <pt x="313" y="1579" on="1"/>
      </contour>
    </TTGlyph>
    <TTGlyph name="brokenbar" xMin="539" yMin="-533" xMax="711" yMax="1677">
      <contour>
        <pt x="539" y="1677" on="1"/>
        <pt x="711" y="1677" on="1"/>
        <pt x="711" y="735" on="1"/>
        <pt x="539" y="735" on="1"/>
      </contour>
      <contour>
        <pt x="539" y="427" on="1"/>
        <pt x="711" y="427" on="1"/>
        <pt x="711" y="-533" on="1"/>
        <pt x="539" y="-533" on="1"/>
      </contour>
    </TTGlyph>
    <TTGlyph name="bullet" xMin="379" yMin="418" xMax="1126" yMax="1096">
      <contour>
        <pt x="1126" y="610" on="0"/>
        <pt x="906" y="418" on="0"/>
        <pt x="588" y="418" on="0"/>
        <pt x="379" y="622" on="0"/>
        <pt x="379" y="753" on="1"/>
        <pt x="379" y="938" on="0"/>
        <pt x="558" y="1040" on="1"/>
        <pt x="655" y="1096" on="0"/>
        <pt x="747" y="1096" on="1"/>
        <pt x="921" y="1096" on="0"/>
        <pt x="1126" y="888" on="0"/>
      </contour>
    </TTGlyph>
    <TTGlyph name="c" xMin="173" yMin="-25" xMax="1002" yMax="1130">
      <contour>
        <pt x="1002" y="72" on="1"/>
        <pt x="897" y="-25" on="0"/>
        <pt x="703" y="-25" on="1"/>
        <pt x="579" y="-25" on="0"/>
        <pt x="375" y="70" on="0"/>
        <pt x="310" y="150" on="1"/>
        <pt x="173" y="318" on="0"/>
        <pt x="173" y="555" on="1"/>
        <pt x="173" y="708" on="0"/>
        <pt x="298" y="968" on="0"/>
        <pt x="542" y="1130" on="0"/>
        <pt x="900" y="1130" on="0"/>
        <pt x="999" y="1035" on="1"/>
        <pt x="953" y="913" on="1"/>
        <pt x="838" y="990" on="0"/>
        <pt x="548" y="990" on="0"/>
        <pt x="357" y="742" on="0"/>
        <pt x="357" y="359" on="0"/>
        <pt x="548" y="115" on="0"/>
        <pt x="845" y="115" on="0"/>
        <pt x="958" y="195" on="1"/>
      </contour>
    </TTGlyph>
    <TTGlyph name="cacute" xMin="173" yMin="-25" xMax="1102" yMax="1689">
      <component glyphName=".ttfautohint" x="173" y="0" flags="0x0"/>
      <component glyphName="c" x="0" y="0" flags="0x1004"/>
      <component glyphName="acute" x="191" y="-16" flags="0x1004"/>
    </TTGlyph>
    <TTGlyph name="caron" xMin="283" yMin="1266" xMax="993" yMax="1614">
      <contour>
        <pt x="444" y="1614" on="1"/>
        <pt x="632" y="1379" on="1"/>
        <pt x="822" y="1614" on="1"/>
        <pt x="993" y="1614" on="1"/>
        <pt x="720" y="1266" on="1"/>
        <pt x="555" y="1266" on="1"/>
        <pt x="283" y="1614" on="1"/>
      </contour>
    </TTGlyph>
    <TTGlyph name="ccaron" xMin="173" yMin="-25" xMax="1035" yMax="1600">
      <component glyphName=".ttfautohint" x="173" y="0" flags="0x0"/>
      <component glyphName="c" x="0" y="0" flags="0x1004"/>
      <component glyphName="caron" x="42" y="-14" flags="0x1004"/>
    </TTGlyph>
    <TTGlyph name="ccedilla" xMin="173" yMin="-457" xMax="1002" yMax="1130">
      <component glyphName=".ttfautohint" x="173" y="0" flags="0x0"/>
      <component glyphName="c" x="0" y="0" flags="0x1004"/>
      <component glyphName="cedilla" x="57" y="-29" flags="0x1004"/>
    </TTGlyph>
    <TTGlyph name="ccircumflex" xMin="173" yMin="-25" xMax="1002" yMax="1581">
      <component glyphName=".ttfautohint" x="173" y="0" flags="0x0"/>
      <component glyphName="c" x="0" y="0" flags="0x1004"/>
      <component glyphName="circumflex" x="-33" y="-34" flags="0x1004"/>
    </TTGlyph>
    <TTGlyph name="cdotaccent" xMin="173" yMin="-25" xMax="1002" yMax="1409">
      <contour>
        <pt x="504" y="1409" on="1"/>
        <pt x="681" y="1409" on="1"/>
        <pt x="681" y="1232" on="1"/>
        <pt x="504" y="1232" on="1"/>
      </contour>
      <contour>
        <pt x="1002" y="72" on="1"/>
        <pt x="897" y="-25" on="0"/>
        <pt x="703" y="-25" on="1"/>
        <pt x="579" y="-25" on="0"/>
        <pt x="375" y="70" on="0"/>
        <pt x="310" y="150" on="1"/>
        <pt x="173" y="318" on="0"/>
        <pt x="173" y="555" on="1"/>
        <pt x="173" y="708" on="0"/>
        <pt x="298" y="968" on="0"/>
        <pt x="542" y="1130" on="0"/>
        <pt x="900" y="1130" on="0"/>
        <pt x="999" y="1035" on="1"/>
        <pt x="953" y="913" on="1"/>
        <pt x="838" y="990" on="0"/>
        <pt x="548" y="990" on="0"/>
        <pt x="357" y="742" on="0"/>
        <pt x="357" y="359" on="0"/>
        <pt x="548" y="115" on="0"/>
        <pt x="845" y="115" on="0"/>
        <pt x="958" y="195" on="1"/>
      </contour>
    </TTGlyph>
    <TTGlyph name="cedilla" xMin="428" yMin="-428" xMax="888" yMax="19">
      <contour>
        <pt x="731" y="-339" on="0"/>
        <pt x="731" y="-183" on="0"/>
        <pt x="609" y="-183" on="1"/>
        <pt x="602" y="-183" on="0"/>
        <pt x="534" y="-188" on="1"/>
        <pt x="569" y="19" on="1"/>
        <pt x="677" y="19" on="1"/>
        <pt x="657" y="-98" on="1"/>
        <pt x="666" y="-97" on="1"/>
        <pt x="765" y="-97" on="0"/>
        <pt x="888" y="-175" on="0"/>
        <pt x="888" y="-260" on="1"/>
        <pt x="888" y="-428" on="0"/>
        <pt x="617" y="-428" on="1"/>
        <pt x="541" y="-428" on="0"/>
        <pt x="428" y="-405" on="1"/>
        <pt x="437" y="-313" on="1"/>
        <pt x="548" y="-339" on="0"/>
        <pt x="604" y="-339" on="1"/>
      </contour>
    </TTGlyph>
    <TTGlyph name="cent" xMin="173" yMin="-277" xMax="1002" yMax="1368">
      <contour>
        <pt x="752" y="-277" on="1"/>
        <pt x="624" y="-277" on="1"/>
        <pt x="624" y="-20" on="1"/>
        <pt x="518" y="-6" on="0"/>
        <pt x="345" y="99" on="0"/>
        <pt x="289" y="177" on="1"/>
        <pt x="173" y="339" on="0"/>
        <pt x="173" y="767" on="0"/>
        <pt x="292" y="930" on="1"/>
        <pt x="349" y="1007" on="0"/>
        <pt x="521" y="1111" on="0"/>
        <pt x="624" y="1125" on="1"/>
        <pt x="624" y="1368" on="1"/>
        <pt x="752" y="1368" on="1"/>
        <pt x="752" y="1128" on="1"/>
        <pt x="915" y="1115" on="0"/>
        <pt x="999" y="1035" on="1"/>
        <pt x="953" y="913" on="1"/>
        <pt x="861" y="975" on="0"/>
        <pt x="752" y="987" on="1"/>
        <pt x="752" y="117" on="1"/>
        <pt x="864" y="129" on="0"/>
        <pt x="958" y="195" on="1"/>
        <pt x="1002" y="72" on="1"/>
        <pt x="914" y="-10" on="0"/>
        <pt x="752" y="-23" on="1"/>
      </contour>
      <contour>
        <pt x="624" y="125" on="1"/>
        <pt x="624" y="981" on="1"/>
        <pt x="504" y="951" on="0"/>
        <pt x="357" y="716" on="0"/>
        <pt x="357" y="387" on="0"/>
        <pt x="499" y="157" on="0"/>
      </contour>
    </TTGlyph>
    <TTGlyph name="circumflex" xMin="283" yMin="1266" xMax="968" yMax="1615">
      <contour>
        <pt x="709" y="1615" on="1"/>
        <pt x="968" y="1266" on="1"/>
        <pt x="825" y="1266" on="1"/>
        <pt x="621" y="1501" on="1"/>
        <pt x="419" y="1266" on="1"/>
        <pt x="283" y="1266" on="1"/>
        <pt x="542" y="1615" on="1"/>
      </contour>
    </TTGlyph>
    <TTGlyph name="colon" xMin="487" yMin="144" xMax="788" yMax="1130">
      <contour>
        <pt x="788" y="144" on="1"/>
        <pt x="487" y="144" on="1"/>
        <pt x="487" y="445" on="1"/>
        <pt x="788" y="445" on="1"/>
      </contour>
      <contour>
        <pt x="788" y="830" on="1"/>
        <pt x="487" y="830" on="1"/>
        <pt x="487" y="1130" on="1"/>
        <pt x="788" y="1130" on="1"/>
      </contour>
    </TTGlyph>
    <TTGlyph name="comma" xMin="440" yMin="-321" xMax="748" yMax="286">
      <contour>
        <pt x="440" y="-321" on="1"/>
        <pt x="491" y="286" on="1"/>
        <pt x="748" y="286" on="1"/>
        <pt x="562" y="-321" on="1"/>
      </contour>
    </TTGlyph>
    <TTGlyph name="copyright" xMin="6" yMin="-34" xMax="1793" yMax="1610">
      <contour>
        <pt x="1234" y="1069" on="1"/>
        <pt x="1113" y="1173" on="0"/>
        <pt x="770" y="1173" on="0"/>
        <pt x="568" y="964" on="0"/>
        <pt x="568" y="795" on="1"/>
        <pt x="570" y="795" on="1"/>
        <pt x="570" y="622" on="0"/>
        <pt x="778" y="413" on="0"/>
        <pt x="1126" y="413" on="0"/>
        <pt x="1229" y="499" on="1"/>
        <pt x="1273" y="368" on="1"/>
        <pt x="1134" y="270" on="0"/>
        <pt x="932" y="270" on="1"/>
        <pt x="810" y="270" on="0"/>
        <pt x="605" y="358" on="0"/>
        <pt x="539" y="432" on="1"/>
        <pt x="400" y="586" on="0"/>
        <pt x="400" y="792" on="1"/>
        <pt x="400" y="915" on="0"/>
        <pt x="490" y="1116" on="0"/>
        <pt x="566" y="1180" on="1"/>
        <pt x="725" y="1311" on="0"/>
        <pt x="1135" y="1311" on="0"/>
        <pt x="1269" y="1200" on="1"/>
      </contour>
      <contour>
        <pt x="682" y="1483" on="0"/>
        <pt x="337" y="1303" on="0"/>
        <pt x="146" y="997" on="0"/>
        <pt x="146" y="813" on="1"/>
        <pt x="146" y="420" on="0"/>
        <pt x="462" y="213" on="1"/>
        <pt x="646" y="92" on="0"/>
        <pt x="876" y="92" on="1"/>
        <pt x="1049" y="92" on="0"/>
        <pt x="1341" y="199" on="0"/>
        <pt x="1540" y="385" on="0"/>
        <pt x="1650" y="640" on="0"/>
        <pt x="1650" y="920" on="0"/>
        <pt x="1605" y="1036" on="1"/>
        <pt x="1523" y="1247" on="0"/>
        <pt x="1120" y="1483" on="0"/>
      </contour>
      <contour>
        <pt x="1793" y="787" on="1"/>
        <pt x="1793" y="425" on="0"/>
        <pt x="1261" y="-34" on="0"/>
        <pt x="904" y="-34" on="1"/>
        <pt x="641" y="-34" on="0"/>
        <pt x="245" y="187" on="0"/>
        <pt x="6" y="561" on="0"/>
        <pt x="6" y="788" on="1"/>
        <pt x="6" y="1150" on="0"/>
        <pt x="546" y="1610" on="0"/>
        <pt x="898" y="1610" on="1"/>
        <pt x="1160" y="1610" on="0"/>
        <pt x="1551" y="1388" on="0"/>
        <pt x="1792" y="1013" on="0"/>
        <pt x="1792" y="787" on="1"/>
      </contour>
    </TTGlyph>
    <TTGlyph name="currency" xMin="38" yMin="403" xMax="1194" yMax="1480">
      <contour>
        <pt x="325" y="1264" on="1"/>
        <pt x="448" y="1376" on="0"/>
        <pt x="787" y="1376" on="0"/>
        <pt x="912" y="1261" on="1"/>
        <pt x="1149" y="1480" on="1"/>
        <pt x="1194" y="1424" on="1"/>
        <pt x="960" y="1208" on="1"/>
        <pt x="1052" y="1089" on="0"/>
        <pt x="1052" y="793" on="0"/>
        <pt x="961" y="675" on="1"/>
        <pt x="1194" y="459" on="1"/>
        <pt x="1149" y="403" on="1"/>
        <pt x="912" y="622" on="1"/>
        <pt x="786" y="506" on="0"/>
        <pt x="448" y="506" on="0"/>
        <pt x="324" y="619" on="1"/>
        <pt x="91" y="403" on="1"/>
        <pt x="38" y="454" on="1"/>
        <pt x="275" y="672" on="1"/>
        <pt x="182" y="791" on="0"/>
        <pt x="182" y="1091" on="0"/>
        <pt x="275" y="1210" on="1"/>
        <pt x="38" y="1429" on="1"/>
        <pt x="91" y="1480" on="1"/>
      </contour>
      <contour>
        <pt x="272" y="1084" on="0"/>
        <pt x="272" y="798" on="0"/>
        <pt x="474" y="596" on="0"/>
        <pt x="760" y="596" on="0"/>
        <pt x="962" y="798" on="0"/>
        <pt x="962" y="1084" on="0"/>
        <pt x="760" y="1286" on="0"/>
        <pt x="474" y="1286" on="0"/>
      </contour>
    </TTGlyph>
    <TTGlyph name="d" xMin="121" yMin="-25" xMax="1060" yMax="1565">
      <contour>
        <pt x="878" y="555" on="1"/>
        <pt x="878" y="811" on="0"/>
        <pt x="726" y="990" on="0"/>
        <pt x="586" y="990" on="1"/>
        <pt x="392" y="990" on="0"/>
        <pt x="335" y="798" on="1"/>
        <pt x="304" y="693" on="0"/>
        <pt x="304" y="545" on="1"/>
        <pt x="304" y="115" on="0"/>
        <pt x="586" y="115" on="1"/>
        <pt x="878" y="115" on="0"/>
      </contour>
      <contour>
        <pt x="878" y="946" on="1"/>
        <pt x="878" y="1545" on="1"/>
        <pt x="1060" y="1565" on="1"/>
        <pt x="1060" y="0" on="1"/>
        <pt x="878" y="0" on="1"/>
        <pt x="878" y="170" on="1"/>
        <pt x="767" y="-25" on="0"/>
        <pt x="564" y="-25" on="1"/>
        <pt x="332" y="-25" on="0"/>
        <pt x="121" y="307" on="0"/>
        <pt x="121" y="558" on="1"/>
        <pt x="121" y="860" on="0"/>
        <pt x="275" y="1018" on="1"/>
        <pt x="383" y="1130" on="0"/>
        <pt x="565" y="1130" on="1"/>
        <pt x="689" y="1130" on="0"/>
        <pt x="844" y="1028" on="0"/>
      </contour>
    </TTGlyph>
    <TTGlyph name="dagger" xMin="240" yMin="123" xMax="1139" yMax="1575">
      <contour>
        <pt x="240" y="1014" on="1"/>
        <pt x="240" y="1158" on="1"/>
        <pt x="601" y="1158" on="1"/>
        <pt x="601" y="1575" on="1"/>
        <pt x="758" y="1575" on="1"/>
        <pt x="758" y="1158" on="1"/>
        <pt x="1139" y="1158" on="1"/>
        <pt x="1139" y="1014" on="1"/>
        <pt x="743" y="1014" on="1"/>
        <pt x="743" y="123" on="1"/>
        <pt x="601" y="123" on="1"/>
        <pt x="601" y="1014" on="1"/>
      </contour>
    </TTGlyph>
    <TTGlyph name="daggerdbl" xMin="229" yMin="123" xMax="1135" yMax="1575">
      <contour>
        <pt x="236" y="1067" on="1"/>
        <pt x="236" y="1211" on="1"/>
        <pt x="617" y="1211" on="1"/>
        <pt x="589" y="1575" on="1"/>
        <pt x="754" y="1575" on="1"/>
        <pt x="754" y="1211" on="1"/>
        <pt x="1135" y="1211" on="1"/>
        <pt x="1135" y="1067" on="1"/>
        <pt x="746" y="1067" on="1"/>
        <pt x="746" y="610" on="1"/>
        <pt x="1127" y="610" on="1"/>
        <pt x="1127" y="472" on="1"/>
        <pt x="746" y="472" on="1"/>
        <pt x="775" y="123" on="1"/>
        <pt x="586" y="123" on="1"/>
        <pt x="610" y="472" on="1"/>
        <pt x="229" y="472" on="1"/>
        <pt x="229" y="610" on="1"/>
        <pt x="610" y="610" on="1"/>
        <pt x="610" y="1067" on="1"/>
      </contour>
    </TTGlyph>
    <TTGlyph name="dcaron" xMin="121" yMin="-25" xMax="1562" yMax="1565">
      <component glyphName=".ttfautohint" x="121" y="0" flags="0x0"/>
      <component glyphName="d" x="0" y="0" flags="0x1004"/>
      <component glyphName="comma" x="814" y="1279" flags="0x1004"/>
    </TTGlyph>
    <TTGlyph name="dcroat" xMin="121" yMin="-25" xMax="1060" yMax="1565">
      <component glyphName=".ttfautohint" x="121" y="0" flags="0x0"/>
      <component glyphName="d" x="0" y="0" flags="0x1004"/>
    </TTGlyph>
    <TTGlyph name="degree" xMin="299" yMin="929" xMax="1006" yMax="1567">
      <contour>
        <pt x="1006" y="1248" on="1"/>
        <pt x="1006" y="1110" on="0"/>
        <pt x="797" y="929" on="0"/>
        <pt x="501" y="929" on="0"/>
        <pt x="299" y="1127" on="0"/>
        <pt x="299" y="1387" on="0"/>
        <pt x="508" y="1567" on="0"/>
        <pt x="653" y="1567" on="1"/>
        <pt x="755" y="1567" on="0"/>
        <pt x="920" y="1472" on="0"/>
        <pt x="1006" y="1327" on="0"/>
      </contour>
      <contour>
        <pt x="563" y="1054" on="0"/>
        <pt x="743" y="1054" on="0"/>
        <pt x="868" y="1165" on="0"/>
        <pt x="868" y="1335" on="0"/>
        <pt x="742" y="1442" on="0"/>
        <pt x="564" y="1442" on="0"/>
        <pt x="438" y="1334" on="0"/>
        <pt x="438" y="1165" on="0"/>
      </contour>
    </TTGlyph>
    <TTGlyph name="dieresis" xMin="330" yMin="1268" xMax="958" yMax="1458">
      <contour>
        <pt x="765" y="1279" on="1"/>
        <pt x="774" y="1383" on="0"/>
        <pt x="774" y="1458" on="1"/>
        <pt x="872" y="1448" on="0"/>
        <pt x="958" y="1448" on="1"/>
        <pt x="946" y="1362" on="0"/>
        <pt x="946" y="1268" on="1"/>
        <pt x="850" y="1279" on="0"/>
      </contour>
      <contour>
        <pt x="330" y="1448" on="1"/>
        <pt x="416" y="1448" on="0"/>
        <pt x="514" y="1458" on="1"/>
        <pt x="514" y="1372" on="0"/>
        <pt x="525" y="1279" on="1"/>
        <pt x="435" y="1279" on="0"/>
        <pt x="341" y="1268" on="1"/>
        <pt x="341" y="1355" on="0"/>
      </contour>
    </TTGlyph>
    <TTGlyph name="divide" xMin="152" yMin="22" xMax="1311" yMax="1175">
      <contour>
        <pt x="619" y="948" on="1"/>
        <pt x="619" y="1175" on="1"/>
        <pt x="858" y="1175" on="1"/>
        <pt x="858" y="948" on="1"/>
      </contour>
      <contour>
        <pt x="619" y="22" on="1"/>
        <pt x="619" y="251" on="1"/>
        <pt x="858" y="251" on="1"/>
        <pt x="858" y="22" on="1"/>
      </contour>
      <contour>
        <pt x="152" y="677" on="1"/>
        <pt x="1311" y="677" on="1"/>
        <pt x="1311" y="526" on="1"/>
        <pt x="152" y="526" on="1"/>
      </contour>
    </TTGlyph>
    <TTGlyph name="dollar" xMin="141" yMin="-218" xMax="1054" yMax="1752">
      <contour>
        <pt x="573" y="1752" on="1"/>
        <pt x="666" y="1752" on="1"/>
        <pt x="666" y="1515" on="1"/>
        <pt x="874" y="1503" on="0"/>
        <pt x="997" y="1406" on="1"/>
        <pt x="927" y="1262" on="1"/>
        <pt x="818" y="1347" on="0"/>
        <pt x="666" y="1361" on="1"/>
        <pt x="666" y="850" on="1"/>
        <pt x="818" y="787" on="0"/>
        <pt x="951" y="686" on="0"/>
        <pt x="982" y="645" on="1"/>
        <pt x="1054" y="550" on="0"/>
        <pt x="1054" y="415" on="1"/>
        <pt x="1054" y="220" on="0"/>
        <pt x="848" y="-2" on="0"/>
        <pt x="666" y="-21" on="1"/>
        <pt x="666" y="-218" on="1"/>
        <pt x="573" y="-218" on="1"/>
        <pt x="573" y="-25" on="1"/>
        <pt x="314" y="-21" on="0"/>
        <pt x="141" y="94" on="1"/>
        <pt x="212" y="261" on="1"/>
        <pt x="363" y="138" on="0"/>
        <pt x="573" y="130" on="1"/>
        <pt x="573" y="687" on="1"/>
        <pt x="445" y="739" on="0"/>
        <pt x="398" y="762" on="1"/>
        <pt x="279" y="821" on="0"/>
        <pt x="150" y="988" on="0"/>
        <pt x="150" y="1243" on="0"/>
        <pt x="206" y="1332" on="1"/>
        <pt x="316" y="1506" on="0"/>
        <pt x="573" y="1516" on="1"/>
      </contour>
      <contour>
        <pt x="573" y="886" on="1"/>
        <pt x="573" y="1361" on="1"/>
        <pt x="472" y="1350" on="0"/>
        <pt x="357" y="1223" on="0"/>
        <pt x="357" y="1030" on="0"/>
        <pt x="484" y="922" on="0"/>
      </contour>
      <contour>
        <pt x="666" y="646" on="1"/>
        <pt x="666" y="138" on="1"/>
        <pt x="752" y="159" on="0"/>
        <pt x="843" y="299" on="0"/>
        <pt x="843" y="492" on="0"/>
        <pt x="749" y="605" on="0"/>
      </contour>
    </TTGlyph>
    <TTGlyph name="dotaccent" xMin="508" yMin="1352" xMax="685" yMax="1529">
      <contour>
        <pt x="508" y="1529" on="1"/>
        <pt x="685" y="1529" on="1"/>
        <pt x="685" y="1352" on="1"/>
        <pt x="508" y="1352" on="1"/>
      </contour>
    </TTGlyph>
    <TTGlyph name="dotlessi" xMin="197" yMin="0" xMax="1185" yMax="1097">
      <contour>
        <pt x="266" y="953" on="1"/>
        <pt x="266" y="1097" on="1"/>
        <pt x="788" y="1097" on="1"/>
        <pt x="788" y="144" on="1"/>
        <pt x="1185" y="144" on="1"/>
        <pt x="1185" y="0" on="1"/>
        <pt x="197" y="0" on="1"/>
        <pt x="197" y="144" on="1"/>
        <pt x="606" y="144" on="1"/>
        <pt x="606" y="953" on="1"/>
      </contour>
    </TTGlyph>
    <TTGlyph name="e" xMin="183" yMin="-25" xMax="1062" yMax="1131">
      <contour>
        <pt x="294" y="128" on="0"/>
        <pt x="183" y="387" on="0"/>
        <pt x="183" y="713" on="0"/>
        <pt x="286" y="972" on="0"/>
        <pt x="491" y="1131" on="0"/>
        <pt x="614" y="1131" on="1"/>
        <pt x="846" y="1131" on="0"/>
        <pt x="1062" y="813" on="0"/>
        <pt x="1062" y="581" on="1"/>
        <pt x="1062" y="520" on="1"/>
        <pt x="367" y="520" on="1"/>
        <pt x="373" y="351" on="0"/>
        <pt x="530" y="115" on="0"/>
        <pt x="687" y="115" on="1"/>
        <pt x="792" y="125" on="0"/>
        <pt x="980" y="229" on="1"/>
        <pt x="1040" y="105" on="1"/>
        <pt x="910" y="-25" on="0"/>
        <pt x="685" y="-25" on="1"/>
        <pt x="524" y="-25" on="0"/>
      </contour>
      <contour>
        <pt x="888" y="653" on="1"/>
        <pt x="868" y="990" on="0"/>
        <pt x="652" y="990" on="1"/>
        <pt x="408" y="990" on="0"/>
        <pt x="373" y="653" on="1"/>
      </contour>
    </TTGlyph>
    <TTGlyph name="eacute" xMin="183" yMin="-25" xMax="1062" yMax="1689">
      <component glyphName=".ttfautohint" x="183" y="0" flags="0x0"/>
      <component glyphName="e" x="0" y="0" flags="0x1004"/>
      <component glyphName="acute" x="145" y="-16" flags="0x1004"/>
    </TTGlyph>
    <TTGlyph name="ecaron" xMin="183" yMin="-25" xMax="1062" yMax="1580">
      <component glyphName=".ttfautohint" x="183" y="0" flags="0x0"/>
      <component glyphName="e" x="0" y="0" flags="0x1004"/>
      <component glyphName="caron" x="-44" y="-34" flags="0x1004"/>
    </TTGlyph>
    <TTGlyph name="ecircumflex" xMin="183" yMin="-25" xMax="1062" yMax="1601">
      <component glyphName=".ttfautohint" x="183" y="0" flags="0x0"/>
      <component glyphName="e" x="0" y="0" flags="0x1004"/>
      <component glyphName="circumflex" x="8" y="-14" flags="0x1004"/>
    </TTGlyph>
    <TTGlyph name="edieresis" xMin="183" yMin="-25" xMax="1062" yMax="1442">
      <component glyphName=".ttfautohint" x="183" y="0" flags="0x0"/>
      <component glyphName="e" x="0" y="0" flags="0x1004"/>
      <component glyphName="dieresis" x="-10" y="-16" flags="0x1004"/>
    </TTGlyph>
    <TTGlyph name="edotaccent" xMin="183" yMin="-25" xMax="1062" yMax="1430">
      <contour>
        <pt x="534" y="1430" on="1"/>
        <pt x="711" y="1430" on="1"/>
        <pt x="711" y="1253" on="1"/>
        <pt x="534" y="1253" on="1"/>
      </contour>
      <contour>
        <pt x="294" y="128" on="0"/>
        <pt x="183" y="387" on="0"/>
        <pt x="183" y="713" on="0"/>
        <pt x="286" y="972" on="0"/>
        <pt x="491" y="1131" on="0"/>
        <pt x="614" y="1131" on="1"/>
        <pt x="846" y="1131" on="0"/>
        <pt x="1062" y="813" on="0"/>
        <pt x="1062" y="581" on="1"/>
        <pt x="1062" y="520" on="1"/>
        <pt x="367" y="520" on="1"/>
        <pt x="373" y="351" on="0"/>
        <pt x="530" y="115" on="0"/>
        <pt x="687" y="115" on="1"/>
        <pt x="792" y="125" on="0"/>
        <pt x="980" y="229" on="1"/>
        <pt x="1040" y="105" on="1"/>
        <pt x="910" y="-25" on="0"/>
        <pt x="685" y="-25" on="1"/>
        <pt x="524" y="-25" on="0"/>
      </contour>
      <contour>
        <pt x="888" y="653" on="1"/>
        <pt x="868" y="990" on="0"/>
        <pt x="652" y="990" on="1"/>
        <pt x="408" y="990" on="0"/>
        <pt x="373" y="653" on="1"/>
      </contour>
    </TTGlyph>
    <TTGlyph name="egrave" xMin="183" yMin="-25" xMax="1062" yMax="1689">
      <component glyphName=".ttfautohint" x="183" y="0" flags="0x0"/>
      <component glyphName="e" x="0" y="0" flags="0x1004"/>
      <component glyphName="grave" x="-234" y="-16" flags="0x1004"/>
    </TTGlyph>
    <TTGlyph name="eight" xMin="181" yMin="-24" xMax="1070" yMax="1516">
      <contour>
        <pt x="626" y="874" on="1"/>
        <pt x="849" y="935" on="0"/>
        <pt x="849" y="1140" on="1"/>
        <pt x="849" y="1247" on="0"/>
        <pt x="724" y="1363" on="0"/>
        <pt x="529" y="1363" on="0"/>
        <pt x="404" y="1246" on="0"/>
        <pt x="404" y="1139" on="1"/>
        <pt x="404" y="935" on="0"/>
      </contour>
      <contour>
        <pt x="1070" y="406" on="1"/>
        <pt x="1070" y="202" on="0"/>
        <pt x="833" y="-24" on="0"/>
        <pt x="419" y="-24" on="0"/>
        <pt x="181" y="202" on="0"/>
        <pt x="181" y="406" on="1"/>
        <pt x="181" y="504" on="0"/>
        <pt x="226" y="582" on="1"/>
        <pt x="307" y="722" on="0"/>
        <pt x="491" y="778" on="1"/>
        <pt x="211" y="876" on="0"/>
        <pt x="211" y="1142" on="1"/>
        <pt x="211" y="1316" on="0"/>
        <pt x="445" y="1516" on="0"/>
        <pt x="807" y="1516" on="0"/>
        <pt x="1042" y="1316" on="0"/>
        <pt x="1042" y="1142" on="1"/>
        <pt x="1042" y="876" on="0"/>
        <pt x="762" y="778" on="1"/>
        <pt x="891" y="739" on="0"/>
        <pt x="1070" y="554" on="0"/>
      </contour>
      <contour>
        <pt x="396" y="378" on="1"/>
        <pt x="396" y="261" on="0"/>
        <pt x="515" y="130" on="0"/>
        <pt x="737" y="130" on="0"/>
        <pt x="857" y="261" on="0"/>
        <pt x="857" y="378" on="1"/>
        <pt x="857" y="609" on="0"/>
        <pt x="626" y="678" on="1"/>
        <pt x="396" y="608" on="0"/>
      </contour>
    </TTGlyph>
    <TTGlyph name="ellipsis" xMin="78" yMin="-12" xMax="1514" yMax="216">
      <contour>
        <pt x="675" y="-12" on="1"/>
        <pt x="675" y="216" on="1"/>
        <pt x="916" y="216" on="1"/>
        <pt x="916" y="-12" on="1"/>
      </contour>
      <contour>
        <pt x="1274" y="-12" on="1"/>
        <pt x="1274" y="216" on="1"/>
        <pt x="1514" y="216" on="1"/>
        <pt x="1514" y="-12" on="1"/>
      </contour>
      <contour>
        <pt x="78" y="-12" on="1"/>
        <pt x="78" y="216" on="1"/>
        <pt x="319" y="216" on="1"/>
        <pt x="319" y="-12" on="1"/>
      </contour>
    </TTGlyph>
    <TTGlyph name="emacron" xMin="183" yMin="-25" xMax="1062" yMax="1393">
      <component glyphName=".ttfautohint" x="183" y="0" flags="0x0"/>
      <component glyphName="macron" x="8" y="-246" flags="0x1004"/>
      <component glyphName="e" x="0" y="0" flags="0x1204"/>
    </TTGlyph>
    <TTGlyph name="emdash" xMin="-6" yMin="531" xMax="1235" yMax="680">
      <contour>
        <pt x="-6" y="531" on="1"/>
        <pt x="-6" y="680" on="1"/>
        <pt x="1235" y="680" on="1"/>
        <pt x="1235" y="531" on="1"/>
      </contour>
    </TTGlyph>
    <TTGlyph name="endash" xMin="184" yMin="531" xMax="1391" yMax="680">
      <contour>
        <pt x="184" y="531" on="1"/>
        <pt x="184" y="680" on="1"/>
        <pt x="1391" y="680" on="1"/>
        <pt x="1391" y="531" on="1"/>
      </contour>
    </TTGlyph>
    <TTGlyph name="eng" xMin="196" yMin="-431" xMax="1054" yMax="1130">
      <contour>
        <pt x="713" y="1130" on="1"/>
        <pt x="1054" y="1130" on="0"/>
        <pt x="1054" y="698" on="1"/>
        <pt x="1053" y="56" on="1"/>
        <pt x="1053" y="-200" on="0"/>
        <pt x="972" y="-366" on="0"/>
        <pt x="903" y="-392" on="1"/>
        <pt x="805" y="-431" on="0"/>
        <pt x="661" y="-431" on="1"/>
        <pt x="398" y="-431" on="1"/>
        <pt x="398" y="-291" on="1"/>
        <pt x="660" y="-291" on="1"/>
        <pt x="757" y="-291" on="0"/>
        <pt x="822" y="-257" on="0"/>
        <pt x="836" y="-238" on="1"/>
        <pt x="871" y="-190" on="0"/>
        <pt x="871" y="0" on="1"/>
        <pt x="872" y="676" on="1"/>
        <pt x="872" y="792" on="0"/>
        <pt x="848" y="892" on="0"/>
        <pt x="824" y="924" on="1"/>
        <pt x="773" y="990" on="0"/>
        <pt x="657" y="990" on="1"/>
        <pt x="540" y="990" on="0"/>
        <pt x="378" y="854" on="0"/>
        <pt x="378" y="742" on="1"/>
        <pt x="378" y="0" on="1"/>
        <pt x="196" y="0" on="1"/>
        <pt x="196" y="1097" on="1"/>
        <pt x="363" y="1097" on="1"/>
        <pt x="373" y="978" on="1"/>
        <pt x="482" y="1130" on="0"/>
      </contour>
    </TTGlyph>
    <TTGlyph name="eogonek" xMin="183" yMin="-390" xMax="1062" yMax="1131">
      <component glyphName=".ttfautohint" x="183" y="0" flags="0x0"/>
      <component glyphName="e" x="0" y="0" flags="0x1004"/>
      <component glyphName="ogonek" x="147" y="34" flags="0x1004"/>
    </TTGlyph>
    <TTGlyph name="equal" xMin="34" yMin="457" xMax="1195" yMax="1048">
      <contour>
        <pt x="1195" y="457" on="1"/>
        <pt x="35" y="457" on="1"/>
        <pt x="35" y="605" on="1"/>
        <pt x="1195" y="605" on="1"/>
      </contour>
      <contour>
        <pt x="1194" y="898" on="1"/>
        <pt x="34" y="898" on="1"/>
        <pt x="34" y="1048" on="1"/>
        <pt x="1194" y="1048" on="1"/>
      </contour>
    </TTGlyph>
    <TTGlyph name="eth" xMin="135" yMin="-25" xMax="1355" yMax="1619">
      <contour>
        <pt x="673" y="129" on="1"/>
        <pt x="946" y="129" on="0"/>
        <pt x="1018" y="404" on="1"/>
        <pt x="1040" y="485" on="0"/>
        <pt x="1040" y="655" on="0"/>
        <pt x="976" y="712" on="1"/>
        <pt x="851" y="822" on="0"/>
        <pt x="505" y="822" on="0"/>
        <pt x="331" y="638" on="0"/>
        <pt x="331" y="324" on="0"/>
        <pt x="518" y="129" on="0"/>
      </contour>
      <contour>
        <pt x="760" y="1619" on="1"/>
        <pt x="1007" y="1526" on="0"/>
        <pt x="1137" y="1264" on="1"/>
        <pt x="1355" y="1264" on="1"/>
        <pt x="1355" y="1115" on="1"/>
        <pt x="1193" y="1115" on="1"/>
        <pt x="1247" y="948" on="0"/>
        <pt x="1247" y="612" on="0"/>
        <pt x="1229" y="500" on="1"/>
        <pt x="1190" y="258" on="0"/>
        <pt x="925" y="-25" on="0"/>
        <pt x="428" y="-25" on="0"/>
        <pt x="135" y="268" on="0"/>
        <pt x="135" y="484" on="1"/>
        <pt x="136" y="485" on="1"/>
        <pt x="136" y="710" on="0"/>
        <pt x="412" y="975" on="0"/>
        <pt x="641" y="975" on="1"/>
        <pt x="933" y="975" on="0"/>
        <pt x="1054" y="786" on="1"/>
        <pt x="1054" y="977" on="0"/>
        <pt x="1014" y="1115" on="1"/>
        <pt x="724" y="1115" on="1"/>
        <pt x="724" y="1264" on="1"/>
        <pt x="951" y="1264" on="1"/>
        <pt x="862" y="1425" on="0"/>
        <pt x="673" y="1527" on="1"/>
      </contour>
    </TTGlyph>
    <TTGlyph name="exclam" xMin="495" yMin="0" xMax="735" yMax="1492">
      <contour>
        <pt x="735" y="0" on="1"/>
        <pt x="495" y="0" on="1"/>
        <pt x="495" y="276" on="1"/>
        <pt x="735" y="276" on="1"/>
      </contour>
      <contour>
        <pt x="584" y="489" on="1"/>
        <pt x="495" y="1492" on="1"/>
        <pt x="735" y="1492" on="1"/>
        <pt x="646" y="489" on="1"/>
      </contour>
    </TTGlyph>
    <TTGlyph name="exclamdown" xMin="487" yMin="-417" xMax="723" yMax="1184">
      <contour>
        <pt x="723" y="1184" on="1"/>
        <pt x="723" y="959" on="1"/>
        <pt x="487" y="959" on="1"/>
        <pt x="487" y="1184" on="1"/>
      </contour>
      <contour>
        <pt x="542" y="-417" on="1"/>
        <pt x="542" y="753" on="1"/>
        <pt x="715" y="753" on="1"/>
        <pt x="715" y="-417" on="1"/>
      </contour>
    </TTGlyph>
    <TTGlyph name="f" xMin="206" yMin="0" xMax="1050" yMax="1585">
      <contour>
        <pt x="675" y="0" on="1"/>
        <pt x="493" y="0" on="1"/>
        <pt x="493" y="957" on="1"/>
        <pt x="206" y="957" on="1"/>
        <pt x="206" y="1097" on="1"/>
        <pt x="493" y="1097" on="1"/>
        <pt x="493" y="1299" on="0"/>
        <pt x="509" y="1352" on="1"/>
        <pt x="541" y="1457" on="0"/>
        <pt x="591" y="1501" on="1"/>
        <pt x="688" y="1585" on="0"/>
        <pt x="944" y="1585" on="1"/>
        <pt x="1050" y="1585" on="1"/>
        <pt x="1040" y="1445" on="1"/>
        <pt x="940" y="1445" on="1"/>
        <pt x="863" y="1445" on="0"/>
        <pt x="773" y="1431" on="0"/>
        <pt x="738" y="1408" on="1"/>
        <pt x="675" y="1368" on="0"/>
        <pt x="675" y="1230" on="1"/>
        <pt x="675" y="1097" on="1"/>
        <pt x="1050" y="1097" on="1"/>
        <pt x="1050" y="957" on="1"/>
        <pt x="675" y="957" on="1"/>
      </contour>
    </TTGlyph>
    <TTGlyph name="five" xMin="168" yMin="-23" xMax="1110" yMax="1492">
      <contour>
        <pt x="909" y="624" on="0"/>
        <pt x="776" y="809" on="0"/>
        <pt x="544" y="809" on="0"/>
        <pt x="474" y="699" on="1"/>
        <pt x="264" y="699" on="1"/>
        <pt x="264" y="1492" on="1"/>
        <pt x="987" y="1492" on="1"/>
        <pt x="987" y="1346" on="1"/>
        <pt x="452" y="1346" on="1"/>
        <pt x="452" y="880" on="1"/>
        <pt x="510" y="938" on="0"/>
        <pt x="604" y="966" on="1"/>
        <pt x="640" y="976" on="0"/>
        <pt x="674" y="976" on="1"/>
        <pt x="779" y="976" on="0"/>
        <pt x="949" y="895" on="0"/>
        <pt x="1002" y="826" on="1"/>
        <pt x="1110" y="685" on="0"/>
        <pt x="1110" y="332" on="0"/>
        <pt x="950" y="61" on="0"/>
        <pt x="804" y="6" on="1"/>
        <pt x="725" y="-23" on="0"/>
        <pt x="604" y="-23" on="1"/>
        <pt x="362" y="-23" on="0"/>
        <pt x="168" y="121" on="1"/>
        <pt x="242" y="275" on="1"/>
        <pt x="422" y="130" on="0"/>
        <pt x="615" y="130" on="1"/>
        <pt x="708" y="130" on="0"/>
        <pt x="776" y="184" on="1"/>
        <pt x="909" y="290" on="0"/>
        <pt x="909" y="494" on="1"/>
      </contour>
    </TTGlyph>
    <TTGlyph name="florin" xMin="215" yMin="-360" xMax="1248" yMax="1559">
      <contour>
        <pt x="1238" y="1381" on="1"/>
        <pt x="1178" y="1404" on="0"/>
        <pt x="1051" y="1404" on="0"/>
        <pt x="1000" y="1371" on="1"/>
        <pt x="929" y="1324" on="0"/>
        <pt x="906" y="1152" on="1"/>
        <pt x="896" y="1073" on="0"/>
        <pt x="887" y="1024" on="1"/>
        <pt x="1108" y="1024" on="1"/>
        <pt x="1098" y="872" on="1"/>
        <pt x="862" y="872" on="1"/>
        <pt x="721" y="130" on="1"/>
        <pt x="681" y="-65" on="0"/>
        <pt x="650" y="-131" on="1"/>
        <pt x="591" y="-256" on="0"/>
        <pt x="456" y="-360" on="0"/>
        <pt x="274" y="-360" on="0"/>
        <pt x="215" y="-343" on="1"/>
        <pt x="228" y="-194" on="1"/>
        <pt x="270" y="-210" on="0"/>
        <pt x="380" y="-210" on="0"/>
        <pt x="454" y="-130" on="0"/>
        <pt x="488" y="-39" on="0"/>
        <pt x="506" y="31" on="0"/>
        <pt x="540" y="153" on="0"/>
        <pt x="594" y="428" on="0"/>
        <pt x="656" y="787" on="0"/>
        <pt x="672" y="872" on="1"/>
        <pt x="500" y="872" on="1"/>
        <pt x="511" y="1024" on="1"/>
        <pt x="699" y="1024" on="1"/>
        <pt x="727" y="1231" on="0"/>
        <pt x="754" y="1315" on="1"/>
        <pt x="833" y="1559" on="0"/>
        <pt x="1083" y="1559" on="1"/>
        <pt x="1166" y="1559" on="0"/>
        <pt x="1248" y="1539" on="1"/>
      </contour>
    </TTGlyph>
    <TTGlyph name="four" xMin="61" yMin="0" xMax="1139" yMax="1492">
      <contour>
        <pt x="710" y="1282" on="1"/>
        <pt x="250" y="538" on="1"/>
        <pt x="710" y="538" on="1"/>
      </contour>
      <contour>
        <pt x="897" y="0" on="1"/>
        <pt x="710" y="0" on="1"/>
        <pt x="710" y="398" on="1"/>
        <pt x="61" y="398" on="1"/>
        <pt x="61" y="541" on="1"/>
        <pt x="667" y="1492" on="1"/>
        <pt x="897" y="1492" on="1"/>
        <pt x="897" y="538" on="1"/>
        <pt x="1139" y="538" on="1"/>
        <pt x="1139" y="398" on="1"/>
        <pt x="897" y="398" on="1"/>
      </contour>
    </TTGlyph>
    <TTGlyph name="fraction" xMin="170" yMin="-48" xMax="1059" yMax="1761">
      <contour>
        <pt x="873" y="1761" on="1"/>
        <pt x="1059" y="1761" on="1"/>
        <pt x="350" y="-48" on="1"/>
        <pt x="170" y="-48" on="1"/>
      </contour>
    </TTGlyph>
    <TTGlyph name="g" xMin="126" yMin="-461" xMax="1079" yMax="1130">
      <contour>
        <pt x="888" y="210" on="1"/>
        <pt x="854" y="124" on="0"/>
        <pt x="682" y="0" on="0"/>
        <pt x="576" y="0" on="1"/>
        <pt x="368" y="0" on="0"/>
        <pt x="126" y="323" on="0"/>
        <pt x="126" y="556" on="1"/>
        <pt x="126" y="868" on="0"/>
        <pt x="282" y="1022" on="1"/>
        <pt x="393" y="1130" on="0"/>
        <pt x="777" y="1130" on="0"/>
        <pt x="888" y="948" on="1"/>
        <pt x="894" y="1097" on="1"/>
        <pt x="1079" y="1097" on="1"/>
        <pt x="1070" y="852" on="0"/>
        <pt x="1070" y="446" on="1"/>
        <pt x="1070" y="152" on="1"/>
        <pt x="1070" y="-202" on="0"/>
        <pt x="916" y="-330" on="1"/>
        <pt x="806" y="-423" on="0"/>
        <pt x="582" y="-448" on="1"/>
        <pt x="472" y="-461" on="0"/>
        <pt x="322" y="-461" on="1"/>
        <pt x="307" y="-321" on="1"/>
        <pt x="525" y="-321" on="0"/>
        <pt x="714" y="-269" on="0"/>
        <pt x="800" y="-205" on="0"/>
        <pt x="831" y="-154" on="1"/>
        <pt x="888" y="-59" on="0"/>
        <pt x="888" y="137" on="1"/>
      </contour>
      <contour>
        <pt x="770" y="943" on="0"/>
        <pt x="666" y="990" on="0"/>
        <pt x="529" y="990" on="0"/>
        <pt x="477" y="966" on="1"/>
        <pt x="382" y="923" on="0"/>
        <pt x="309" y="707" on="0"/>
        <pt x="309" y="490" on="0"/>
        <pt x="318" y="436" on="1"/>
        <pt x="336" y="319" on="0"/>
        <pt x="468" y="162" on="0"/>
        <pt x="589" y="162" on="1"/>
        <pt x="781" y="162" on="0"/>
        <pt x="850" y="334" on="1"/>
        <pt x="888" y="428" on="0"/>
        <pt x="888" y="629" on="0"/>
        <pt x="873" y="749" on="0"/>
        <pt x="833" y="864" on="0"/>
      </contour>
    </TTGlyph>
    <TTGlyph name="gbreve" xMin="126" yMin="-461" xMax="1079" yMax="1488">
      <component glyphName=".ttfautohint" x="126" y="0" flags="0x0"/>
      <component glyphName="g" x="0" y="0" flags="0x1004"/>
      <component glyphName="breve" x="-23" y="-91" flags="0x1004"/>
    </TTGlyph>
    <TTGlyph name="gcircumflex" xMin="126" yMin="-461" xMax="1079" yMax="1581">
      <component glyphName=".ttfautohint" x="126" y="0" flags="0x0"/>
      <component glyphName="g" x="0" y="0" flags="0x1004"/>
      <component glyphName="circumflex" x="-22" y="-34" flags="0x1004"/>
    </TTGlyph>
    <TTGlyph name="gcommaaccent" xMin="111" yMin="-441" xMax="1082" yMax="1752">
      <contour>
        <pt x="429" y="1249" on="1"/>
        <pt x="610" y="1752" on="1"/>
        <pt x="756" y="1752" on="1"/>
        <pt x="637" y="1249" on="1"/>
      </contour>
      <contour>
        <pt x="891" y="210" on="1"/>
        <pt x="858" y="125" on="0"/>
        <pt x="678" y="0" on="0"/>
        <pt x="456" y="0" on="0"/>
        <pt x="279" y="88" on="0"/>
        <pt x="224" y="164" on="1"/>
        <pt x="111" y="322" on="0"/>
        <pt x="111" y="556" on="1"/>
        <pt x="111" y="904" on="0"/>
        <pt x="314" y="1053" on="1"/>
        <pt x="420" y="1130" on="0"/>
        <pt x="572" y="1130" on="1"/>
        <pt x="780" y="1130" on="0"/>
        <pt x="891" y="948" on="1"/>
        <pt x="897" y="1097" on="1"/>
        <pt x="1082" y="1097" on="1"/>
        <pt x="1073" y="852" on="0"/>
        <pt x="1073" y="446" on="1"/>
        <pt x="1073" y="152" on="1"/>
        <pt x="1073" y="-120" on="0"/>
        <pt x="846" y="-389" on="0"/>
        <pt x="591" y="-424" on="1"/>
        <pt x="473" y="-441" on="0"/>
        <pt x="310" y="-441" on="1"/>
        <pt x="310" y="-274" on="1"/>
        <pt x="317" y="-274" on="1"/>
        <pt x="566" y="-274" on="0"/>
        <pt x="621" y="-260" on="1"/>
        <pt x="753" y="-226" on="0"/>
        <pt x="792" y="-188" on="1"/>
        <pt x="855" y="-125" on="0"/>
        <pt x="891" y="30" on="0"/>
        <pt x="891" y="137" on="1"/>
      </contour>
      <contour>
        <pt x="891" y="556" on="1"/>
        <pt x="891" y="969" on="0"/>
        <pt x="294" y="969" on="0"/>
        <pt x="294" y="550" on="1"/>
        <pt x="294" y="397" on="0"/>
        <pt x="431" y="162" on="0"/>
        <pt x="588" y="162" on="1"/>
        <pt x="668" y="162" on="0"/>
        <pt x="792" y="229" on="0"/>
        <pt x="826" y="287" on="1"/>
        <pt x="891" y="398" on="0"/>
      </contour>
    </TTGlyph>
    <TTGlyph name="gdotaccent" xMin="126" yMin="-461" xMax="1079" yMax="1429">
      <contour>
        <pt x="514" y="1429" on="1"/>
        <pt x="691" y="1429" on="1"/>
        <pt x="691" y="1252" on="1"/>
        <pt x="514" y="1252" on="1"/>
      </contour>
      <contour>
        <pt x="888" y="210" on="1"/>
        <pt x="854" y="124" on="0"/>
        <pt x="682" y="0" on="0"/>
        <pt x="576" y="0" on="1"/>
        <pt x="368" y="0" on="0"/>
        <pt x="126" y="323" on="0"/>
        <pt x="126" y="556" on="1"/>
        <pt x="126" y="868" on="0"/>
        <pt x="282" y="1022" on="1"/>
        <pt x="393" y="1130" on="0"/>
        <pt x="777" y="1130" on="0"/>
        <pt x="888" y="948" on="1"/>
        <pt x="894" y="1097" on="1"/>
        <pt x="1079" y="1097" on="1"/>
        <pt x="1070" y="852" on="0"/>
        <pt x="1070" y="446" on="1"/>
        <pt x="1070" y="152" on="1"/>
        <pt x="1070" y="-202" on="0"/>
        <pt x="916" y="-330" on="1"/>
        <pt x="806" y="-423" on="0"/>
        <pt x="582" y="-448" on="1"/>
        <pt x="472" y="-461" on="0"/>
        <pt x="322" y="-461" on="1"/>
        <pt x="307" y="-321" on="1"/>
        <pt x="525" y="-321" on="0"/>
        <pt x="714" y="-269" on="0"/>
        <pt x="800" y="-205" on="0"/>
        <pt x="831" y="-154" on="1"/>
        <pt x="888" y="-59" on="0"/>
        <pt x="888" y="137" on="1"/>
      </contour>
      <contour>
        <pt x="770" y="943" on="0"/>
        <pt x="666" y="990" on="0"/>
        <pt x="529" y="990" on="0"/>
        <pt x="477" y="966" on="1"/>
        <pt x="382" y="923" on="0"/>
        <pt x="309" y="707" on="0"/>
        <pt x="309" y="490" on="0"/>
        <pt x="318" y="436" on="1"/>
        <pt x="336" y="319" on="0"/>
        <pt x="468" y="162" on="0"/>
        <pt x="589" y="162" on="1"/>
        <pt x="781" y="162" on="0"/>
        <pt x="850" y="334" on="1"/>
        <pt x="888" y="428" on="0"/>
        <pt x="888" y="629" on="0"/>
        <pt x="873" y="749" on="0"/>
        <pt x="833" y="864" on="0"/>
      </contour>
    </TTGlyph>
    <TTGlyph name="germandbls" xMin="164" yMin="-26" xMax="1347" yMax="1599">
      <contour>
        <pt x="1044" y="1484" on="1"/>
        <pt x="1141" y="1399" on="0"/>
        <pt x="1141" y="1256" on="1"/>
        <pt x="1141" y="1166" on="0"/>
        <pt x="1076" y="1068" on="0"/>
        <pt x="1034" y="1016" on="0"/>
        <pt x="961" y="956" on="0"/>
        <pt x="919" y="924" on="0"/>
        <pt x="837" y="868" on="0"/>
        <pt x="823" y="858" on="1"/>
        <pt x="860" y="835" on="0"/>
        <pt x="997" y="763" on="0"/>
        <pt x="1047" y="736" on="1"/>
        <pt x="1176" y="668" on="0"/>
        <pt x="1347" y="488" on="0"/>
        <pt x="1347" y="363" on="1"/>
        <pt x="1347" y="174" on="0"/>
        <pt x="1109" y="-26" on="0"/>
        <pt x="672" y="-26" on="0"/>
        <pt x="541" y="76" on="1"/>
        <pt x="612" y="225" on="1"/>
        <pt x="762" y="139" on="0"/>
        <pt x="991" y="139" on="0"/>
        <pt x="1111" y="251" on="0"/>
        <pt x="1111" y="415" on="0"/>
        <pt x="1044" y="506" on="0"/>
        <pt x="1004" y="538" on="0"/>
        <pt x="950" y="580" on="0"/>
        <pt x="850" y="634" on="0"/>
        <pt x="735" y="697" on="0"/>
        <pt x="613" y="787" on="0"/>
        <pt x="613" y="911" on="0"/>
        <pt x="702" y="978" on="1"/>
        <pt x="728" y="996" on="0"/>
        <pt x="830" y="1067" on="0"/>
        <pt x="922" y="1172" on="0"/>
        <pt x="922" y="1319" on="0"/>
        <pt x="884" y="1362" on="1"/>
        <pt x="815" y="1442" on="0"/>
        <pt x="519" y="1442" on="0"/>
        <pt x="382" y="1253" on="0"/>
        <pt x="382" y="1096" on="1"/>
        <pt x="382" y="0" on="1"/>
        <pt x="164" y="0" on="1"/>
        <pt x="164" y="1116" on="1"/>
        <pt x="164" y="1349" on="0"/>
        <pt x="427" y="1599" on="0"/>
        <pt x="913" y="1599" on="0"/>
      </contour>
    </TTGlyph>
    <TTGlyph name="grave" xMin="418" yMin="1268" xMax="937" yMax="1705">
      <contour>
        <pt x="654" y="1705" on="1"/>
        <pt x="937" y="1268" on="1"/>
        <pt x="798" y="1268" on="1"/>
        <pt x="418" y="1705" on="1"/>
      </contour>
    </TTGlyph>
    <TTGlyph name="greater" xMin="152" yMin="213" xMax="1178" yMax="1321">
      <contour>
        <pt x="158" y="1155" on="1"/>
        <pt x="158" y="1321" on="1"/>
        <pt x="1178" y="794" on="1"/>
        <pt x="1178" y="699" on="1"/>
        <pt x="152" y="213" on="1"/>
        <pt x="152" y="380" on="1"/>
        <pt x="933" y="753" on="1"/>
      </contour>
    </TTGlyph>
    <TTGlyph name="greaterequal" xMin="152" yMin="9" xMax="1271" yMax="1325">
      <contour>
        <pt x="152" y="9" on="1"/>
        <pt x="152" y="143" on="1"/>
        <pt x="1271" y="143" on="1"/>
        <pt x="1249" y="9" on="1"/>
      </contour>
      <contour>
        <pt x="1249" y="812" on="1"/>
        <pt x="1249" y="726" on="1"/>
        <pt x="187" y="237" on="1"/>
        <pt x="187" y="389" on="1"/>
        <pt x="1053" y="767" on="1"/>
        <pt x="152" y="1174" on="1"/>
        <pt x="191" y="1325" on="1"/>
      </contour>
    </TTGlyph>
    <TTGlyph name="guillemotleft" xMin="197" yMin="185" xMax="1086" yMax="992">
      <contour>
        <pt x="1086" y="992" on="1"/>
        <pt x="794" y="588" on="1"/>
        <pt x="1077" y="185" on="1"/>
        <pt x="904" y="185" on="1"/>
        <pt x="607" y="588" on="1"/>
        <pt x="910" y="992" on="1"/>
      </contour>
      <contour>
        <pt x="679" y="992" on="1"/>
        <pt x="386" y="588" on="1"/>
        <pt x="668" y="185" on="1"/>
        <pt x="495" y="185" on="1"/>
        <pt x="197" y="588" on="1"/>
        <pt x="502" y="992" on="1"/>
      </contour>
    </TTGlyph>
    <TTGlyph name="guillemotright" xMin="197" yMin="185" xMax="1116" yMax="992">
      <contour>
        <pt x="636" y="185" on="1"/>
        <pt x="926" y="589" on="1"/>
        <pt x="645" y="992" on="1"/>
        <pt x="817" y="992" on="1"/>
        <pt x="1116" y="589" on="1"/>
        <pt x="809" y="185" on="1"/>
      </contour>
      <contour>
        <pt x="197" y="185" on="1"/>
        <pt x="489" y="589" on="1"/>
        <pt x="203" y="992" on="1"/>
        <pt x="380" y="992" on="1"/>
        <pt x="678" y="589" on="1"/>
        <pt x="373" y="185" on="1"/>
      </contour>
    </TTGlyph>
    <TTGlyph name="guilsinglleft" xMin="401" yMin="185" xMax="881" yMax="992">
      <contour>
        <pt x="881" y="992" on="1"/>
        <pt x="589" y="588" on="1"/>
        <pt x="871" y="185" on="1"/>
        <pt x="698" y="185" on="1"/>
        <pt x="401" y="588" on="1"/>
        <pt x="704" y="992" on="1"/>
      </contour>
    </TTGlyph>
    <TTGlyph name="guilsinglright" xMin="401" yMin="185" xMax="881" yMax="992">
      <contour>
        <pt x="401" y="185" on="1"/>
        <pt x="691" y="589" on="1"/>
        <pt x="409" y="992" on="1"/>
        <pt x="582" y="992" on="1"/>
        <pt x="881" y="589" on="1"/>
        <pt x="575" y="185" on="1"/>
      </contour>
    </TTGlyph>
    <TTGlyph name="h" xMin="182" yMin="0" xMax="1044" yMax="1565">
      <contour>
        <pt x="1044" y="662" on="1"/>
        <pt x="1044" y="0" on="1"/>
        <pt x="862" y="0" on="1"/>
        <pt x="862" y="639" on="1"/>
        <pt x="862" y="845" on="0"/>
        <pt x="807" y="917" on="1"/>
        <pt x="752" y="990" on="0"/>
        <pt x="641" y="990" on="1"/>
        <pt x="529" y="990" on="0"/>
        <pt x="364" y="835" on="0"/>
        <pt x="364" y="746" on="1"/>
        <pt x="364" y="0" on="1"/>
        <pt x="182" y="0" on="1"/>
        <pt x="182" y="1545" on="1"/>
        <pt x="364" y="1565" on="1"/>
        <pt x="364" y="964" on="1"/>
        <pt x="492" y="1130" on="0"/>
        <pt x="707" y="1130" on="1"/>
        <pt x="1044" y="1130" on="0"/>
      </contour>
    </TTGlyph>
    <TTGlyph name="hbar" xMin="4" yMin="0" xMax="1044" yMax="1565">
      <contour>
        <pt x="1044" y="662" on="1"/>
        <pt x="1044" y="0" on="1"/>
        <pt x="862" y="0" on="1"/>
        <pt x="862" y="639" on="1"/>
        <pt x="862" y="845" on="0"/>
        <pt x="807" y="917" on="1"/>
        <pt x="752" y="990" on="0"/>
        <pt x="641" y="990" on="1"/>
        <pt x="529" y="990" on="0"/>
        <pt x="364" y="835" on="0"/>
        <pt x="364" y="746" on="1"/>
        <pt x="364" y="0" on="1"/>
        <pt x="182" y="0" on="1"/>
        <pt x="182" y="1284" on="1"/>
        <pt x="4" y="1284" on="1"/>
        <pt x="4" y="1430" on="1"/>
        <pt x="182" y="1430" on="1"/>
        <pt x="182" y="1545" on="1"/>
        <pt x="364" y="1565" on="1"/>
        <pt x="364" y="1430" on="1"/>
        <pt x="638" y="1430" on="1"/>
        <pt x="638" y="1284" on="1"/>
        <pt x="364" y="1284" on="1"/>
        <pt x="364" y="964" on="1"/>
        <pt x="492" y="1130" on="0"/>
        <pt x="707" y="1130" on="1"/>
        <pt x="1044" y="1130" on="0"/>
      </contour>
    </TTGlyph>
    <TTGlyph name="hcircumflex" xMin="182" yMin="0" xMax="1044" yMax="2016">
      <component glyphName=".ttfautohint" x="182" y="0" flags="0x0"/>
      <component glyphName="h" x="0" y="0" flags="0x1004"/>
      <component glyphName="circumflex" x="-34" y="401" flags="0x1004"/>
    </TTGlyph>
    <TTGlyph name="hungarumlaut" xMin="246" yMin="1270" xMax="983" yMax="1607">
      <contour>
        <pt x="246" y="1270" on="1"/>
        <pt x="495" y="1607" on="1"/>
        <pt x="685" y="1607" on="1"/>
        <pt x="374" y="1270" on="1"/>
      </contour>
      <contour>
        <pt x="539" y="1270" on="1"/>
        <pt x="793" y="1607" on="1"/>
        <pt x="983" y="1607" on="1"/>
        <pt x="670" y="1270" on="1"/>
      </contour>
    </TTGlyph>
    <TTGlyph name="hyphen" xMin="323" yMin="672" xMax="993" yMax="827">
      <contour>
        <pt x="993" y="827" on="1"/>
        <pt x="993" y="672" on="1"/>
        <pt x="323" y="672" on="1"/>
        <pt x="323" y="827" on="1"/>
      </contour>
    </TTGlyph>
    <TTGlyph name="i" xMin="220" yMin="0" xMax="1064" yMax="1576">
      <contour>
        <pt x="538" y="1386" on="1"/>
        <pt x="538" y="1485" on="1"/>
        <pt x="538" y="1521" on="0"/>
        <pt x="619" y="1576" on="0"/>
        <pt x="699" y="1576" on="0"/>
        <pt x="780" y="1521" on="0"/>
        <pt x="780" y="1485" on="1"/>
        <pt x="780" y="1386" on="1"/>
        <pt x="780" y="1350" on="0"/>
        <pt x="699" y="1295" on="0"/>
        <pt x="619" y="1295" on="0"/>
        <pt x="538" y="1350" on="0"/>
      </contour>
      <contour>
        <pt x="255" y="957" on="1"/>
        <pt x="255" y="1097" on="1"/>
        <pt x="750" y="1097" on="1"/>
        <pt x="750" y="140" on="1"/>
        <pt x="1064" y="140" on="1"/>
        <pt x="1064" y="0" on="1"/>
        <pt x="220" y="0" on="1"/>
        <pt x="220" y="140" on="1"/>
        <pt x="568" y="140" on="1"/>
        <pt x="568" y="957" on="1"/>
      </contour>
    </TTGlyph>
    <TTGlyph name="iacute" xMin="197" yMin="0" xMax="1185" yMax="1689">
      <component glyphName=".ttfautohint" x="197" y="0" flags="0x0"/>
      <component glyphName="dotlessi" x="0" y="0" flags="0x1004"/>
      <component glyphName="acute" x="208" y="-16" flags="0x1004"/>
    </TTGlyph>
    <TTGlyph name="ibreve" xMin="197" yMin="0" xMax="1185" yMax="1488">
      <component glyphName=".ttfautohint" x="197" y="0" flags="0x0"/>
      <component glyphName="dotlessi" x="0" y="0" flags="0x1004"/>
      <component glyphName="breve" x="64" y="-91" flags="0x1004"/>
    </TTGlyph>
    <TTGlyph name="icircumflex" xMin="197" yMin="0" xMax="1185" yMax="1601">
      <component glyphName=".ttfautohint" x="197" y="0" flags="0x0"/>
      <component glyphName="dotlessi" x="0" y="0" flags="0x1004"/>
      <component glyphName="circumflex" x="72" y="-14" flags="0x1004"/>
    </TTGlyph>
    <TTGlyph name="idieresis" xMin="197" yMin="0" xMax="1185" yMax="1442">
      <component glyphName=".ttfautohint" x="197" y="0" flags="0x0"/>
      <component glyphName="dotlessi" x="0" y="0" flags="0x1004"/>
      <component glyphName="dieresis" x="53" y="-16" flags="0x1004"/>
    </TTGlyph>
    <TTGlyph name="igrave" xMin="197" yMin="0" xMax="1185" yMax="1689">
      <component glyphName=".ttfautohint" x="197" y="0" flags="0x0"/>
      <component glyphName="dotlessi" x="0" y="0" flags="0x1004"/>
      <component glyphName="grave" x="-170" y="-16" flags="0x1004"/>
    </TTGlyph>
    <TTGlyph name="ij" xMin="88" yMin="-360" xMax="1142" yMax="1576">
      <contour>
        <pt x="306" y="1386" on="1"/>
        <pt x="306" y="1485" on="1"/>
        <pt x="306" y="1521" on="0"/>
        <pt x="386" y="1576" on="0"/>
        <pt x="467" y="1576" on="0"/>
        <pt x="548" y="1521" on="0"/>
        <pt x="548" y="1485" on="1"/>
        <pt x="548" y="1386" on="1"/>
        <pt x="548" y="1350" on="0"/>
        <pt x="467" y="1295" on="0"/>
        <pt x="386" y="1295" on="0"/>
        <pt x="306" y="1350" on="0"/>
      </contour>
      <contour>
        <pt x="122" y="957" on="1"/>
        <pt x="122" y="1097" on="1"/>
        <pt x="518" y="1097" on="1"/>
        <pt x="518" y="140" on="1"/>
        <pt x="762" y="140" on="1"/>
        <pt x="762" y="0" on="1"/>
        <pt x="88" y="0" on="1"/>
        <pt x="88" y="140" on="1"/>
        <pt x="336" y="140" on="1"/>
        <pt x="336" y="957" on="1"/>
      </contour>
      <contour>
        <pt x="720" y="-220" on="1"/>
        <pt x="818" y="-220" on="0"/>
        <pt x="883" y="-186" on="0"/>
        <pt x="896" y="-168" on="1"/>
        <pt x="932" y="-116" on="0"/>
        <pt x="932" y="71" on="1"/>
        <pt x="932" y="957" on="1"/>
        <pt x="670" y="957" on="1"/>
        <pt x="670" y="1097" on="1"/>
        <pt x="1114" y="1097" on="1"/>
        <pt x="1114" y="127" on="1"/>
        <pt x="1114" y="-72" on="0"/>
        <pt x="1100" y="-124" on="1"/>
        <pt x="1072" y="-232" on="0"/>
        <pt x="1040" y="-264" on="1"/>
        <pt x="984" y="-320" on="0"/>
        <pt x="836" y="-360" on="0"/>
        <pt x="722" y="-360" on="1"/>
        <pt x="588" y="-360" on="1"/>
        <pt x="588" y="-220" on="1"/>
      </contour>
      <contour>
        <pt x="900" y="1386" on="1"/>
        <pt x="900" y="1485" on="1"/>
        <pt x="900" y="1521" on="0"/>
        <pt x="980" y="1576" on="0"/>
        <pt x="1061" y="1576" on="0"/>
        <pt x="1142" y="1521" on="0"/>
        <pt x="1142" y="1485" on="1"/>
        <pt x="1142" y="1386" on="1"/>
        <pt x="1142" y="1350" on="0"/>
        <pt x="1061" y="1295" on="0"/>
        <pt x="980" y="1295" on="0"/>
        <pt x="900" y="1350" on="0"/>
      </contour>
    </TTGlyph>
    <TTGlyph name="imacron" xMin="197" yMin="0" xMax="1185" yMax="1392">
      <component glyphName=".ttfautohint" x="197" y="0" flags="0x0"/>
      <component glyphName="macron" x="76" y="-247" flags="0x1004"/>
      <component glyphName="dotlessi" x="0" y="0" flags="0x1204"/>
    </TTGlyph>
    <TTGlyph name="infinity" xMin="70" yMin="254" xMax="1759" yMax="1024">
      <contour>
        <pt x="1341" y="1024" on="1"/>
        <pt x="1533" y="1024" on="0"/>
        <pt x="1759" y="827" on="0"/>
        <pt x="1759" y="644" on="1"/>
        <pt x="1759" y="554" on="0"/>
        <pt x="1687" y="402" on="0"/>
        <pt x="1628" y="354" on="1"/>
        <pt x="1428" y="254" on="0"/>
        <pt x="1372" y="254" on="1"/>
        <pt x="1367" y="254" on="0"/>
        <pt x="1364" y="255" on="1"/>
        <pt x="1222" y="255" on="0"/>
        <pt x="1029" y="386" on="0"/>
        <pt x="916" y="529" on="1"/>
        <pt x="696" y="255" on="0"/>
        <pt x="472" y="255" on="1"/>
        <pt x="295" y="255" on="0"/>
        <pt x="70" y="486" on="0"/>
        <pt x="70" y="663" on="1"/>
        <pt x="70" y="749" on="0"/>
        <pt x="148" y="891" on="0"/>
        <pt x="208" y="934" on="1"/>
        <pt x="335" y="1024" on="0"/>
        <pt x="468" y="1024" on="1"/>
        <pt x="679" y="1024" on="0"/>
        <pt x="855" y="826" on="1"/>
        <pt x="884" y="794" on="0"/>
        <pt x="919" y="750" on="1"/>
        <pt x="1016" y="872" on="0"/>
        <pt x="1049" y="899" on="1"/>
        <pt x="1137" y="973" on="0"/>
        <pt x="1265" y="1024" on="0"/>
      </contour>
      <contour>
        <pt x="355" y="899" on="0"/>
        <pt x="214" y="755" on="0"/>
        <pt x="214" y="531" on="0"/>
        <pt x="364" y="385" on="0"/>
        <pt x="476" y="385" on="1"/>
        <pt x="640" y="385" on="0"/>
        <pt x="788" y="572" on="1"/>
        <pt x="810" y="599" on="0"/>
        <pt x="839" y="638" on="1"/>
        <pt x="740" y="784" on="0"/>
        <pt x="568" y="899" on="0"/>
      </contour>
      <contour>
        <pt x="1474" y="385" on="0"/>
        <pt x="1604" y="530" on="0"/>
        <pt x="1604" y="769" on="0"/>
        <pt x="1467" y="900" on="0"/>
        <pt x="1282" y="900" on="0"/>
        <pt x="1202" y="858" on="0"/>
        <pt x="1162" y="832" on="0"/>
        <pt x="1114" y="781" on="0"/>
        <pt x="1090" y="753" on="0"/>
        <pt x="1043" y="691" on="0"/>
        <pt x="1014" y="655" on="0"/>
        <pt x="993" y="642" on="1"/>
        <pt x="1079" y="530" on="0"/>
        <pt x="1123" y="488" on="1"/>
        <pt x="1229" y="385" on="0"/>
      </contour>
    </TTGlyph>
    <TTGlyph name="integral" xMin="236" yMin="-433" xMax="1019" yMax="1771">
      <contour>
        <pt x="1019" y="1608" on="1"/>
        <pt x="974" y="1624" on="0"/>
        <pt x="910" y="1624" on="1"/>
        <pt x="797" y="1624" on="0"/>
        <pt x="718" y="1514" on="0"/>
        <pt x="718" y="1389" on="1"/>
        <pt x="718" y="-25" on="1"/>
        <pt x="718" y="-433" on="0"/>
        <pt x="388" y="-433" on="1"/>
        <pt x="322" y="-433" on="0"/>
        <pt x="239" y="-411" on="1"/>
        <pt x="236" y="-270" on="1"/>
        <pt x="287" y="-287" on="0"/>
        <pt x="345" y="-287" on="1"/>
        <pt x="456" y="-287" on="0"/>
        <pt x="535" y="-175" on="0"/>
        <pt x="535" y="-51" on="1"/>
        <pt x="535" y="1363" on="1"/>
        <pt x="535" y="1771" on="0"/>
        <pt x="868" y="1771" on="1"/>
        <pt x="908" y="1771" on="0"/>
        <pt x="1016" y="1748" on="1"/>
      </contour>
    </TTGlyph>
    <TTGlyph name="iogonek" xMin="220" yMin="-422" xMax="1064" yMax="1576">
      <component glyphName=".ttfautohint" x="220" y="0" flags="0x0"/>
      <component glyphName="i" x="0" y="0" flags="0x1004"/>
      <component glyphName="ogonek" x="-33" y="2" flags="0x1004"/>
    </TTGlyph>
    <TTGlyph name="itilde" xMin="197" yMin="0" xMax="1185" yMax="1511">
      <component glyphName=".ttfautohint" x="197" y="0" flags="0x0"/>
      <component glyphName="dotlessi" x="0" y="0" flags="0x1004"/>
      <component glyphName="tilde" x="52" y="-37" flags="0x1004"/>
    </TTGlyph>
    <TTGlyph name="j" xMin="172" yMin="-360" xMax="855" yMax="1576">
      <contour>
        <pt x="434" y="-220" on="1"/>
        <pt x="531" y="-220" on="0"/>
        <pt x="596" y="-186" on="0"/>
        <pt x="610" y="-168" on="1"/>
        <pt x="645" y="-119" on="0"/>
        <pt x="645" y="71" on="1"/>
        <pt x="645" y="957" on="1"/>
        <pt x="254" y="957" on="1"/>
        <pt x="254" y="1097" on="1"/>
        <pt x="827" y="1097" on="1"/>
        <pt x="827" y="127" on="1"/>
        <pt x="827" y="-129" on="0"/>
        <pt x="746" y="-295" on="0"/>
        <pt x="677" y="-322" on="1"/>
        <pt x="579" y="-360" on="0"/>
        <pt x="435" y="-360" on="1"/>
        <pt x="172" y="-360" on="1"/>
        <pt x="172" y="-220" on="1"/>
      </contour>
      <contour>
        <pt x="613" y="1386" on="1"/>
        <pt x="613" y="1485" on="1"/>
        <pt x="613" y="1521" on="0"/>
        <pt x="694" y="1576" on="0"/>
        <pt x="774" y="1576" on="0"/>
        <pt x="855" y="1521" on="0"/>
        <pt x="855" y="1485" on="1"/>
        <pt x="855" y="1386" on="1"/>
        <pt x="855" y="1350" on="0"/>
        <pt x="774" y="1295" on="0"/>
        <pt x="694" y="1295" on="0"/>
        <pt x="613" y="1350" on="0"/>
      </contour>
    </TTGlyph>
    <TTGlyph name="jcircumflex" xMin="127" yMin="-313" xMax="812" yMax="1615">
      <contour>
        <pt x="553" y="1615" on="1"/>
        <pt x="812" y="1266" on="1"/>
        <pt x="669" y="1266" on="1"/>
        <pt x="465" y="1501" on="1"/>
        <pt x="263" y="1266" on="1"/>
        <pt x="127" y="1266" on="1"/>
        <pt x="386" y="1615" on="1"/>
      </contour>
      <contour>
        <pt x="410" y="-155" on="1"/>
        <pt x="550" y="-155" on="0"/>
        <pt x="613" y="-70" on="0"/>
        <pt x="621" y="61" on="0"/>
        <pt x="621" y="127" on="1"/>
        <pt x="621" y="953" on="1"/>
        <pt x="136" y="953" on="1"/>
        <pt x="136" y="1097" on="1"/>
        <pt x="803" y="1097" on="1"/>
        <pt x="803" y="183" on="1"/>
        <pt x="803" y="-74" on="0"/>
        <pt x="723" y="-243" on="0"/>
        <pt x="653" y="-272" on="1"/>
        <pt x="556" y="-313" on="0"/>
        <pt x="411" y="-313" on="1"/>
        <pt x="135" y="-313" on="1"/>
        <pt x="135" y="-155" on="1"/>
      </contour>
    </TTGlyph>
    <TTGlyph name="k" xMin="210" yMin="0" xMax="1175" yMax="1565">
      <contour>
        <pt x="392" y="652" on="1"/>
        <pt x="878" y="1097" on="1"/>
        <pt x="1108" y="1097" on="1"/>
        <pt x="619" y="642" on="1"/>
        <pt x="1175" y="0" on="1"/>
        <pt x="947" y="0" on="1"/>
        <pt x="490" y="558" on="1"/>
        <pt x="392" y="472" on="1"/>
        <pt x="392" y="0" on="1"/>
        <pt x="210" y="0" on="1"/>
        <pt x="210" y="1545" on="1"/>
        <pt x="392" y="1565" on="1"/>
      </contour>
    </TTGlyph>
    <TTGlyph name="kcommaaccent" xMin="215" yMin="-655" xMax="1135" yMax="1585">
      <contour>
        <pt x="839" y="-152" on="1"/>
        <pt x="658" y="-655" on="1"/>
        <pt x="512" y="-655" on="1"/>
        <pt x="631" y="-152" on="1"/>
      </contour>
      <contour>
        <pt x="397" y="648" on="1"/>
        <pt x="886" y="1097" on="1"/>
        <pt x="1126" y="1097" on="1"/>
        <pt x="639" y="641" on="1"/>
        <pt x="1135" y="0" on="1"/>
        <pt x="907" y="0" on="1"/>
        <pt x="509" y="546" on="1"/>
        <pt x="397" y="451" on="1"/>
        <pt x="397" y="0" on="1"/>
        <pt x="215" y="0" on="1"/>
        <pt x="215" y="1585" on="1"/>
        <pt x="397" y="1585" on="1"/>
      </contour>
    </TTGlyph>
    <TTGlyph name="kgreenlandic" xMin="215" yMin="0" xMax="1204" yMax="1114">
      <contour>
        <pt x="398" y="604" on="1"/>
        <pt x="914" y="1113" on="1"/>
        <pt x="1164" y="1113" on="1"/>
        <pt x="576" y="555" on="1"/>
        <pt x="1204" y="0" on="1"/>
        <pt x="962" y="0" on="1"/>
        <pt x="397" y="511" on="1"/>
        <pt x="397" y="0" on="1"/>
        <pt x="215" y="0" on="1"/>
        <pt x="215" y="1114" on="1"/>
        <pt x="398" y="1114" on="1"/>
      </contour>
    </TTGlyph>
    <TTGlyph name="l" xMin="137" yMin="0" xMax="1048" yMax="1565">
      <contour>
        <pt x="1039" y="0" on="1"/>
        <pt x="894" y="0" on="1"/>
        <pt x="701" y="0" on="0"/>
        <pt x="618" y="40" on="1"/>
        <pt x="570" y="63" on="0"/>
        <pt x="542" y="93" on="1"/>
        <pt x="468" y="170" on="0"/>
        <pt x="465" y="433" on="1"/>
        <pt x="465" y="1425" on="1"/>
        <pt x="137" y="1425" on="1"/>
        <pt x="137" y="1565" on="1"/>
        <pt x="647" y="1565" on="1"/>
        <pt x="647" y="442" on="1"/>
        <pt x="647" y="243" on="0"/>
        <pt x="720" y="153" on="0"/>
        <pt x="830" y="140" on="0"/>
        <pt x="887" y="140" on="1"/>
        <pt x="1048" y="140" on="1"/>
      </contour>
    </TTGlyph>
    <TTGlyph name="lacute" xMin="137" yMin="0" xMax="1078" yMax="2104">
      <component glyphName=".ttfautohint" x="137" y="0" flags="0x0"/>
      <component glyphName="l" x="0" y="0" flags="0x1004"/>
      <component glyphName="acute" x="167" y="399" flags="0x1004"/>
    </TTGlyph>
    <TTGlyph name="lcaron" xMin="137" yMin="0" xMax="1648" yMax="1565">
      <component glyphName=".ttfautohint" x="137" y="0" flags="0x0"/>
      <component glyphName="l" x="0" y="0" flags="0x1004"/>
      <component glyphName="comma" x="900" y="1279" flags="0x1004"/>
    </TTGlyph>
    <TTGlyph name="lcommaaccent" xMin="137" yMin="-604" xMax="1048" yMax="1565">
      <contour>
        <pt x="819" y="-102" on="1"/>
        <pt x="638" y="-604" on="1"/>
        <pt x="493" y="-604" on="1"/>
        <pt x="611" y="-102" on="1"/>
      </contour>
      <contour>
        <pt x="1039" y="0" on="1"/>
        <pt x="894" y="0" on="1"/>
        <pt x="701" y="0" on="0"/>
        <pt x="618" y="40" on="1"/>
        <pt x="570" y="63" on="0"/>
        <pt x="542" y="93" on="1"/>
        <pt x="468" y="170" on="0"/>
        <pt x="465" y="433" on="1"/>
        <pt x="465" y="1425" on="1"/>
        <pt x="137" y="1425" on="1"/>
        <pt x="137" y="1565" on="1"/>
        <pt x="647" y="1565" on="1"/>
        <pt x="647" y="442" on="1"/>
        <pt x="647" y="243" on="0"/>
        <pt x="720" y="153" on="0"/>
        <pt x="830" y="140" on="0"/>
        <pt x="887" y="140" on="1"/>
        <pt x="1048" y="140" on="1"/>
      </contour>
    </TTGlyph>
    <TTGlyph name="ldot" xMin="125" yMin="0" xMax="1957" yMax="1585">
      <contour>
        <pt x="1716" y="557" on="1"/>
        <pt x="1716" y="785" on="1"/>
        <pt x="1957" y="785" on="1"/>
        <pt x="1957" y="557" on="1"/>
      </contour>
      <contour>
        <pt x="195" y="1433" on="1"/>
        <pt x="195" y="1585" on="1"/>
        <pt x="788" y="1585" on="1"/>
        <pt x="788" y="144" on="1"/>
        <pt x="1259" y="144" on="1"/>
        <pt x="1259" y="0" on="1"/>
        <pt x="125" y="0" on="1"/>
        <pt x="125" y="144" on="1"/>
        <pt x="606" y="144" on="1"/>
        <pt x="606" y="1433" on="1"/>
      </contour>
    </TTGlyph>
    <TTGlyph name="less" xMin="152" yMin="190" xMax="1178" yMax="1321">
      <contour>
        <pt x="1174" y="367" on="1"/>
        <pt x="1174" y="190" on="1"/>
        <pt x="152" y="689" on="1"/>
        <pt x="152" y="807" on="1"/>
        <pt x="1178" y="1321" on="1"/>
        <pt x="1178" y="1142" on="1"/>
        <pt x="395" y="749" on="1"/>
      </contour>
    </TTGlyph>
    <TTGlyph name="lessequal" xMin="152" yMin="9" xMax="1275" yMax="1323">
      <contour>
        <pt x="152" y="9" on="1"/>
        <pt x="152" y="143" on="1"/>
        <pt x="1275" y="143" on="1"/>
        <pt x="1275" y="9" on="1"/>
      </contour>
      <contour>
        <pt x="191" y="723" on="1"/>
        <pt x="191" y="811" on="1"/>
        <pt x="1243" y="1323" on="1"/>
        <pt x="1243" y="1172" on="1"/>
        <pt x="386" y="771" on="1"/>
        <pt x="1243" y="387" on="1"/>
        <pt x="1243" y="235" on="1"/>
      </contour>
    </TTGlyph>
    <TTGlyph name="logicalnot" xMin="152" yMin="258" xMax="1311" yMax="866">
      <contour>
        <pt x="1146" y="715" on="1"/>
        <pt x="152" y="715" on="1"/>
        <pt x="152" y="866" on="1"/>
        <pt x="1311" y="866" on="1"/>
        <pt x="1311" y="258" on="1"/>
        <pt x="1146" y="258" on="1"/>
      </contour>
    </TTGlyph>
    <TTGlyph name="lozenge" xMin="125" yMin="-48" xMax="1251" yMax="1595">
      <contour>
        <pt x="694" y="1437" on="1"/>
        <pt x="618" y="1305" on="0"/>
        <pt x="323" y="830" on="0"/>
        <pt x="289" y="774" on="1"/>
        <pt x="682" y="106" on="1"/>
        <pt x="774" y="271" on="0"/>
        <pt x="1041" y="701" on="0"/>
        <pt x="1084" y="772" on="1"/>
        <pt x="1040" y="848" on="0"/>
        <pt x="782" y="1276" on="0"/>
      </contour>
      <contour>
        <pt x="740" y="-48" on="1"/>
        <pt x="624" y="-48" on="1"/>
        <pt x="125" y="772" on="1"/>
        <pt x="631" y="1595" on="1"/>
        <pt x="750" y="1595" on="1"/>
        <pt x="1251" y="773" on="1"/>
      </contour>
    </TTGlyph>
    <TTGlyph name="lslash" xMin="125" yMin="0" xMax="1259" yMax="1585">
      <contour>
        <pt x="195" y="1433" on="1"/>
        <pt x="195" y="1585" on="1"/>
        <pt x="788" y="1585" on="1"/>
        <pt x="788" y="916" on="1"/>
        <pt x="1124" y="1080" on="1"/>
        <pt x="1124" y="931" on="1"/>
        <pt x="788" y="767" on="1"/>
        <pt x="788" y="144" on="1"/>
        <pt x="1259" y="144" on="1"/>
        <pt x="1259" y="0" on="1"/>
        <pt x="125" y="0" on="1"/>
        <pt x="125" y="144" on="1"/>
        <pt x="606" y="144" on="1"/>
        <pt x="606" y="678" on="1"/>
        <pt x="305" y="531" on="1"/>
        <pt x="305" y="680" on="1"/>
        <pt x="606" y="827" on="1"/>
        <pt x="606" y="1433" on="1"/>
      </contour>
    </TTGlyph>
    <TTGlyph name="m" xMin="100" yMin="0" xMax="1140" yMax="1130">
      <contour>
        <pt x="668" y="960" on="1"/>
        <pt x="734" y="1130" on="0"/>
        <pt x="899" y="1130" on="1"/>
        <pt x="1108" y="1130" on="0"/>
        <pt x="1135" y="829" on="1"/>
        <pt x="1140" y="773" on="0"/>
        <pt x="1140" y="703" on="1"/>
        <pt x="1140" y="0" on="1"/>
        <pt x="973" y="0" on="1"/>
        <pt x="973" y="682" on="1"/>
        <pt x="973" y="879" on="0"/>
        <pt x="921" y="974" on="0"/>
        <pt x="878" y="990" on="0"/>
        <pt x="852" y="990" on="1"/>
        <pt x="764" y="990" on="0"/>
        <pt x="727" y="892" on="1"/>
        <pt x="703" y="829" on="0"/>
        <pt x="703" y="680" on="1"/>
        <pt x="703" y="0" on="1"/>
        <pt x="550" y="0" on="1"/>
        <pt x="550" y="669" on="1"/>
        <pt x="550" y="890" on="0"/>
        <pt x="498" y="956" on="1"/>
        <pt x="471" y="990" on="0"/>
        <pt x="370" y="990" on="0"/>
        <pt x="334" y="946" on="1"/>
        <pt x="267" y="864" on="0"/>
        <pt x="267" y="721" on="1"/>
        <pt x="267" y="0" on="1"/>
        <pt x="100" y="0" on="1"/>
        <pt x="100" y="1097" on="1"/>
        <pt x="245" y="1097" on="1"/>
        <pt x="256" y="952" on="1"/>
        <pt x="285" y="1027" on="0"/>
        <pt x="387" y="1130" on="0"/>
        <pt x="540" y="1130" on="0"/>
        <pt x="647" y="1040" on="0"/>
      </contour>
    </TTGlyph>
    <TTGlyph name="macron" xMin="275" yMin="1499" xMax="954" yMax="1639">
      <contour>
        <pt x="275" y="1499" on="1"/>
        <pt x="275" y="1639" on="1"/>
        <pt x="954" y="1639" on="1"/>
        <pt x="954" y="1499" on="1"/>
      </contour>
    </TTGlyph>
    <TTGlyph name="minus" xMin="152" yMin="538" xMax="1312" yMax="687">
      <contour>
        <pt x="1312" y="538" on="1"/>
        <pt x="152" y="538" on="1"/>
        <pt x="152" y="687" on="1"/>
        <pt x="1312" y="687" on="1"/>
      </contour>
    </TTGlyph>
    <TTGlyph name="multiply" xMin="190" yMin="168" xMax="1077" yMax="1036">
      <contour>
        <pt x="1077" y="280" on="1"/>
        <pt x="961" y="168" on="1"/>
        <pt x="633" y="489" on="1"/>
        <pt x="305" y="168" on="1"/>
        <pt x="190" y="278" on="1"/>
        <pt x="518" y="602" on="1"/>
        <pt x="190" y="924" on="1"/>
        <pt x="305" y="1036" on="1"/>
        <pt x="633" y="713" on="1"/>
        <pt x="961" y="1036" on="1"/>
        <pt x="1077" y="923" on="1"/>
        <pt x="747" y="602" on="1"/>
      </contour>
    </TTGlyph>
    <TTGlyph name="n" xMin="196" yMin="0" xMax="1054" yMax="1130">
      <contour>
        <pt x="713" y="1130" on="1"/>
        <pt x="1054" y="1130" on="0"/>
        <pt x="1054" y="698" on="1"/>
        <pt x="1054" y="0" on="1"/>
        <pt x="872" y="0" on="1"/>
        <pt x="872" y="676" on="1"/>
        <pt x="872" y="792" on="0"/>
        <pt x="848" y="892" on="0"/>
        <pt x="824" y="924" on="1"/>
        <pt x="773" y="990" on="0"/>
        <pt x="657" y="990" on="1"/>
        <pt x="540" y="990" on="0"/>
        <pt x="378" y="854" on="0"/>
        <pt x="378" y="742" on="1"/>
        <pt x="378" y="0" on="1"/>
        <pt x="196" y="0" on="1"/>
        <pt x="196" y="1097" on="1"/>
        <pt x="363" y="1097" on="1"/>
        <pt x="373" y="978" on="1"/>
        <pt x="482" y="1130" on="0"/>
      </contour>
    </TTGlyph>
    <TTGlyph name="nacute" xMin="196" yMin="0" xMax="1059" yMax="1689">
      <component glyphName=".ttfautohint" x="196" y="0" flags="0x0"/>
      <component glyphName="n" x="0" y="0" flags="0x1004"/>
      <component glyphName="acute" x="148" y="-16" flags="0x1004"/>
    </TTGlyph>
    <TTGlyph name="ncaron" xMin="196" yMin="0" xMax="1054" yMax="1580">
      <component glyphName=".ttfautohint" x="196" y="0" flags="0x0"/>
      <component glyphName="n" x="0" y="0" flags="0x1004"/>
      <component glyphName="caron" x="-2" y="-34" flags="0x1004"/>
    </TTGlyph>
    <TTGlyph name="ncommaaccent" xMin="196" yMin="-604" xMax="1054" yMax="1130">
      <contour>
        <pt x="799" y="-102" on="1"/>
        <pt x="618" y="-604" on="1"/>
        <pt x="473" y="-604" on="1"/>
        <pt x="591" y="-102" on="1"/>
      </contour>
      <contour>
        <pt x="713" y="1130" on="1"/>
        <pt x="1054" y="1130" on="0"/>
        <pt x="1054" y="698" on="1"/>
        <pt x="1054" y="0" on="1"/>
        <pt x="872" y="0" on="1"/>
        <pt x="872" y="676" on="1"/>
        <pt x="872" y="792" on="0"/>
        <pt x="848" y="892" on="0"/>
        <pt x="824" y="924" on="1"/>
        <pt x="773" y="990" on="0"/>
        <pt x="657" y="990" on="1"/>
        <pt x="540" y="990" on="0"/>
        <pt x="378" y="854" on="0"/>
        <pt x="378" y="742" on="1"/>
        <pt x="378" y="0" on="1"/>
        <pt x="196" y="0" on="1"/>
        <pt x="196" y="1097" on="1"/>
        <pt x="363" y="1097" on="1"/>
        <pt x="373" y="978" on="1"/>
        <pt x="482" y="1130" on="0"/>
      </contour>
    </TTGlyph>
    <TTGlyph name="nine" xMin="193" yMin="0" xMax="1153" yMax="1517">
      <contour>
        <pt x="798" y="750" on="0"/>
        <pt x="953" y="925" on="0"/>
        <pt x="953" y="1196" on="0"/>
        <pt x="797" y="1363" on="0"/>
        <pt x="541" y="1363" on="0"/>
        <pt x="383" y="1190" on="0"/>
        <pt x="383" y="922" on="0"/>
        <pt x="529" y="750" on="0"/>
      </contour>
      <contour>
        <pt x="831" y="669" on="1"/>
        <pt x="737" y="610" on="0"/>
        <pt x="615" y="610" on="1"/>
        <pt x="421" y="610" on="0"/>
        <pt x="193" y="853" on="0"/>
        <pt x="193" y="1052" on="1"/>
        <pt x="193" y="1196" on="0"/>
        <pt x="328" y="1412" on="0"/>
        <pt x="540" y="1517" on="0"/>
        <pt x="665" y="1517" on="1"/>
        <pt x="895" y="1517" on="0"/>
        <pt x="1153" y="1258" on="0"/>
        <pt x="1153" y="794" on="0"/>
        <pt x="989" y="583" on="1"/>
        <pt x="539" y="0" on="1"/>
        <pt x="297" y="0" on="1"/>
      </contour>
    </TTGlyph>
    <TTGlyph name="notequal" xMin="152" yMin="50" xMax="1282" yMax="1219">
      <contour>
        <pt x="929" y="922" on="1"/>
        <pt x="1271" y="922" on="1"/>
        <pt x="1282" y="791" on="1"/>
        <pt x="864" y="791" on="1"/>
        <pt x="700" y="483" on="1"/>
        <pt x="1273" y="483" on="1"/>
        <pt x="1282" y="353" on="1"/>
        <pt x="635" y="353" on="1"/>
        <pt x="480" y="50" on="1"/>
        <pt x="345" y="70" on="1"/>
        <pt x="487" y="353" on="1"/>
        <pt x="161" y="353" on="1"/>
        <pt x="153" y="483" on="1"/>
        <pt x="554" y="483" on="1"/>
        <pt x="716" y="791" on="1"/>
        <pt x="161" y="791" on="1"/>
        <pt x="152" y="922" on="1"/>
        <pt x="779" y="922" on="1"/>
        <pt x="930" y="1219" on="1"/>
        <pt x="1068" y="1200" on="1"/>
      </contour>
    </TTGlyph>
    <TTGlyph name="ntilde" xMin="196" yMin="0" xMax="1054" yMax="1511">
      <component glyphName=".ttfautohint" x="196" y="0" flags="0x0"/>
      <component glyphName="n" x="0" y="0" flags="0x1004"/>
      <component glyphName="tilde" x="-9" y="-37" flags="0x1004"/>
    </TTGlyph>
    <TTGlyph name="numbersign" xMin="108" yMin="-25" xMax="1172" yMax="1568">
      <contour>
        <pt x="592" y="997" on="1"/>
        <pt x="509" y="573" on="1"/>
        <pt x="727" y="573" on="1"/>
        <pt x="811" y="997" on="1"/>
      </contour>
      <contour>
        <pt x="1155" y="997" on="1"/>
        <pt x="971" y="997" on="1"/>
        <pt x="886" y="573" on="1"/>
        <pt x="1073" y="573" on="1"/>
        <pt x="1058" y="437" on="1"/>
        <pt x="863" y="437" on="1"/>
        <pt x="772" y="-25" on="1"/>
        <pt x="610" y="-25" on="1"/>
        <pt x="698" y="437" on="1"/>
        <pt x="483" y="437" on="1"/>
        <pt x="393" y="-25" on="1"/>
        <pt x="230" y="-25" on="1"/>
        <pt x="324" y="437" on="1"/>
        <pt x="108" y="437" on="1"/>
        <pt x="121" y="573" on="1"/>
        <pt x="350" y="573" on="1"/>
        <pt x="430" y="996" on="1"/>
        <pt x="205" y="996" on="1"/>
        <pt x="219" y="1130" on="1"/>
        <pt x="455" y="1130" on="1"/>
        <pt x="541" y="1568" on="1"/>
        <pt x="704" y="1568" on="1"/>
        <pt x="619" y="1130" on="1"/>
        <pt x="837" y="1130" on="1"/>
        <pt x="921" y="1568" on="1"/>
        <pt x="1083" y="1568" on="1"/>
        <pt x="997" y="1130" on="1"/>
        <pt x="1172" y="1130" on="1"/>
      </contour>
    </TTGlyph>
    <TTGlyph name="o" xMin="138" yMin="-25" xMax="1091" yMax="1130">
      <contour>
        <pt x="612" y="115" on="1"/>
        <pt x="803" y="115" on="0"/>
        <pt x="872" y="305" on="1"/>
        <pt x="909" y="407" on="0"/>
        <pt x="909" y="622" on="0"/>
        <pt x="901" y="682" on="1"/>
        <pt x="883" y="818" on="0"/>
        <pt x="746" y="990" on="0"/>
        <pt x="612" y="990" on="1"/>
        <pt x="426" y="990" on="0"/>
        <pt x="358" y="796" on="1"/>
        <pt x="322" y="692" on="0"/>
        <pt x="322" y="578" on="1"/>
        <pt x="322" y="376" on="0"/>
        <pt x="448" y="115" on="0"/>
      </contour>
      <contour>
        <pt x="1091" y="810" on="0"/>
        <pt x="1091" y="294" on="0"/>
        <pt x="833" y="-25" on="0"/>
        <pt x="612" y="-25" on="1"/>
        <pt x="494" y="-25" on="0"/>
        <pt x="310" y="65" on="0"/>
        <pt x="253" y="144" on="1"/>
        <pt x="138" y="303" on="0"/>
        <pt x="138" y="813" on="0"/>
        <pt x="392" y="1130" on="0"/>
        <pt x="853" y="1130" on="0"/>
      </contour>
    </TTGlyph>
    <TTGlyph name="oacute" xMin="138" yMin="-25" xMax="1091" yMax="1689">
      <component glyphName=".ttfautohint" x="138" y="0" flags="0x0"/>
      <component glyphName="o" x="0" y="0" flags="0x1004"/>
      <component glyphName="acute" x="123" y="-16" flags="0x1004"/>
    </TTGlyph>
    <TTGlyph name="obreve" xMin="138" yMin="-25" xMax="1091" yMax="1488">
      <component glyphName=".ttfautohint" x="138" y="0" flags="0x0"/>
      <component glyphName="o" x="0" y="0" flags="0x1004"/>
      <component glyphName="breve" x="-12" y="-91" flags="0x1004"/>
    </TTGlyph>
    <TTGlyph name="ocircumflex" xMin="138" yMin="-25" xMax="1091" yMax="1601">
      <component glyphName=".ttfautohint" x="138" y="0" flags="0x0"/>
      <component glyphName="o" x="0" y="0" flags="0x1004"/>
      <component glyphName="circumflex" x="-14" y="-14" flags="0x1004"/>
    </TTGlyph>
    <TTGlyph name="odieresis" xMin="138" yMin="-25" xMax="1091" yMax="1442">
      <component glyphName=".ttfautohint" x="138" y="0" flags="0x0"/>
      <component glyphName="o" x="0" y="0" flags="0x1004"/>
      <component glyphName="dieresis" x="-32" y="-16" flags="0x1004"/>
    </TTGlyph>
    <TTGlyph name="oe" xMin="70" yMin="-25" xMax="1170" yMax="1130">
      <contour>
        <pt x="1026" y="653" on="1"/>
        <pt x="1020" y="847" on="0"/>
        <pt x="966" y="930" on="1"/>
        <pt x="936" y="977" on="0"/>
        <pt x="890" y="977" on="1"/>
        <pt x="821" y="977" on="0"/>
        <pt x="746" y="794" on="0"/>
        <pt x="739" y="653" on="1"/>
      </contour>
      <contour>
        <pt x="1148" y="98" on="1"/>
        <pt x="1038" y="-25" on="0"/>
        <pt x="730" y="-25" on="0"/>
        <pt x="654" y="156" on="1"/>
        <pt x="567" y="-25" on="0"/>
        <pt x="419" y="-25" on="1"/>
        <pt x="309" y="-25" on="0"/>
        <pt x="228" y="53" on="1"/>
        <pt x="70" y="207" on="0"/>
        <pt x="70" y="551" on="1"/>
        <pt x="70" y="810" on="0"/>
        <pt x="268" y="1130" on="0"/>
        <pt x="577" y="1130" on="0"/>
        <pt x="661" y="951" on="1"/>
        <pt x="744" y="1130" on="0"/>
        <pt x="890" y="1130" on="1"/>
        <pt x="978" y="1130" on="0"/>
        <pt x="1043" y="1054" on="1"/>
        <pt x="1170" y="907" on="0"/>
        <pt x="1170" y="581" on="1"/>
        <pt x="1169" y="520" on="1"/>
        <pt x="733" y="520" on="1"/>
        <pt x="739" y="344" on="0"/>
        <pt x="816" y="129" on="0"/>
        <pt x="888" y="129" on="1"/>
        <pt x="988" y="129" on="0"/>
        <pt x="1068" y="222" on="1"/>
      </contour>
      <contour>
        <pt x="589" y="513" on="1"/>
        <pt x="533" y="904" on="0"/>
        <pt x="425" y="977" on="1"/>
        <pt x="379" y="977" on="0"/>
        <pt x="309" y="903" on="0"/>
        <pt x="271" y="777" on="0"/>
        <pt x="253" y="632" on="0"/>
        <pt x="253" y="468" on="0"/>
        <pt x="271" y="324" on="0"/>
        <pt x="309" y="201" on="0"/>
        <pt x="379" y="129" on="0"/>
        <pt x="424" y="129" on="1"/>
        <pt x="514" y="129" on="0"/>
        <pt x="589" y="384" on="0"/>
      </contour>
    </TTGlyph>
    <TTGlyph name="ogonek" xMin="414" yMin="-424" xMax="850" yMax="13">
      <contour>
        <pt x="795" y="0" on="1"/>
        <pt x="569" y="-113" on="0"/>
        <pt x="569" y="-212" on="1"/>
        <pt x="569" y="-260" on="0"/>
        <pt x="643" y="-306" on="0"/>
        <pt x="759" y="-306" on="0"/>
        <pt x="850" y="-271" on="1"/>
        <pt x="850" y="-392" on="1"/>
        <pt x="772" y="-424" on="0"/>
        <pt x="610" y="-424" on="0"/>
        <pt x="495" y="-395" on="0"/>
        <pt x="414" y="-311" on="0"/>
        <pt x="414" y="-204" on="0"/>
        <pt x="437" y="-154" on="1"/>
        <pt x="474" y="-72" on="0"/>
        <pt x="653" y="13" on="1"/>
      </contour>
    </TTGlyph>
    <TTGlyph name="ograve" xMin="138" yMin="-25" xMax="1091" yMax="1689">
      <component glyphName=".ttfautohint" x="138" y="0" flags="0x0"/>
      <component glyphName="o" x="0" y="0" flags="0x1004"/>
      <component glyphName="grave" x="-256" y="-16" flags="0x1004"/>
    </TTGlyph>
    <TTGlyph name="ohungarumlaut" xMin="138" yMin="-25" xMax="1139" yMax="1569">
      <component glyphName=".ttfautohint" x="138" y="0" flags="0x0"/>
      <component glyphName="o" x="0" y="0" flags="0x1004"/>
      <component glyphName="hungarumlaut" x="156" y="-38" flags="0x1004"/>
    </TTGlyph>
    <TTGlyph name="omacron" xMin="138" yMin="-25" xMax="1091" yMax="1392">
      <component glyphName=".ttfautohint" x="138" y="0" flags="0x0"/>
      <component glyphName="macron" x="0" y="-247" flags="0x1004"/>
      <component glyphName="o" x="0" y="0" flags="0x1204"/>
    </TTGlyph>
    <TTGlyph name="one" xMin="237" yMin="0" xMax="1075" yMax="1492">
      <contour>
        <pt x="237" y="1287" on="1"/>
        <pt x="374" y="1343" on="0"/>
        <pt x="573" y="1492" on="1"/>
        <pt x="761" y="1492" on="1"/>
        <pt x="761" y="146" on="1"/>
        <pt x="1075" y="146" on="1"/>
        <pt x="1075" y="0" on="1"/>
        <pt x="238" y="0" on="1"/>
        <pt x="238" y="146" on="1"/>
        <pt x="574" y="146" on="1"/>
        <pt x="574" y="1290" on="1"/>
        <pt x="546" y="1274" on="0"/>
        <pt x="322" y="1139" on="0"/>
        <pt x="237" y="1106" on="1"/>
      </contour>
    </TTGlyph>
    <TTGlyph name="onehalf" xMin="2" yMin="-26" xMax="1521" yMax="1560">
      <contour>
        <pt x="171" y="1381" on="1"/>
        <pt x="95" y="1342" on="0"/>
        <pt x="2" y="1306" on="1"/>
        <pt x="3" y="1447" on="1"/>
        <pt x="103" y="1481" on="0"/>
        <pt x="188" y="1533" on="1"/>
        <pt x="304" y="1549" on="1"/>
        <pt x="304" y="781" on="1"/>
        <pt x="440" y="781" on="1"/>
        <pt x="440" y="656" on="1"/>
        <pt x="36" y="656" on="1"/>
        <pt x="36" y="785" on="1"/>
        <pt x="171" y="785" on="1"/>
      </contour>
      <contour>
        <pt x="323" y="1" on="1"/>
        <pt x="157" y="1" on="1"/>
        <pt x="1160" y="1560" on="1"/>
        <pt x="1323" y="1560" on="1"/>
      </contour>
      <contour>
        <pt x="960" y="776" on="0"/>
        <pt x="1108" y="881" on="0"/>
        <pt x="1347" y="881" on="0"/>
        <pt x="1521" y="759" on="0"/>
        <pt x="1521" y="495" on="0"/>
        <pt x="1398" y="360" on="1"/>
        <pt x="1308" y="260" on="0"/>
        <pt x="1129" y="112" on="0"/>
        <pt x="1117" y="101" on="1"/>
        <pt x="1520" y="101" on="1"/>
        <pt x="1520" y="-26" on="1"/>
        <pt x="914" y="-26" on="1"/>
        <pt x="914" y="94" on="1"/>
        <pt x="942" y="119" on="0"/>
        <pt x="1119" y="276" on="0"/>
        <pt x="1291" y="448" on="0"/>
        <pt x="1378" y="597" on="0"/>
        <pt x="1378" y="632" on="1"/>
        <pt x="1380" y="632" on="1"/>
        <pt x="1380" y="693" on="0"/>
        <pt x="1292" y="754" on="0"/>
        <pt x="1224" y="754" on="1"/>
        <pt x="1088" y="754" on="0"/>
        <pt x="1017" y="612" on="1"/>
        <pt x="924" y="697" on="1"/>
      </contour>
    </TTGlyph>
    <TTGlyph name="onequarter" xMin="23" yMin="1" xMax="1621" yMax="1560">
      <contour>
        <pt x="1353" y="361" on="1"/>
        <pt x="1353" y="361" on="0"/>
        <pt x="1352" y="570" on="1"/>
        <pt x="1352" y="621" on="0"/>
        <pt x="1354" y="725" on="1"/>
        <pt x="1091" y="361" on="1"/>
      </contour>
      <contour>
        <pt x="191" y="1381" on="1"/>
        <pt x="100" y="1333" on="0"/>
        <pt x="23" y="1306" on="1"/>
        <pt x="24" y="1447" on="1"/>
        <pt x="116" y="1477" on="0"/>
        <pt x="209" y="1533" on="1"/>
        <pt x="326" y="1549" on="1"/>
        <pt x="326" y="781" on="1"/>
        <pt x="461" y="781" on="1"/>
        <pt x="461" y="656" on="1"/>
        <pt x="57" y="656" on="1"/>
        <pt x="57" y="785" on="1"/>
        <pt x="191" y="785" on="1"/>
      </contour>
      <contour>
        <pt x="409" y="1" on="1"/>
        <pt x="242" y="1" on="1"/>
        <pt x="1244" y="1560" on="1"/>
        <pt x="1408" y="1560" on="1"/>
      </contour>
      <contour>
        <pt x="1354" y="245" on="1"/>
        <pt x="936" y="245" on="1"/>
        <pt x="936" y="345" on="1"/>
        <pt x="1340" y="906" on="1"/>
        <pt x="1490" y="906" on="1"/>
        <pt x="1490" y="361" on="1"/>
        <pt x="1610" y="361" on="1"/>
        <pt x="1621" y="245" on="1"/>
        <pt x="1487" y="245" on="1"/>
        <pt x="1487" y="1" on="1"/>
        <pt x="1354" y="41" on="1"/>
      </contour>
    </TTGlyph>
    <TTGlyph name="ordfeminine" xMin="276" yMin="834" xMax="951" yMax="1604">
      <contour>
        <pt x="580" y="945" on="1"/>
        <pt x="682" y="945" on="0"/>
        <pt x="798" y="1073" on="0"/>
        <pt x="798" y="1178" on="1"/>
        <pt x="798" y="1205" on="1"/>
        <pt x="765" y="1199" on="0"/>
        <pt x="555" y="1184" on="0"/>
        <pt x="429" y="1129" on="0"/>
        <pt x="429" y="1061" on="1"/>
        <pt x="429" y="945" on="0"/>
      </contour>
      <contour>
        <pt x="945" y="1340" on="1"/>
        <pt x="941" y="1086" on="1"/>
        <pt x="941" y="963" on="0"/>
        <pt x="951" y="853" on="1"/>
        <pt x="806" y="853" on="1"/>
        <pt x="799" y="933" on="1"/>
        <pt x="720" y="834" on="0"/>
        <pt x="555" y="834" on="1"/>
        <pt x="436" y="834" on="0"/>
        <pt x="276" y="951" on="0"/>
        <pt x="276" y="1188" on="0"/>
        <pt x="383" y="1241" on="1"/>
        <pt x="467" y="1283" on="0"/>
        <pt x="757" y="1310" on="0"/>
        <pt x="797" y="1315" on="1"/>
        <pt x="797" y="1411" on="0"/>
        <pt x="727" y="1486" on="0"/>
        <pt x="633" y="1486" on="1"/>
        <pt x="468" y="1486" on="0"/>
        <pt x="401" y="1384" on="1"/>
        <pt x="327" y="1466" on="1"/>
        <pt x="409" y="1604" on="0"/>
        <pt x="641" y="1604" on="1"/>
        <pt x="784" y="1604" on="0"/>
        <pt x="945" y="1473" on="0"/>
      </contour>
    </TTGlyph>
    <TTGlyph name="ordmasculine" xMin="281" yMin="833" xMax="1080" yMax="1602">
      <contour>
        <pt x="437" y="1096" on="0"/>
        <pt x="566" y="950" on="0"/>
        <pt x="796" y="950" on="0"/>
        <pt x="927" y="1097" on="0"/>
        <pt x="927" y="1339" on="0"/>
        <pt x="801" y="1486" on="0"/>
        <pt x="565" y="1486" on="0"/>
        <pt x="437" y="1339" on="0"/>
      </contour>
      <contour>
        <pt x="1080" y="1042" on="0"/>
        <pt x="863" y="833" on="0"/>
        <pt x="499" y="833" on="0"/>
        <pt x="281" y="1039" on="0"/>
        <pt x="281" y="1395" on="0"/>
        <pt x="502" y="1602" on="0"/>
        <pt x="866" y="1602" on="0"/>
        <pt x="1080" y="1397" on="0"/>
      </contour>
    </TTGlyph>
    <TTGlyph name="oslash" xMin="118" yMin="-283" xMax="1110" yMax="1386">
      <contour>
        <pt x="322" y="-283" on="1"/>
        <pt x="210" y="-242" on="1"/>
        <pt x="338" y="52" on="1"/>
        <pt x="231" y="126" on="0"/>
        <pt x="118" y="388" on="0"/>
        <pt x="118" y="551" on="1"/>
        <pt x="118" y="810" on="0"/>
        <pt x="393" y="1130" on="0"/>
        <pt x="615" y="1130" on="1"/>
        <pt x="713" y="1130" on="0"/>
        <pt x="796" y="1101" on="1"/>
        <pt x="920" y="1386" on="1"/>
        <pt x="1032" y="1351" on="1"/>
        <pt x="900" y="1047" on="1"/>
        <pt x="1003" y="974" on="0"/>
        <pt x="1110" y="719" on="0"/>
        <pt x="1110" y="558" on="1"/>
        <pt x="1110" y="297" on="0"/>
        <pt x="831" y="-25" on="0"/>
        <pt x="607" y="-25" on="1"/>
        <pt x="520" y="-25" on="0"/>
        <pt x="445" y="0" on="1"/>
      </contour>
      <contour>
        <pt x="509" y="147" on="1"/>
        <pt x="556" y="129" on="0"/>
        <pt x="681" y="129" on="0"/>
        <pt x="736" y="153" on="1"/>
        <pt x="836" y="197" on="0"/>
        <pt x="927" y="416" on="0"/>
        <pt x="927" y="553" on="1"/>
        <pt x="927" y="771" on="0"/>
        <pt x="829" y="884" on="1"/>
      </contour>
      <contour>
        <pt x="409" y="213" on="1"/>
        <pt x="732" y="955" on="1"/>
        <pt x="679" y="977" on="0"/>
        <pt x="531" y="977" on="0"/>
        <pt x="406" y="903" on="0"/>
        <pt x="371" y="840" on="1"/>
        <pt x="301" y="716" on="0"/>
        <pt x="301" y="550" on="1"/>
        <pt x="301" y="329" on="0"/>
      </contour>
    </TTGlyph>
    <TTGlyph name="otilde" xMin="138" yMin="-25" xMax="1091" yMax="1511">
      <component glyphName=".ttfautohint" x="138" y="0" flags="0x0"/>
      <component glyphName="o" x="0" y="0" flags="0x1004"/>
      <component glyphName="tilde" x="-34" y="-37" flags="0x1004"/>
    </TTGlyph>
    <TTGlyph name="p" xMin="159" yMin="-441" xMax="1107" yMax="1130">
      <contour>
        <pt x="339" y="555" on="1"/>
        <pt x="339" y="115" on="0"/>
        <pt x="647" y="115" on="1"/>
        <pt x="924" y="115" on="0"/>
        <pt x="924" y="555" on="1"/>
        <pt x="924" y="799" on="0"/>
        <pt x="775" y="990" on="0"/>
        <pt x="644" y="990" on="1"/>
        <pt x="388" y="990" on="0"/>
        <pt x="348" y="694" on="1"/>
        <pt x="339" y="632" on="0"/>
      </contour>
      <contour>
        <pt x="654" y="-25" on="1"/>
        <pt x="548" y="-25" on="0"/>
        <pt x="384" y="73" on="0"/>
        <pt x="341" y="150" on="1"/>
        <pt x="341" y="-421" on="1"/>
        <pt x="159" y="-441" on="1"/>
        <pt x="159" y="1097" on="1"/>
        <pt x="341" y="1097" on="1"/>
        <pt x="341" y="946" on="1"/>
        <pt x="389" y="1028" on="0"/>
        <pt x="549" y="1130" on="0"/>
        <pt x="650" y="1130" on="1"/>
        <pt x="921" y="1130" on="0"/>
        <pt x="1035" y="906" on="1"/>
        <pt x="1107" y="764" on="0"/>
        <pt x="1107" y="568" on="1"/>
        <pt x="1107" y="255" on="0"/>
        <pt x="956" y="92" on="1"/>
        <pt x="848" y="-25" on="0"/>
      </contour>
    </TTGlyph>
    <TTGlyph name="paragraph" xMin="66" yMin="-160" xMax="1065" yMax="1575">
      <contour>
        <pt x="66" y="1227" on="1"/>
        <pt x="66" y="1523" on="0"/>
        <pt x="466" y="1566" on="1"/>
        <pt x="544" y="1575" on="0"/>
        <pt x="637" y="1575" on="1"/>
        <pt x="1065" y="1575" on="1"/>
        <pt x="1065" y="1441" on="1"/>
        <pt x="969" y="1441" on="1"/>
        <pt x="969" y="-160" on="1"/>
        <pt x="825" y="-160" on="1"/>
        <pt x="825" y="1441" on="1"/>
        <pt x="595" y="1441" on="1"/>
        <pt x="595" y="-160" on="1"/>
        <pt x="438" y="-160" on="1"/>
        <pt x="438" y="853" on="1"/>
        <pt x="275" y="855" on="0"/>
        <pt x="66" y="1065" on="0"/>
      </contour>
    </TTGlyph>
    <TTGlyph name="parenleft" xMin="383" yMin="-152" xMax="863" yMax="1705">
      <contour>
        <pt x="688" y="-152" on="1"/>
        <pt x="383" y="255" on="0"/>
        <pt x="383" y="1288" on="0"/>
        <pt x="685" y="1705" on="1"/>
        <pt x="861" y="1705" on="1"/>
        <pt x="577" y="1257" on="0"/>
        <pt x="577" y="781" on="1"/>
        <pt x="577" y="514" on="0"/>
        <pt x="726" y="66" on="0"/>
        <pt x="863" y="-152" on="1"/>
      </contour>
    </TTGlyph>
    <TTGlyph name="parenright" xMin="334" yMin="-152" xMax="815" yMax="1705">
      <contour>
        <pt x="513" y="1705" on="1"/>
        <pt x="815" y="1288" on="0"/>
        <pt x="815" y="255" on="0"/>
        <pt x="510" y="-152" on="1"/>
        <pt x="334" y="-152" on="1"/>
        <pt x="471" y="66" on="0"/>
        <pt x="620" y="514" on="0"/>
        <pt x="620" y="781" on="1"/>
        <pt x="620" y="1257" on="0"/>
        <pt x="336" y="1705" on="1"/>
      </contour>
    </TTGlyph>
    <TTGlyph name="partialdiff" xMin="121" yMin="-26" xMax="1215" yMax="1664">
      <contour>
        <pt x="1011" y="712" on="1"/>
        <pt x="929" y="943" on="0"/>
        <pt x="693" y="943" on="1"/>
        <pt x="572" y="943" on="0"/>
        <pt x="482" y="872" on="1"/>
        <pt x="309" y="733" on="0"/>
        <pt x="309" y="453" on="1"/>
        <pt x="309" y="303" on="0"/>
        <pt x="451" y="120" on="0"/>
        <pt x="589" y="120" on="1"/>
        <pt x="670" y="120" on="0"/>
        <pt x="738" y="158" on="1"/>
        <pt x="859" y="225" on="0"/>
        <pt x="992" y="541" on="0"/>
      </contour>
      <contour>
        <pt x="667" y="1519" on="1"/>
        <pt x="508" y="1519" on="0"/>
        <pt x="350" y="1416" on="1"/>
        <pt x="339" y="1566" on="1"/>
        <pt x="492" y="1664" on="0"/>
        <pt x="678" y="1664" on="1"/>
        <pt x="1004" y="1664" on="0"/>
        <pt x="1137" y="1374" on="1"/>
        <pt x="1215" y="1204" on="0"/>
        <pt x="1215" y="962" on="1"/>
        <pt x="1215" y="636" on="0"/>
        <pt x="1014" y="128" on="0"/>
        <pt x="814" y="28" on="1"/>
        <pt x="705" y="-26" on="0"/>
        <pt x="573" y="-26" on="1"/>
        <pt x="358" y="-26" on="0"/>
        <pt x="121" y="235" on="0"/>
        <pt x="121" y="455" on="1"/>
        <pt x="121" y="592" on="0"/>
        <pt x="205" y="829" on="0"/>
        <pt x="352" y="994" on="0"/>
        <pt x="558" y="1088" on="0"/>
        <pt x="677" y="1088" on="1"/>
        <pt x="890" y="1088" on="0"/>
        <pt x="1027" y="907" on="1"/>
        <pt x="1028" y="989" on="1"/>
        <pt x="1028" y="1206" on="0"/>
        <pt x="949" y="1354" on="1"/>
        <pt x="908" y="1431" on="0"/>
        <pt x="764" y="1519" on="0"/>
      </contour>
    </TTGlyph>
    <TTGlyph name="percent" xMin="66" yMin="-19" xMax="1163" yMax="1571">
      <contour>
        <pt x="446" y="1390" on="0"/>
        <pt x="383" y="1457" on="0"/>
        <pt x="336" y="1457" on="1"/>
        <pt x="249" y="1457" on="0"/>
        <pt x="193" y="1325" on="0"/>
        <pt x="193" y="1133" on="0"/>
        <pt x="245" y="1004" on="0"/>
        <pt x="329" y="1004" on="1"/>
        <pt x="465" y="1004" on="0"/>
        <pt x="465" y="1232" on="1"/>
        <pt x="465" y="1298" on="0"/>
      </contour>
      <contour>
        <pt x="1125" y="1018" on="1"/>
        <pt x="201" y="465" on="1"/>
        <pt x="140" y="567" on="1"/>
        <pt x="1064" y="1124" on="1"/>
      </contour>
      <contour>
        <pt x="332" y="1571" on="1"/>
        <pt x="589" y="1571" on="0"/>
        <pt x="589" y="1230" on="1"/>
        <pt x="589" y="1073" on="0"/>
        <pt x="450" y="890" on="0"/>
        <pt x="191" y="890" on="0"/>
        <pt x="66" y="1074" on="0"/>
        <pt x="66" y="1383" on="0"/>
        <pt x="197" y="1571" on="0"/>
      </contour>
      <contour>
        <pt x="906" y="662" on="1"/>
        <pt x="1163" y="662" on="0"/>
        <pt x="1163" y="322" on="1"/>
        <pt x="1163" y="164" on="0"/>
        <pt x="1024" y="-19" on="0"/>
        <pt x="765" y="-19" on="0"/>
        <pt x="640" y="165" on="0"/>
        <pt x="640" y="474" on="0"/>
        <pt x="771" y="662" on="0"/>
      </contour>
      <contour>
        <pt x="1020" y="481" on="0"/>
        <pt x="957" y="548" on="0"/>
        <pt x="910" y="548" on="1"/>
        <pt x="823" y="548" on="0"/>
        <pt x="767" y="416" on="0"/>
        <pt x="767" y="224" on="0"/>
        <pt x="819" y="95" on="0"/>
        <pt x="903" y="95" on="1"/>
        <pt x="1039" y="95" on="0"/>
        <pt x="1039" y="323" on="1"/>
        <pt x="1039" y="389" on="0"/>
      </contour>
    </TTGlyph>
    <TTGlyph name="period" xMin="463" yMin="0" xMax="764" yMax="301">
      <contour>
        <pt x="764" y="0" on="1"/>
        <pt x="463" y="0" on="1"/>
        <pt x="463" y="301" on="1"/>
        <pt x="764" y="301" on="1"/>
      </contour>
    </TTGlyph>
    <TTGlyph name="periodcentered" xMin="487" yMin="557" xMax="728" yMax="785">
      <contour>
        <pt x="487" y="557" on="1"/>
        <pt x="487" y="785" on="1"/>
        <pt x="728" y="785" on="1"/>
        <pt x="728" y="557" on="1"/>
      </contour>
    </TTGlyph>
    <TTGlyph name="perthousand" xMin="4" yMin="-30" xMax="2468" yMax="1571">
      <contour>
        <pt x="593" y="1306" on="0"/>
        <pt x="488" y="1449" on="0"/>
        <pt x="276" y="1449" on="0"/>
        <pt x="167" y="1302" on="0"/>
        <pt x="167" y="1070" on="0"/>
        <pt x="274" y="926" on="0"/>
        <pt x="486" y="926" on="0"/>
        <pt x="593" y="1073" on="0"/>
      </contour>
      <contour>
        <pt x="1328" y="93" on="0"/>
        <pt x="1438" y="241" on="0"/>
        <pt x="1438" y="474" on="0"/>
        <pt x="1332" y="616" on="0"/>
        <pt x="1118" y="616" on="0"/>
        <pt x="1009" y="471" on="0"/>
        <pt x="1009" y="356" on="1"/>
        <pt x="1011" y="356" on="1"/>
        <pt x="1011" y="236" on="0"/>
        <pt x="1116" y="93" on="0"/>
      </contour>
      <contour>
        <pt x="1880" y="235" on="0"/>
        <pt x="1984" y="93" on="0"/>
        <pt x="2199" y="93" on="0"/>
        <pt x="2307" y="240" on="0"/>
        <pt x="2307" y="355" on="1"/>
        <pt x="2310" y="355" on="1"/>
        <pt x="2310" y="474" on="0"/>
        <pt x="2203" y="616" on="0"/>
        <pt x="1989" y="616" on="0"/>
        <pt x="1880" y="471" on="0"/>
      </contour>
      <contour>
        <pt x="1234" y="1559" on="1"/>
        <pt x="1399" y="1559" on="1"/>
        <pt x="365" y="-22" on="1"/>
        <pt x="195" y="-22" on="1"/>
      </contour>
      <contour>
        <pt x="4" y="1363" on="0"/>
        <pt x="205" y="1571" on="0"/>
        <pt x="557" y="1571" on="0"/>
        <pt x="752" y="1366" on="0"/>
        <pt x="752" y="1010" on="0"/>
        <pt x="551" y="804" on="0"/>
        <pt x="198" y="804" on="0"/>
        <pt x="4" y="1008" on="0"/>
      </contour>
      <contour>
        <pt x="848" y="531" on="0"/>
        <pt x="1051" y="740" on="0"/>
        <pt x="1403" y="740" on="0"/>
        <pt x="1595" y="534" on="0"/>
        <pt x="1595" y="179" on="0"/>
        <pt x="1394" y="-30" on="0"/>
        <pt x="1044" y="-30" on="0"/>
        <pt x="848" y="176" on="0"/>
      </contour>
      <contour>
        <pt x="1721" y="532" on="0"/>
        <pt x="1923" y="740" on="0"/>
        <pt x="2275" y="740" on="0"/>
        <pt x="2468" y="534" on="0"/>
        <pt x="2468" y="179" on="0"/>
        <pt x="2266" y="-30" on="0"/>
        <pt x="1915" y="-30" on="0"/>
        <pt x="1721" y="176" on="0"/>
      </contour>
    </TTGlyph>
    <TTGlyph name="plus" xMin="152" yMin="217" xMax="1311" yMax="1286">
      <contour>
        <pt x="652" y="1286" on="1"/>
        <pt x="814" y="1286" on="1"/>
        <pt x="814" y="827" on="1"/>
        <pt x="1311" y="827" on="1"/>
        <pt x="1311" y="676" on="1"/>
        <pt x="813" y="676" on="1"/>
        <pt x="813" y="217" on="1"/>
        <pt x="648" y="217" on="1"/>
        <pt x="648" y="676" on="1"/>
        <pt x="152" y="676" on="1"/>
        <pt x="152" y="827" on="1"/>
        <pt x="652" y="827" on="1"/>
      </contour>
    </TTGlyph>
    <TTGlyph name="plusminus" xMin="152" yMin="0" xMax="1312" yMax="1201">
      <contour>
        <pt x="152" y="150" on="1"/>
        <pt x="1312" y="150" on="1"/>
        <pt x="1312" y="0" on="1"/>
        <pt x="152" y="0" on="1"/>
      </contour>
      <contour>
        <pt x="644" y="1201" on="1"/>
        <pt x="810" y="1201" on="1"/>
        <pt x="810" y="795" on="1"/>
        <pt x="1309" y="795" on="1"/>
        <pt x="1309" y="645" on="1"/>
        <pt x="813" y="645" on="1"/>
        <pt x="813" y="242" on="1"/>
        <pt x="647" y="242" on="1"/>
        <pt x="647" y="645" on="1"/>
        <pt x="152" y="645" on="1"/>
        <pt x="152" y="795" on="1"/>
        <pt x="644" y="795" on="1"/>
      </contour>
    </TTGlyph>
    <TTGlyph name="product" xMin="156" yMin="-358" xMax="1647" yMax="1545">
      <contour>
        <pt x="1503" y="1388" on="1"/>
        <pt x="1503" y="-358" on="1"/>
        <pt x="1306" y="-358" on="1"/>
        <pt x="1306" y="1388" on="1"/>
        <pt x="506" y="1388" on="1"/>
        <pt x="506" y="-358" on="1"/>
        <pt x="312" y="-358" on="1"/>
        <pt x="312" y="1388" on="1"/>
        <pt x="174" y="1388" on="1"/>
        <pt x="156" y="1545" on="1"/>
        <pt x="1647" y="1545" on="1"/>
        <pt x="1629" y="1388" on="1"/>
      </contour>
    </TTGlyph>
    <TTGlyph name="q" xMin="106" yMin="-441" xMax="1089" yMax="1130">
      <contour>
        <pt x="907" y="555" on="1"/>
        <pt x="907" y="990" on="0"/>
        <pt x="586" y="990" on="1"/>
        <pt x="289" y="990" on="0"/>
        <pt x="289" y="555" on="1"/>
        <pt x="289" y="228" on="0"/>
        <pt x="467" y="140" on="1"/>
        <pt x="519" y="115" on="0"/>
        <pt x="673" y="115" on="0"/>
        <pt x="801" y="185" on="0"/>
        <pt x="837" y="248" on="1"/>
        <pt x="907" y="369" on="0"/>
      </contour>
      <contour>
        <pt x="907" y="946" on="1"/>
        <pt x="907" y="1097" on="1"/>
        <pt x="1089" y="1097" on="1"/>
        <pt x="1089" y="-421" on="1"/>
        <pt x="909" y="-441" on="1"/>
        <pt x="907" y="150" on="1"/>
        <pt x="843" y="66" on="0"/>
        <pt x="682" y="-25" on="0"/>
        <pt x="448" y="-25" on="0"/>
        <pt x="269" y="69" on="0"/>
        <pt x="215" y="152" on="1"/>
        <pt x="106" y="320" on="0"/>
        <pt x="106" y="808" on="0"/>
        <pt x="338" y="1130" on="0"/>
        <pt x="565" y="1130" on="1"/>
        <pt x="689" y="1130" on="0"/>
        <pt x="849" y="1036" on="0"/>
      </contour>
    </TTGlyph>
    <TTGlyph name="question" xMin="168" yMin="-12" xMax="959" yMax="1606">
      <contour>
        <pt x="328" y="-12" on="1"/>
        <pt x="328" y="216" on="1"/>
        <pt x="570" y="216" on="1"/>
        <pt x="570" y="-12" on="1"/>
      </contour>
      <contour>
        <pt x="426" y="1606" on="1"/>
        <pt x="836" y="1606" on="0"/>
        <pt x="932" y="1376" on="1"/>
        <pt x="959" y="1312" on="0"/>
        <pt x="959" y="1169" on="0"/>
        <pt x="911" y="1053" on="0"/>
        <pt x="834" y="960" on="0"/>
        <pt x="741" y="872" on="0"/>
        <pt x="648" y="788" on="0"/>
        <pt x="610" y="746" on="1"/>
        <pt x="523" y="652" on="0"/>
        <pt x="523" y="556" on="1"/>
        <pt x="523" y="499" on="0"/>
        <pt x="542" y="400" on="1"/>
        <pt x="360" y="400" on="1"/>
        <pt x="349" y="486" on="0"/>
        <pt x="349" y="569" on="1"/>
        <pt x="348" y="570" on="1"/>
        <pt x="348" y="693" on="0"/>
        <pt x="428" y="782" on="1"/>
        <pt x="480" y="841" on="0"/>
        <pt x="637" y="967" on="0"/>
        <pt x="676" y="1006" on="1"/>
        <pt x="773" y="1105" on="0"/>
        <pt x="773" y="1222" on="1"/>
        <pt x="773" y="1393" on="0"/>
        <pt x="570" y="1438" on="1"/>
        <pt x="513" y="1451" on="0"/>
        <pt x="447" y="1451" on="1"/>
        <pt x="305" y="1451" on="0"/>
        <pt x="168" y="1377" on="1"/>
        <pt x="168" y="1535" on="1"/>
        <pt x="318" y="1606" on="0"/>
      </contour>
    </TTGlyph>
    <TTGlyph name="questiondown" xMin="168" yMin="-13" xMax="959" yMax="1604">
      <contour>
        <pt x="799" y="1604" on="1"/>
        <pt x="799" y="1376" on="1"/>
        <pt x="557" y="1376" on="1"/>
        <pt x="557" y="1604" on="1"/>
      </contour>
      <contour>
        <pt x="692" y="-13" on="1"/>
        <pt x="317" y="-13" on="0"/>
        <pt x="208" y="186" on="1"/>
        <pt x="168" y="261" on="0"/>
        <pt x="168" y="433" on="0"/>
        <pt x="233" y="568" on="0"/>
        <pt x="329" y="667" on="0"/>
        <pt x="443" y="773" on="0"/>
        <pt x="491" y="818" on="1"/>
        <pt x="604" y="924" on="0"/>
        <pt x="604" y="1037" on="1"/>
        <pt x="604" y="1099" on="0"/>
        <pt x="586" y="1193" on="1"/>
        <pt x="767" y="1193" on="1"/>
        <pt x="778" y="1103" on="0"/>
        <pt x="778" y="1024" on="1"/>
        <pt x="779" y="1023" on="1"/>
        <pt x="779" y="902" on="0"/>
        <pt x="699" y="811" on="1"/>
        <pt x="645" y="750" on="0"/>
        <pt x="491" y="626" on="0"/>
        <pt x="452" y="588" on="1"/>
        <pt x="355" y="490" on="0"/>
        <pt x="355" y="371" on="1"/>
        <pt x="355" y="197" on="0"/>
        <pt x="556" y="154" on="1"/>
        <pt x="613" y="142" on="0"/>
        <pt x="680" y="142" on="1"/>
        <pt x="822" y="142" on="0"/>
        <pt x="959" y="216" on="1"/>
        <pt x="959" y="58" on="1"/>
        <pt x="811" y="-13" on="0"/>
      </contour>
    </TTGlyph>
    <TTGlyph name="quotedbl" xMin="285" yMin="1036" xMax="885" yMax="1568">
      <contour>
        <pt x="885" y="1568" on="1"/>
        <pt x="834" y="1036" on="1"/>
        <pt x="693" y="1036" on="1"/>
        <pt x="654" y="1568" on="1"/>
      </contour>
      <contour>
        <pt x="518" y="1568" on="1"/>
        <pt x="467" y="1036" on="1"/>
        <pt x="324" y="1036" on="1"/>
        <pt x="285" y="1568" on="1"/>
      </contour>
    </TTGlyph>
    <TTGlyph name="quotedblbase" xMin="244" yMin="-258" xMax="958" yMax="218">
      <contour>
        <pt x="958" y="218" on="1"/>
        <pt x="787" y="-258" on="1"/>
        <pt x="641" y="-258" on="1"/>
        <pt x="755" y="218" on="1"/>
      </contour>
      <contour>
        <pt x="561" y="218" on="1"/>
        <pt x="391" y="-258" on="1"/>
        <pt x="244" y="-258" on="1"/>
        <pt x="360" y="218" on="1"/>
      </contour>
    </TTGlyph>
    <TTGlyph name="quotedblleft" xMin="233" yMin="1110" xMax="938" yMax="1588">
      <contour>
        <pt x="233" y="1110" on="1"/>
        <pt x="404" y="1588" on="1"/>
        <pt x="551" y="1588" on="1"/>
        <pt x="435" y="1110" on="1"/>
      </contour>
      <contour>
        <pt x="620" y="1110" on="1"/>
        <pt x="790" y="1588" on="1"/>
        <pt x="938" y="1588" on="1"/>
        <pt x="822" y="1110" on="1"/>
      </contour>
    </TTGlyph>
    <TTGlyph name="quotedblright" xMin="233" yMin="1110" xMax="913" yMax="1588">
      <contour>
        <pt x="913" y="1588" on="1"/>
        <pt x="742" y="1110" on="1"/>
        <pt x="595" y="1110" on="1"/>
        <pt x="712" y="1588" on="1"/>
      </contour>
      <contour>
        <pt x="550" y="1588" on="1"/>
        <pt x="380" y="1110" on="1"/>
        <pt x="233" y="1110" on="1"/>
        <pt x="349" y="1588" on="1"/>
      </contour>
    </TTGlyph>
    <TTGlyph name="quoteleft" xMin="446" yMin="1110" xMax="762" yMax="1588">
      <contour>
        <pt x="446" y="1110" on="1"/>
        <pt x="617" y="1588" on="1"/>
        <pt x="762" y="1588" on="1"/>
        <pt x="647" y="1110" on="1"/>
      </contour>
    </TTGlyph>
    <TTGlyph name="quoteright" xMin="446" yMin="1110" xMax="761" yMax="1588">
      <contour>
        <pt x="761" y="1588" on="1"/>
        <pt x="592" y="1110" on="1"/>
        <pt x="446" y="1110" on="1"/>
        <pt x="563" y="1588" on="1"/>
      </contour>
    </TTGlyph>
    <TTGlyph name="quotesinglbase" xMin="457" yMin="-258" xMax="773" yMax="218">
      <contour>
        <pt x="773" y="218" on="1"/>
        <pt x="604" y="-258" on="1"/>
        <pt x="457" y="-258" on="1"/>
        <pt x="574" y="218" on="1"/>
      </contour>
    </TTGlyph>
    <TTGlyph name="quotesingle" xMin="496" yMin="969" xMax="755" yMax="1580">
      <contour>
        <pt x="558" y="969" on="1"/>
        <pt x="496" y="1580" on="1"/>
        <pt x="755" y="1580" on="1"/>
        <pt x="700" y="969" on="1"/>
      </contour>
    </TTGlyph>
</ttFont>
